<?xml version="1.0" encoding="UTF-8" standalone="no"?>
<!-- Created with Inkscape (http://www.inkscape.org/) -->

<svg
   width="210mm"
   height="297mm"
   viewBox="0 0 210 297"
   version="1.1"
   id="svg1"
   xml:space="preserve"
   inkscape:version="1.3.2 (091e20e, 2023-11-25, custom)"
   sodipodi:docname="flags.svg"
   xmlns:inkscape="http://www.inkscape.org/namespaces/inkscape"
   xmlns:sodipodi="http://sodipodi.sourceforge.net/DTD/sodipodi-0.dtd"
   xmlns="http://www.w3.org/2000/svg"
   xmlns:svg="http://www.w3.org/2000/svg"><sodipodi:namedview
     id="namedview1"
     pagecolor="#ffffff"
     bordercolor="#000000"
     borderopacity="0.25"
     inkscape:showpageshadow="2"
     inkscape:pageopacity="0.0"
     inkscape:pagecheckerboard="0"
     inkscape:deskcolor="#d1d1d1"
     inkscape:document-units="mm"
     inkscape:zoom="1.4142136"
     inkscape:cx="351.43207"
     inkscape:cy="341.17902"
     inkscape:window-width="2560"
     inkscape:window-height="1351"
     inkscape:window-x="-9"
     inkscape:window-y="-9"
     inkscape:window-maximized="1"
     inkscape:current-layer="layer1" /><defs
     id="defs1"><inkscape:path-effect
       effect="sketch"
       id="path-effect12893"
       is_visible="true"
       lpeversion="1"
       nbiter_approxstrokes="4"
       parallel_offset="0.2;1"
       strokelength="100"
       strokelength_rdm="0.3;1"
       strokeoverlap="0.3"
       strokeoverlap_rdm="0.3;1"
       ends_tolerance="0.1;1"
       tremble_size="5;1"
       tremble_frequency="1"
       nbtangents="5"
       tgt_places_rdmness="1;1"
       tgtlength="100"
       tgtlength_rdm="0.3;1"
       tgtscale="10" /><inkscape:path-effect
       effect="interpolate"
       id="path-effect12892"
       is_visible="true"
       lpeversion="1"
       trajectory="m 68.604123,90.031809 0.211962,7.023442"
       equidistant_spacing="true"
       steps="2" /></defs><g
     inkscape:label="Layer 1"
     inkscape:groupmode="layer"
     id="layer1"><path
       d="m 33.719876,18.685231 c 0,0 -5.383716,0.717625 -8.496639,0.876949 -3.080596,0.15767 -7.052825,-0.40081 -10.135815,-0.30024 -2.20965,0.07208 -6.5594071,0.172061 -6.5603231,0.172082 0.08256,1.47026 0.227555,3.137966 0.441833,4.399215 0.1109,0.652759 0.700281,1.149916 1.0852061,1.292944 0.916682,0.340616 2.671787,0.192918 4.195609,0.216008 1.523823,0.02309 3.449871,-0.404815 5.656502,-0.507463 2.19639,-0.102167 2.450315,-0.05176 4.324284,0.01447 1.873969,0.06623 6.33515,0.302466 8.773625,0.161747 1.267791,-0.07316 0.936843,-3.721145 0.715718,-6.325712 z"
       style="fill:#38b47b;stroke:#000000;stroke-width:0.264999;fill-opacity:1"
       id="path10" /><path
       d="m 33.477514,13.300547 c -0.239241,0.01326 -6.128212,0.33721 -8.48527,0.189135 -4.056591,-0.254846 -8.537875,0.232012 -11.283549,0.02636 -2.64792,-0.198335 -4.9951751,0.199011 -5.1526571,0.226343 -0.05251,1.098489 -0.05949,2.031409 -0.09508,2.518193 -0.03565,0.487683 -0.01456,1.736125 0.06615,3.173449 9.16e-4,-2.1e-5 4.3506731,-0.100002 6.5603231,-0.172082 3.08299,-0.10057 7.055219,0.45791 10.135815,0.30024 3.112923,-0.159324 8.496639,-0.876949 8.496639,-0.876949 0,0 0,-5.17e-4 0,-5.17e-4 -0.01218,-1.663511 -0.426241,-2.82112 -0.242362,-5.384167 z"
       style="fill:#d6e5e5;stroke:#000000;stroke-width:0.264999;fill-opacity:1"
       id="path9" /><path
       d="m 31.201167,7.6678154 c -1.415732,0.0065 -3.360205,0.117373 -4.384745,0.142111 -1.639264,0.03958 -8.038098,0.454971 -14.083895,0.185001 -2.579979,-0.115208 -3.3245731,-0.231097 -3.7863321,2.1239016 -0.233917,1.192983 -0.336248,2.495786 -0.390157,3.623551 0.157482,-0.02733 2.5047371,-0.424678 5.1526571,-0.226343 2.745674,0.205657 7.226958,-0.281201 11.283549,-0.02636 2.357058,0.148075 8.246029,-0.175878 8.48527,-0.189135 0.03475,-0.4844 0.08871,-1.013589 0.173116,-1.611788 0.531031,-3.7633826 -0.369894,-3.5786856 -0.785482,-3.8788326 -0.155845,-0.112556 -0.814542,-0.146034 -1.663981,-0.142111 z"
       style="fill:#ef4823;stroke:#000000;stroke-width:0.264999;fill-opacity:1"
       id="path8" /><g
       id="g11"
       transform="translate(-6.6609499,-1.1101583)"><path
         d="m 69.509509,19.462719 c 0,0 -5.383716,0.717625 -8.496639,0.876949 -3.080596,0.15767 -7.052825,-0.40081 -10.135815,-0.30024 -2.20965,0.07208 -6.559407,0.172061 -6.560323,0.172082 0.08256,1.47026 0.227555,3.137966 0.441833,4.399215 0.1109,0.652759 0.700281,1.149916 1.085206,1.292944 0.916682,0.340616 2.671787,0.192918 4.195609,0.216008 1.523823,0.02309 3.449871,-0.404815 5.656502,-0.507463 2.19639,-0.102167 2.450315,-0.05176 4.324284,0.01447 1.873969,0.06623 6.33515,0.302466 8.773625,0.161747 1.267791,-0.07316 0.936843,-3.721145 0.715718,-6.325712 z"
         style="fill:#febf10;fill-opacity:1;stroke:#000000;stroke-width:0.264999"
         id="path10-1" /><path
         d="m 69.267147,14.07803 c -0.239241,0.01326 -6.128212,0.33721 -8.48527,0.189135 -4.056591,-0.254846 -8.537875,0.232012 -11.283549,0.02636 -2.64792,-0.198335 -4.995175,0.199011 -5.152657,0.226343 -0.05251,1.098489 -0.05949,2.031409 -0.09508,2.518193 -0.03565,0.487683 -0.01456,1.736125 0.06615,3.173449 9.16e-4,-2.1e-5 4.350673,-0.100002 6.560323,-0.172082 3.08299,-0.10057 7.055219,0.45791 10.135815,0.30024 3.112923,-0.159324 8.496639,-0.876949 8.496639,-0.876949 0,0 0,-5.17e-4 0,-5.17e-4 -0.01218,-1.663511 -0.426241,-2.82112 -0.242362,-5.384167 z"
         style="fill:#ef4823;fill-opacity:1;stroke:#000000;stroke-width:0.264999"
         id="path9-4" /><path
         d="m 66.9908,8.445303 c -1.415732,0.0065 -3.360205,0.117373 -4.384745,0.142111 -1.639264,0.03958 -8.038098,0.454971 -14.083895,0.185001 -2.579979,-0.115208 -3.324573,-0.231097 -3.786332,2.123902 -0.233917,1.192983 -0.336248,2.495786 -0.390157,3.623551 0.157482,-0.02733 2.504737,-0.424678 5.152657,-0.226343 2.745674,0.205657 7.226958,-0.281201 11.283549,-0.02636 2.357058,0.148075 8.246029,-0.175878 8.48527,-0.189135 0.03475,-0.4844 0.08871,-1.013589 0.173116,-1.611788 C 69.971294,8.702859 69.070369,8.887556 68.654781,8.587409 68.498936,8.474853 67.840239,8.441375 66.9908,8.445298 Z"
         style="fill:#373837;fill-opacity:1;stroke:#000000;stroke-width:0.264999"
         id="path8-4" /></g><path
       id="path100"
       style="fill:#ef4823;stroke:#000000;stroke-width:0.264999"
       d="M 79.999768 8.0589396 C 79.232067 8.1393025 78.540448 8.2091684 78.10376 8.2387736 C 77.985574 8.2467836 77.821893 8.2460342 77.640222 8.2418742 C 77.639862 8.3951592 77.629088 12.144901 77.599398 14.116968 C 77.597698 14.228082 77.59758 14.420732 77.59578 14.51901 C 76.930379 14.5454 76.428339 14.561434 75.944718 14.574304 C 74.195977 14.620854 73.10064 14.595274 69.105343 14.591874 C 67.786805 14.590774 67.003929 14.804931 67.002629 14.805298 C 67.016309 15.486957 67.028202 16.168359 67.021232 16.850651 C 67.019932 16.976275 67.014227 17.105349 67.010897 17.23254 C 67.172636 17.20408 69.448971 16.836533 76.865592 16.680636 C 77.219185 16.673236 77.523092 16.663781 77.900671 16.657381 C 77.886331 16.880429 77.877755 17.06183 77.865015 17.273364 C 77.560579 22.327475 77.693714 24.163807 77.703784 24.285339 C 77.706184 24.28526 77.708619 24.285419 77.711019 24.285339 C 78.56746 24.256809 79.406632 24.166332 80.243164 24.066748 C 80.242894 24.053908 80.166537 20.32075 80.258667 17.471285 C 80.266467 17.231413 80.273142 16.985664 80.283472 16.761251 C 80.659443 16.771951 81.053239 16.774654 81.442057 16.779854 C 86.133907 16.842704 91.504999 16.536424 91.629032 16.529224 C 91.618552 15.885816 91.617218 15.266218 91.623348 14.665255 C 91.532508 14.662855 85.701432 14.508122 82.294202 14.493172 C 81.340354 14.488972 80.540826 14.493976 80.153764 14.518494 C 80.151264 14.488724 80.149546 14.456956 80.147046 14.427026 C 79.915628 11.642544 79.996168 8.2028361 79.999768 8.0589396 z " /><path
       d="m 71.50778,7.8449992 c 0.02527,0.01726 2.325434,1.5893938 4.825545,3.7186358 C 76.200016,9.7842304 76.301286,8.1684937 76.301286,8.1684937 74.909538,8.0670512 73.074096,7.9023197 71.50778,7.8449992 Z"
       style="fill:#1e4384;stroke:#000000;stroke-width:0.264999"
       id="path98" /><path
       d="m 68.359135,8.1059652 c 0.0024,0.00146 3.890199,2.3253208 9.240263,6.0110028 0.02969,-1.972069 0.04046,-5.7218086 0.04082,-5.8750938 -0.352714,-0.00807 -0.809945,-0.034825 -1.338936,-0.07338 0,0 -0.10127,1.6157367 0.03204,3.3951413 -2.500111,-2.129242 -4.800276,-3.7013753 -4.825545,-3.7186358 -1.06602,-0.039012 -2.013277,-0.031815 -2.570386,0.093534 -0.21963,0.049417 -0.410027,0.105548 -0.578259,0.1674317 z"
       style="fill:#d6e5e5;stroke:#000000;stroke-width:0.264999"
       id="path97" /><path
       d="m 67.392269,8.8087646 c 3.223613,2.0038594 5.444187,3.6237744 8.552449,5.7655394 0.483621,-0.01287 0.98566,-0.0289 1.651062,-0.05529 0.0018,-0.09828 0.0019,-0.290928 0.0036,-0.402042 -5.350064,-3.685682 -9.237828,-6.0095474 -9.240263,-6.0110028 -0.50614,0.1861817 -0.7954,0.4265255 -0.966866,0.7027994 z"
       style="fill:#ef4823;stroke:#000000;stroke-width:0.264999;fill-opacity:1"
       id="path96" /><path
       d="m 67.002629,14.805298 c 0.0013,-3.67e-4 0.784175,-0.214523 2.102714,-0.213424 3.995301,0.0034 5.090632,0.02898 6.839375,-0.01757 -3.108262,-2.141765 -5.328836,-3.76168 -8.552449,-5.7655394 -0.250839,0.4041624 -0.250703,0.8857158 -0.30179,1.3926794 0,0 4.355276,2.919831 3.888134,2.823601 -2.893142,0.124078 -3.998972,0.351654 -4.000272,0.351916 0.0048,0.476939 0.01474,0.952599 0.02429,1.428337 z"
       style="fill:#d6e5e5;stroke:#000000;stroke-width:0.264999"
       id="path94" /><path
       d="m 66.978341,13.376961 c 0.0013,-2.62e-4 1.10713,-0.227838 4.000272,-0.351916 0.467142,0.09623 -3.888134,-2.823601 -3.888134,-2.823601 -0.10757,1.067426 -0.122696,2.123607 -0.112138,3.175517 z"
       style="fill:#1e4384;stroke:#000000;stroke-width:0.264999"
       id="path95" /><path
       d="m 66.898759,23.182048 c 0.0051,-0.0033 6.434581,-4.116072 9.966833,-6.501412 -7.416629,0.155898 -9.692956,0.523449 -9.854695,0.551904 -0.01438,0.553557 -0.04206,1.117475 -0.07596,1.685685 0.0014,-2.69e-4 2.430345,-0.457606 5.333525,-0.677478 0.507518,-0.22129 -5.438713,3.388391 -5.447213,3.393591 -8.67e-4,0.537609 0.01982,1.057885 0.07752,1.54771 z"
       style="fill:#d6e5e5;stroke:#000000;stroke-width:0.264999"
       id="path91" /><path
       d="m 67.838236,24.169067 c 0.05321,-0.03854 5.693743,-4.118912 10.026779,-6.895703 0.01274,-0.211534 0.02132,-0.392935 0.03566,-0.615983 -0.37758,0.0064 -0.681486,0.01582 -1.035079,0.02325 -3.532252,2.38534 -9.961736,6.498153 -9.966833,6.501412 0.01544,0.131107 0.03186,0.261334 0.05323,0.387573 0.07091,0.418929 0.464099,0.550475 0.88625,0.599446 z"
       style="fill:#ef4823;stroke:#000000;stroke-width:0.264999;fill-opacity:1"
       id="path90" /><path
       d="m 77.703784,24.285339 c -0.01007,-0.121532 -0.143205,-1.957859 0.161231,-7.011975 -4.333036,2.776791 -9.973568,6.857159 -10.026779,6.895703 0.282356,0.03276 0.577245,0.02957 0.798918,0.04703 0.601861,0.04739 1.092873,0.05601 1.54926,0.05374 0.0128,-0.0083 3.322311,-2.161922 6.098335,-4.18424 0.02838,1.271552 3.3e-5,4.209996 0,4.213696 0.476484,0.0033 0.95093,0.0015 1.419035,-0.01395 z"
       style="fill:#d6e5e5;stroke:#000000;stroke-width:0.264999"
       id="path88" /><path
       d="m 76.284749,24.299292 c 3.3e-5,-0.0037 0.02838,-2.942144 0,-4.213696 -2.776024,2.022318 -6.085537,4.175913 -6.098335,4.18424 1.013197,-0.005 1.795875,-0.08387 2.814815,-0.05374 1.077655,0.03186 2.186567,0.07554 3.28352,0.0832 z"
       style="fill:#1e4384;stroke:#000000;stroke-width:0.264999"
       id="path89" /><path
       d="m 66.821244,21.634338 c 0.0085,-0.0052 5.954731,-3.614881 5.447213,-3.393591 -2.90318,0.219872 -5.332092,0.677209 -5.333525,0.677478 -0.05495,0.920533 -0.112221,1.841094 -0.113688,2.716113 z"
       style="fill:#1e4384;stroke:#000000;stroke-width:0.264999"
       id="path92" /><path
       d="m 90.796525,23.999052 c -0.06856,-0.04004 -3.488738,-2.037711 -6.539652,-3.956865 -1.520504,-0.956459 -2.803683,-1.787488 -3.998206,-2.570902 -0.09213,2.849468 -0.01577,6.582622 -0.0155,6.595463 0.456485,-0.05434 0.91429,-0.104663 1.370459,-0.160197 -6.8e-4,-0.07794 -0.02625,-3.02045 -0.04703,-4.146517 2.450967,1.27171 6.573777,4.060401 6.577377,4.062801 0.960327,0.07859 1.873483,0.155727 2.652551,0.176217 z"
       style="fill:#d6e5e5;stroke:#000000;stroke-width:0.264999"
       id="path85" /><path
       d="m 91.655904,23.479187 c -0.08407,-0.05446 -6.821509,-4.419216 -10.213847,-6.699333 -0.388819,-0.0052 -0.782613,-0.0079 -1.158585,-0.0186 -0.01032,0.224413 -0.01705,0.470162 -0.02481,0.710034 1.194523,0.783414 2.477702,1.614443 3.998206,2.570902 3.050914,1.919154 6.471091,3.916822 6.539652,3.956865 0.117717,0.0031 0.241091,0.0087 0.351917,0.0088 0.174346,1.84e-4 0.355414,-0.215458 0.507462,-0.52865 z"
       style="fill:#ef4823;stroke:#000000;stroke-width:0.264999;fill-opacity:1"
       id="path84" /><path
       d="m 91.629032,16.529224 c -0.124034,0.0072 -5.495121,0.313478 -10.186975,0.25063 3.392338,2.280117 10.129776,6.644877 10.213847,6.699333 0.222065,-0.457413 0.380049,-1.128727 0.346749,-1.687752 -0.0085,-0.142071 -0.0226,-0.285348 -0.03307,-0.427881 -0.01345,-0.0092 -2.881349,-1.978141 -5.831169,-3.358451 1.345951,0.07558 5.436831,0.03624 5.546949,0.03514 -0.02483,-0.366744 -0.04432,-0.732688 -0.05219,-1.097091 -0.0031,-0.145252 -0.0018,-0.272872 -0.0041,-0.413928 z"
       style="fill:#d6e5e5;stroke:#000000;stroke-width:0.264999"
       id="path82" /><path
       d="m 88.143974,23.822835 c -0.0036,-0.0024 -4.12641,-2.791091 -6.577377,-4.062801 0.02078,1.126067 0.04635,4.068582 0.04703,4.146517 0.90751,-0.11048 1.816883,-0.213137 2.746602,-0.244946 1.197302,-0.04096 2.524693,0.05819 3.783749,0.16123 z"
       style="fill:#1e4384;stroke:#000000;stroke-width:0.264999"
       id="path86" /><path
       d="m 91.68536,18.040243 c -0.110118,0.0011 -4.200998,0.04044 -5.546949,-0.03514 2.94982,1.38031 5.817719,3.349214 5.831169,3.358451 -0.08098,-1.102263 -0.209228,-2.215873 -0.28422,-3.323311 z"
       style="fill:#1e4384;stroke:#000000;stroke-width:0.264999"
       id="path83" /><path
       d="m 91.670374,8.2330892 c -0.01759,0.012817 -0.240736,0.1752727 -0.657841,0.4697388 -1.252575,0.884272 -4.256332,2.96286 -8.718331,5.790344 3.407234,0.01495 9.238302,0.169657 9.329146,0.172083 0.0038,-0.372133 0.0067,-0.744253 0.01654,-1.122929 -0.143293,-0.003 -4.165058,-0.08584 -5.886462,-0.01964 1.888267,-1.548678 6.078116,-4.3297611 6.079216,-4.3304852 0.01613,-0.3750186 -0.0041,-0.6934682 -0.162264,-0.9591146 z"
       style="fill:#d6e5e5;stroke:#000000;stroke-width:0.264999"
       id="path79" /><path
       d="m 90.621342,7.5742147 c -0.104336,0.067339 -6.937005,4.4786433 -10.474296,6.8528113 0.0025,0.02993 0.0042,0.0617 0.0067,0.09147 0.387063,-0.02452 1.186589,-0.02951 2.140438,-0.02532 C 86.756201,11.665688 89.759958,9.5871 91.012533,8.702828 91.429638,8.4083619 91.652784,8.2459062 91.670374,8.2330892 91.566394,8.0584189 91.404309,7.9060428 91.148442,7.7773031 90.98608,7.6956117 90.808205,7.6302213 90.621342,7.5742147 Z"
       style="fill:#ef4823;stroke:#000000;stroke-width:0.264999;fill-opacity:1"
       id="path78" /><path
       d="m 88.343445,7.3401204 c -0.0023,0.00114 -1.447175,0.711143 -7.014042,4.6808516 0.240611,-2.4431278 0.09043,-4.1113773 0.09043,-4.1113773 -0.510309,0.053651 -0.967181,0.1019373 -1.420068,0.1493449 -0.0036,0.1438966 -0.08414,3.5836014 0.147278,6.3680864 C 83.684337,12.052858 90.517006,7.6415538 90.621342,7.5742147 89.957476,7.3752408 89.158249,7.3238784 88.343445,7.3401204 Z"
       style="fill:#d6e5e5;stroke:#000000;stroke-width:0.264999"
       id="path76" /><path
       d="m 88.343445,7.3401204 c -1.054941,0.021029 -2.133062,0.1510639 -2.967261,0.206189 -1.191414,0.078731 -2.633297,0.2241881 -3.956348,0.3632853 0,0 0.150178,1.6682495 -0.09043,4.1113773 5.566867,-3.9697086 7.01171,-4.679707 7.014042,-4.6808516 z"
       style="fill:#1e4384;stroke:#000000;stroke-width:0.264999"
       id="path77" /><path
       d="m 91.832638,9.1922038 c -0.0011,7.241e-4 -4.190949,2.7818072 -6.079216,4.3304852 1.721404,-0.0662 5.743169,0.01668 5.886462,0.01964 0.02851,-1.101187 0.08127,-2.265451 0.15503,-3.710368 0.01173,-0.2297249 0.02921,-0.4417294 0.03772,-0.6397542 z"
       style="fill:#1e4384;stroke:#000000;stroke-width:0.264999"
       id="path80" /></g></svg>
