<?xml version="1.0" encoding="UTF-8" standalone="no"?>
<!-- Created with Inkscape (http://www.inkscape.org/) -->

<svg
   width="210mm"
   height="297mm"
   viewBox="0 0 210 297"
   version="1.1"
   id="svg1"
   xml:space="preserve"
   inkscape:version="1.3.2 (091e20e, 2023-11-25, custom)"
   sodipodi:docname="gitlab.svg"
   xmlns:inkscape="http://www.inkscape.org/namespaces/inkscape"
   xmlns:sodipodi="http://sodipodi.sourceforge.net/DTD/sodipodi-0.dtd"
   xmlns="http://www.w3.org/2000/svg"
   xmlns:svg="http://www.w3.org/2000/svg"><sodipodi:namedview
     id="namedview1"
     pagecolor="#ffffff"
     bordercolor="#000000"
     borderopacity="0.25"
     inkscape:showpageshadow="2"
     inkscape:pageopacity="0.0"
     inkscape:pagecheckerboard="0"
     inkscape:deskcolor="#d1d1d1"
     inkscape:document-units="mm"
     inkscape:zoom="2.0257997"
     inkscape:cx="457.59708"
     inkscape:cy="439.5795"
     inkscape:window-width="2560"
     inkscape:window-height="1351"
     inkscape:window-x="-9"
     inkscape:window-y="-9"
     inkscape:window-maximized="1"
     inkscape:current-layer="layer1" /><defs
     id="defs1" /><g
     inkscape:label="Layer 1"
     inkscape:groupmode="layer"
     id="layer1"><g
       style="fill:none"
       id="g1"
       transform="matrix(0.7510285,0,0,0.7510285,79.14668,102.45992)"><path
         d="M 6.0652661,0.59308892 C 5.8247663,0.58027393 5.586373,0.64375683 5.3833832,0.7733647 5.1803534,0.90126057 5.0232779,1.0897861 4.934758,1.3128159 L 0.57923997,12.679135 0.53451507,12.79198 c -0.62520098,1.636998 -0.70186354,3.432819 -0.21880802,5.117217 0.48305552,1.684399 1.49975735,3.166609 2.89748605,4.223408 l 0.016514,0.0117 0.038532,0.02959 6.6351122,4.966529 3.2800557,2.484641 1.994043,1.510326 c 0.2342,0.177 0.519706,0.272478 0.813305,0.272478 0.2935,0 0.579006,-0.09548 0.813306,-0.272478 l 1.994042,-1.510326 3.282121,-2.484641 6.672956,-4.996116 0.01858,-0.01376 c 1.402499,-1.055799 2.423196,-2.539062 2.908495,-4.22616 0.4854,-1.686998 0.40898,-3.485776 -0.21812,-5.125475 L 31.41672,12.663998 27.066707,1.3128159 c -0.0884,-0.2226198 -0.245149,-0.41102933 -0.447249,-0.5394512 -0.2037,-0.12855187 -0.442071,-0.19101054 -0.682571,-0.17821156 -0.2405,0.012799 -0.470965,0.0996415 -0.659864,0.24908334 C 25.089923,0.99426833 24.9552,1.1999051 24.8917,1.4311649 L 21.950177,10.432569 H 10.050599 L 7.1097647,1.4311649 C 7.0462548,1.1999051 6.9115222,0.99426833 6.7244424,0.84423648 6.5363726,0.69379063 6.3057558,0.6059039 6.0652661,0.59308892 Z"
         style="fill:#e24329"
         id="path7" /><path
         d="m 31.462,12.7787 -0.0448,-0.1146 c -2.1217,0.4372 -4.121,1.3364 -5.8558,2.6337 l -9.5531,7.24 c 3.2569,2.4627 6.0918,4.6029 6.0918,4.6029 l 6.6733,-4.9967 0.0183,-0.0133 c 1.399,-1.0584 2.4159,-2.543 2.8976,-4.2298 0.4817,-1.6869 0.4019,-3.4846 -0.2273,-5.1222 z"
         fill="#fc6d26"
         id="path2" /><path
         d="m 9.9082,27.1407 3.2752,2.4843 1.994,1.5104 c 0.2343,0.177 0.5198,0.2728 0.8134,0.2728 0.2936,0 0.5792,-0.0958 0.8134,-0.2728 l 1.994,-1.5104 3.2819,-2.4843 c 0,0 -2.8349,-2.1402 -6.0918,-4.6029 z"
         fill="#fca326"
         id="path3" /><path
         d="M 6.43513,15.3045 C 4.70076,14.0067 2.70123,13.108 0.579333,12.6724 l -0.044866,0.113 c -0.6268073,1.6378 -0.704503,3.4349 -0.221388,5.1207 0.483115,1.6858 1.500881,3.169 2.900031,4.2263 l 0.01662,0.0116 0.03822,0.0299 6.63512,4.9668 6.10503,-4.6029 z"
         fill="#fc6d26"
         id="path4" /></g><path
       d="m 92.257418,96.004993 c -1.444064,0.01567 -2.885799,0.150099 -4.292245,0.373104 -4.038406,0.64063 -8.296009,2.100276 -11.320756,4.954733 -1.589418,1.50021 -2.821691,3.31643 -3.462321,5.41673 -0.648749,2.10839 -0.843485,4.30623 -0.981335,6.49572 -0.0081,0.0892 -0.04063,0.16231 -0.08113,0.21911 0.008,0.0244 0.0078,0.0403 0.0078,0.0646 0,4.28979 -0.08078,8.78256 2.441195,12.48037 2.051638,3.00854 5.230363,4.98705 8.693009,5.97638 7.136133,2.04352 15.740022,0.77834 21.481376,-4.11964 6.00894,-5.13316 6.56052,-13.97226 4.11965,-21.03541 -1.3137,-3.7708 -3.78696,-7.063251 -7.40369,-8.887831 -2.837726,-1.432802 -6.024562,-1.97234 -9.201502,-1.937866 z m -8.55555,6.900357 c 0.180614,0.01 0.353814,0.0756 0.49506,0.18862 0.140502,0.11267 0.24169,0.26711 0.289388,0.4408 l 2.208651,6.76031 h 8.936922 l 2.209167,-6.76031 c 0.04769,-0.17369 0.148871,-0.32813 0.289388,-0.4408 0.141869,-0.11224 0.314955,-0.17746 0.495577,-0.18707 0.180622,-0.01 0.359646,0.0373 0.512631,0.13384 0.151782,0.0965 0.269505,0.23795 0.335896,0.40514 l 3.266982,8.52506 0.0341,0.0863 c 0.47097,1.23146 0.52836,2.5824 0.16381,3.84938 -0.36447,1.26706 -1.13104,2.38103 -2.18436,3.17397 l -0.0139,0.0103 -5.011583,3.75223 -2.464966,1.86603 -1.497583,1.1343 c -0.175965,0.13293 -0.390388,0.20464 -0.610815,0.20464 -0.220502,0 -0.434925,-0.0717 -0.610815,-0.20464 l -1.497583,-1.1343 -2.463416,-1.86603 -4.983158,-3.73001 -0.02894,-0.0222 -0.0124,-0.009 c -1.049734,-0.79369 -1.813307,-1.90687 -2.176095,-3.1719 -0.362788,-1.26503 -0.305213,-2.61375 0.164331,-3.84318 l 0.03359,-0.0847 3.271118,-8.53643 c 0.06648,-0.1675 0.184449,-0.30909 0.33693,-0.40514 0.152451,-0.0973 0.331492,-0.14502 0.512114,-0.13539 z"
       style="stroke-width:0.0810926;fill:#ffe6d5"
       id="path6" /><path
       d="m 92.029008,95.134245 c -0.561122,0.0095 -1.119291,0.03542 -1.671733,0.07596 -4.192485,0.308152 -8.48235,1.451824 -12.050427,3.730522 -1.751588,1.119079 -3.316784,2.586479 -4.460193,4.329969 -1.208269,1.8408 -1.824494,3.9573 -2.156974,6.11435 -0.18651,1.2245 -0.275994,2.45726 -0.357084,3.69797 -0.008,0.073 0.0082,0.14597 0.03256,0.21084 -0.073,0.073 -0.12144,0.17877 -0.12144,0.30851 0,2.44089 -0.04863,4.89772 0.373104,7.31428 0.38924,2.19761 1.232209,4.28982 2.562118,6.09007 2.367907,3.20315 5.960509,5.13302 9.763745,6.0818 7.209113,1.80026 15.748016,0.30021 21.44882,-4.63021 6.00894,-5.19803 6.75527,-13.85884 4.57388,-21.06797 -1.15152,-3.80323 -3.31683,-7.16044 -6.64972,-9.382369 -3.28527,-2.199633 -7.358802,-2.940247 -11.286652,-2.873726 z m 0.22841,0.870748 c 3.17694,-0.03447 6.363776,0.505064 9.201502,1.937866 3.61673,1.82458 6.08999,5.117031 7.40369,8.887831 2.44087,7.06315 1.88929,15.90225 -4.11965,21.03541 -5.741354,4.89798 -14.345243,6.16316 -21.481376,4.11964 -3.462646,-0.98933 -6.641371,-2.96784 -8.693009,-5.97638 -2.521977,-3.69781 -2.441195,-8.19058 -2.441195,-12.48037 0,-0.0243 2.49e-4,-0.0402 -0.0078,-0.0646 0.0405,-0.0568 0.07303,-0.12991 0.08113,-0.21911 0.13785,-2.18949 0.332586,-4.38733 0.981335,-6.49572 0.64063,-2.1003 1.872903,-3.91652 3.462321,-5.41673 3.024747,-2.854457 7.28235,-4.314103 11.320756,-4.954733 1.406446,-0.223005 2.848181,-0.357434 4.292245,-0.373104 z"
       style="stroke-width:0.0810926"
       id="path5" /></g></svg>
