<?xml version="1.0" encoding="UTF-8" standalone="no"?>
<!-- Created with Inkscape (http://www.inkscape.org/) -->

<svg
   width="165.78406mm"
   height="51.87706mm"
   viewBox="0 0 165.78406 51.87706"
   version="1.1"
   id="svg1"
   inkscape:version="1.3.2 (091e20e, 2023-11-25, custom)"
   sodipodi:docname="inkspace_drawing3.svg"
   xml:space="preserve"
   xmlns:inkscape="http://www.inkscape.org/namespaces/inkscape"
   xmlns:sodipodi="http://sodipodi.sourceforge.net/DTD/sodipodi-0.dtd"
   xmlns="http://www.w3.org/2000/svg"
   xmlns:svg="http://www.w3.org/2000/svg"><sodipodi:namedview
     id="namedview1"
     pagecolor="#ffffff"
     bordercolor="#000000"
     borderopacity="0.25"
     inkscape:showpageshadow="2"
     inkscape:pageopacity="0.0"
     inkscape:pagecheckerboard="0"
     inkscape:deskcolor="#d1d1d1"
     inkscape:document-units="mm"
     inkscape:zoom="4"
     inkscape:cx="306.25"
     inkscape:cy="88.375"
     inkscape:window-width="2560"
     inkscape:window-height="1361"
     inkscape:window-x="-9"
     inkscape:window-y="-9"
     inkscape:window-maximized="1"
     inkscape:current-layer="layer1"
     showgrid="false" /><defs
     id="defs1"><inkscape:path-effect
       effect="fillet_chamfer"
       id="path-effect9"
       is_visible="true"
       lpeversion="1"
       nodesatellites_param="F,0,0,1,0,0,0,1 @ F,0,0,1,0,0,0,1 @ F,0,0,1,0,0,0,1 @ F,0,0,1,0,0,0,1 @ F,0,0,1,0,0,0,1 @ F,0,0,1,0,0,0,1 @ F,0,0,1,0,0,0,1 @ F,0,0,1,0,0,0,1 @ F,0,0,1,0,0,0,1 @ F,0,0,1,0,0,0,1 @ F,0,0,1,0,0,0,1 @ F,0,0,1,0,0,0,1 @ F,0,0,1,0,0,0,1 @ F,0,0,1,0,0,0,1 @ F,0,0,1,0,0,0,1 @ F,0,0,1,0,0,0,1 @ F,0,0,1,0,0,0,1 @ F,0,0,1,0,0,0,1 @ F,0,0,1,0,0,0,1 @ F,0,0,1,0,0,0,1 @ F,0,0,1,0,0,0,1 @ F,0,0,1,0,0,0,1 @ F,0,0,1,0,0,0,1 @ F,0,0,1,0,0,0,1 @ F,0,0,1,0,0,0,1 @ F,0,0,1,0,0,0,1 @ F,0,0,1,0,0,0,1 @ F,0,0,1,0,0,0,1 @ F,0,0,1,0,0,0,1 @ F,0,0,1,0,0,0,1 @ F,0,0,1,0,0,0,1 @ F,0,0,1,0,0,0,1 @ F,0,0,1,0,0,0,1 @ F,0,0,1,0,0,0,1 @ F,0,0,1,0,0,0,1 @ F,0,0,1,0,0,0,1 @ F,0,0,1,0,0,0,1 @ F,0,0,1,0,0,0,1 @ F,0,0,1,0,0,0,1 @ F,0,0,1,0,0,0,1 @ F,0,0,1,0,0,0,1 @ F,0,0,1,0,0,0,1 @ F,0,0,1,0,0,0,1 @ F,0,0,1,0,0,0,1 @ F,0,0,1,0,0,0,1 @ F,0,0,1,0,0,0,1 @ F,0,0,1,0,0,0,1 @ F,0,0,1,0,0,0,1 @ F,0,0,1,0,0,0,1"
       radius="0"
       unit="px"
       method="auto"
       mode="F"
       chamfer_steps="1"
       flexible="false"
       use_knot_distance="true"
       apply_no_radius="true"
       apply_with_radius="true"
       only_selected="false"
       hide_knots="false" /><inkscape:path-effect
       effect="fillet_chamfer"
       id="path-effect8"
       is_visible="true"
       lpeversion="1"
       nodesatellites_param="F,0,0,1,0,0,0,1 @ F,0,0,1,0,0,0,1 @ F,0,0,1,0,0,0,1 @ F,0,0,1,0,0,0,1"
       radius="0"
       unit="px"
       method="auto"
       mode="F"
       chamfer_steps="1"
       flexible="false"
       use_knot_distance="true"
       apply_no_radius="true"
       apply_with_radius="true"
       only_selected="false"
       hide_knots="false" /><inkscape:path-effect
       effect="fillet_chamfer"
       id="path-effect4"
       nodesatellites_param="F,0,0,1,0,0,0,1 @ F,0,0,1,0,0,0,1 @ F,0,0,1,0,0,0,1 @ F,0,0,1,0,0,0,1 @ F,0,0,1,0,0,0,1 @ F,0,0,1,0,0,0,1 @ F,0,0,1,0,0,0,1 @ F,0,0,1,0,0,0,1 @ F,0,0,1,0,0,0,1 @ F,0,0,1,0,0,0,1 @ F,0,0,1,0,0,0,1 @ F,0,0,1,0,0,0,1 @ F,0,0,1,0,0,0,1 @ F,0,0,1,0,0,0,1 @ F,0,0,1,0,0,0,1 @ F,0,0,1,0,0,0,1 @ F,0,0,1,0,0,0,1 @ F,0,0,1,0,0,0,1 @ F,0,0,1,0,0,0,1 @ F,0,0,1,0,0,0,1 @ F,0,0,1,0,0,0,1 @ F,0,0,1,0,0,0,1 @ F,0,0,1,0,0,0,1 @ F,0,0,1,0,0,0,1 @ F,0,0,1,0,0,0,1 @ F,0,0,1,0,0,0,1 @ F,0,0,1,0,0,0,1 @ F,0,0,1,0,0,0,1 @ F,0,0,1,0,0,0,1 @ F,0,0,1,0,0,0,1 @ F,0,0,1,0,0,0,1 @ F,0,0,1,0,0,0,1 @ F,0,0,1,0,0,0,1 @ F,0,0,1,0,0,0,1 @ F,0,0,1,0,0,0,1 @ F,0,0,1,0,0,0,1 @ F,0,0,1,0,0,0,1 @ F,0,0,1,0,0,0,1 @ F,0,0,1,0,0,0,1 @ F,0,0,1,0,0,0,1 @ F,0,0,1,0,0,0,1 @ F,0,0,1,0,0,0,1 @ F,0,0,1,0,0,0,1 @ F,0,0,1,0,0,0,1 @ F,0,0,1,0,0,0,1 @ F,0,0,1,0,0,0,1 @ F,0,0,1,0,0,0,1 @ F,0,0,1,0,0,0,1 @ F,0,0,1,0,0,0,1 @ F,0,0,1,0,0,0,1 @ F,0,0,1,0,0,0,1 @ F,0,0,1,0,0,0,1 @ F,0,0,1,0,0,0,1 @ F,0,0,1,0,0,0,1 @ F,0,0,1,0,0,0,1 @ F,0,0,1,0,0,0,1 @ F,0,0,1,0,0,0,1 @ F,0,0,1,0,0,0,1 @ F,0,0,1,0,0,0,1 @ F,0,0,1,0,0,0,1 @ F,0,0,1,0,0,0,1 @ F,0,0,1,0,0,0,1 @ F,0,0,1,0,0,0,1 @ F,0,0,1,0,0,0,1 @ F,0,0,1,0,0,0,1 @ F,0,0,1,0,0,0,1 @ F,0,0,1,0,0,0,1 @ F,0,0,1,0,0,0,1 @ F,0,0,1,0,0,0,1 @ F,0,0,1,0,0,0,1 @ F,0,0,1,0,0,0,1 @ F,0,0,1,0,0,0,1 @ F,0,0,1,0,0,0,1 @ F,0,0,1,0,0.28615262,0,1 @ F,0,0,1,0,0.13331381,0,1 @ F,0,0,1,0,0,0,1 @ F,0,0,1,0,0,0,1 @ F,0,0,1,0,0,0,1 @ F,0,0,1,0,0,0,1 @ F,0,0,1,0,0,0,1 @ F,0,0,1,0,0,0,1 @ F,0,0,1,0,0,0,1 @ F,0,0,1,0,0,0,1 @ F,0,0,1,0,0,0,1 @ F,0,0,1,0,0,0,1 @ F,0,0,1,0,0,0,1 @ F,0,0,1,0,0,0,1 @ F,0,0,1,0,0,0,1 | F,0,0,1,0,0,0,1 @ F,0,0,1,0,0,0,1 @ F,0,0,1,0,0,0,1 | F,0,0,1,0,0,0,1 @ F,0,0,1,0,0,0,1 @ F,0,0,1,0,0,0,1 @ F,0,0,1,0,0,0,1 @ F,0,0,1,0,0,0,1 @ F,0,0,1,0,0,0,1"
       is_visible="true"
       lpeversion="1"
       radius="0"
       unit="px"
       method="auto"
       mode="F"
       chamfer_steps="1"
       flexible="false"
       use_knot_distance="true"
       apply_no_radius="true"
       apply_with_radius="true"
       only_selected="false"
       hide_knots="false" /><inkscape:path-effect
       effect="fillet_chamfer"
       id="path-effect2"
       nodesatellites_param="F,0,0,1,0,0,0,1 @ F,0,0,1,0,0,0,1 @ F,0,0,1,0,0,0,1 @ F,0,0,1,0,0,0,1 @ F,0,0,1,0,0,0,1 @ F,0,0,1,0,0,0,1 @ F,0,0,1,0,0,0,1 @ F,0,0,1,0,0,0,1 @ F,0,0,1,0,0,0,1 @ F,0,0,1,0,0,0,1 @ F,0,0,1,0,0,0,1 @ F,0,0,1,0,0,0,1 @ F,0,0,1,0,0,0,1 @ F,0,0,1,0,0,0,1 @ F,0,0,1,0,0,0,1 @ F,0,0,1,0,0,0,1 @ F,0,0,1,0,0,0,1 @ F,0,0,1,0,0,0,1 @ F,0,0,1,0,0,0,1 @ F,0,0,1,0,0,0,1 @ F,0,0,1,0,0,0,1 @ F,0,0,1,0,0,0,1 @ F,0,0,1,0,0,0,1 @ F,0,0,1,0,0,0,1 @ F,0,0,1,0,0,0,1 @ F,0,0,1,0,0,0,1 @ F,0,0,1,0,0,0,1 @ F,0,0,1,0,0,0,1 @ F,0,0,1,0,0,0,1 @ F,0,0,1,0,0,0,1 @ F,0,0,1,0,0,0,1 @ F,0,0,1,0,0,0,1 @ F,0,0,1,0,0,0,1 @ F,0,0,1,0,0,0,1 @ F,0,0,1,0,0,0,1 @ F,0,0,1,0,0,0,1 @ F,0,0,1,0,0,0,1 @ F,0,0,1,0,0,0,1 @ F,0,0,1,0,0,0,1 @ F,0,0,1,0,0,0,1 @ F,0,0,1,0,0,0,1 @ F,0,0,1,0,0,0,1 @ F,0,0,1,0,0,0,1 @ F,0,0,1,0,0,0,1 @ F,0,0,1,0,0,0,1 @ F,0,0,1,0,0,0,1 @ F,0,0,1,0,0,0,1 @ F,0,0,1,0,0,0,1 @ F,0,0,1,0,0,0,1 @ F,0,0,1,0,0,0,1 @ F,0,0,1,0,0,0,1 @ F,0,0,1,0,0,0,1 @ F,0,0,1,0,0,0,1 @ F,0,0,1,0,0,0,1 @ F,0,0,1,0,0,0,1 @ F,0,0,1,0,0,0,1 @ F,0,0,1,0,0,0,1 @ F,0,0,1,0,0,0,1 @ F,0,0,1,0,0,0,1 @ F,0,0,1,0,0,0,1 @ F,0,0,1,0,0,0,1 @ F,0,0,1,0,0,0,1 @ F,0,0,1,0,0,0,1 @ F,0,0,1,0,0,0,1 @ F,0,0,1,0,0,0,1 @ F,0,0,1,0,0,0,1 | F,0,0,1,0,0,0,1 @ F,0,0,1,0,0,0,1 @ F,0,0,1,0,0,0,1 | F,0,0,1,0,0,0,1 @ F,0,0,1,0,0,0,1 @ F,0,0,1,0,0,0,1 @ F,0,0,1,0,0,0,1 @ F,0,0,1,0,0,0,1 @ F,0,0,1,0,0,0,1 | F,0,0,1,0,0,0,1 @ F,0,0,1,0,0,0,1 @ F,0,0,1,0,0,0,1 @ F,0,0,1,0,0,0,1 @ F,0,0,1,0,0,0,1 @ F,0,0,1,0,0,0,1 @ F,0,0,1,0,0,0,1 @ F,0,0,1,0,0,0,1 @ F,0,0,1,0,0,0,1 @ F,0,0,1,0,0,0,1 @ F,0,0,1,0,0,0,1 @ F,0,0,1,0,0,0,1 @ F,0,0,1,0,0,0,1 @ F,0,0,1,0,0,0,1 @ F,0,0,1,0,0,0,1 | F,0,0,1,0,0,0,1 @ F,0,0,1,0,0,0,1 @ F,0,0,1,0,0,0,1"
       is_visible="true"
       lpeversion="1"
       radius="0"
       unit="px"
       method="auto"
       mode="F"
       chamfer_steps="1"
       flexible="false"
       use_knot_distance="true"
       apply_no_radius="true"
       apply_with_radius="true"
       only_selected="false"
       hide_knots="false" /><rect
       x="271.05206"
       y="437.21326"
       width="89.005936"
       height="32.274105"
       id="rect4" /></defs><g
     inkscape:label="Layer 1"
     inkscape:groupmode="layer"
     id="layer1"
     transform="translate(-6.3801343,-131.38249)"><path
       d="m 74.624031,131.39438 c -5.595151,0.28917 -13.287561,5.84731 -13.287561,11.24582 0,1.90365 1.691583,3.71179 3.134175,4.85397 2.815387,2.07615 6.449501,3.38482 8.787061,5.95106 0.895402,0.71348 1.510046,1.71066 2.057239,2.71042 0.348133,0.66554 0.44754,1.52315 0.248563,2.28462 -1.193869,4.47356 -8.574492,6.42728 -12.899987,5.9769 0,0 -21.878157,-0.15516 -22.342823,-0.59428 -0.464662,-0.43913 -0.448109,-0.62839 -0.674894,-0.62839 -0.226784,0 -0.37444,0.2712 -0.5302,0.56224 -0.33524,0.6264 -0.79375,0.69805 -0.79375,0.12402 0,-0.60202 -0.815415,-0.81406 -1.185457,-0.30799 -0.284434,0.38898 -0.574347,0.31633 -2.938322,-0.73639 -3.995047,-1.77903 -4.803446,-1.82082 -3.661276,-0.19017 0.845808,1.20756 0.199691,1.03069 -1.331701,-0.36431 -1.964354,-1.78943 -3.031673,-1.99868 -2.392619,-0.46923 0.734457,1.75781 0.21155,1.53955 -1.293461,-0.54001 -0.500082,-0.69094 -0.500098,-0.69078 -4.630209,-0.68678 -4.830196,0.005 -5.074086,0.0831 -3.958414,1.27692 1.119728,1.1981 0.911894,1.21287 -1.338937,0.0956 -4.800218,-2.38273 -11.9717404,1.90043 -8.1116492,4.84467 3.1440192,2.39803 6.0502682,2.59898 9.4738402,0.65422 1.005088,-0.57095 1.050489,-0.20739 0.09612,0.76998 -1.304851,1.33628 -0.767358,1.48817 4.312915,1.21853 3.598152,-0.19098 3.597984,-0.19077 4.872054,-1.37924 1.455752,-1.35799 1.91908,-1.33205 0.866097,0.0486 -1.128968,1.48015 0.05255,1.24669 2.022616,-0.39946 1.738306,-1.4525 2.176714,-1.54089 1.260905,-0.25476 -0.97662,1.37154 0.224026,1.23298 4.459676,-0.51367 1.686246,-0.69535 1.988263,-0.74955 2.319238,-0.41857 0.437213,0.43719 1.158586,0.25858 1.158586,-0.28681 0,-0.55043 0.4103,-0.44543 0.886767,0.22686 0.421911,0.59531 0.456769,0.64885 0.852145,-0.14883 0.395372,-0.79768 22.618774,-0.59118 22.618774,-0.59118 4.477017,0 10.197622,-1.42738 12.933578,-5.14025 v -0.007 c 0.497444,-0.76146 1.345566,-3.08788 0.927592,-4.29999 -0.558293,-0.44039 1.819408,1.76771 5.555216,-1.58492 -2.46149,1.55844 -5.068941,6.36364 -5.068941,7.60884 0,4.48744 3.929223,3.85185 9.911023,-1.77922 0.636338,-0.59903 1.106279,-0.97028 1.044381,-0.82476 -0.06194,0.14552 -0.317238,0.71328 -0.567408,1.26194 -2.389044,5.2394 1.377581,5.59008 6.634221,0.61753 1.414876,-1.33841 1.405534,-1.21754 -0.132292,1.71308 -1.074448,2.04755 -1.620702,2.72879 -3.764628,4.69325 -7.684224,7.04094 -11.399169,12.21564 -10.378178,14.45648 1.385827,3.04156 6.76766,-2.6363 12.775448,-13.47824 2.327104,-4.19961 2.368193,-4.67087 4.446757,-6.01152 1.272781,-0.82094 3.157211,-2.568 4.074691,-3.32797 l 2.06085,-1.70739 -1.46554,2.83291 c -2.873688,5.55428 -1.672691,5.88416 3.7052,1.01751 l 2.98483,-2.70113 -1.16737,2.46393 c -2.23161,4.71097 -0.85756,4.87484 3.87573,0.4625 1.30088,-1.21265 2.36523,-2.14794 2.36523,-2.07894 0,0.069 -0.23563,0.64413 -0.52348,1.27848 -0.68841,1.51671 -0.69062,2.98223 -0.006,3.66696 1.01925,1.01925 2.3077,0.42317 7.0435,-3.25924 0.61887,-0.48121 0.61841,-0.4814 0.22685,0.62839 -0.97763,2.77093 3.66576,2.03387 4.99246,2.06447 2.68804,0.062 20.483,-0.23853 29.98422,1.28106 0,0.10307 0.14883,0.42691 0.33073,0.49041 0.49253,0.1718 0.99219,-0.0784 0.99219,-0.49661 0,-0.54323 0.61724,-0.44771 0.9927,0.15348 0.35387,0.56665 1.12396,0.46138 1.12396,-0.15348 0,-0.20272 0.25129,-0.36845 0.55811,-0.36845 0.65776,0 0.58964,0.46848 -0.44545,3.06338 -0.35285,0.88454 -0.64182,1.68823 -0.64182,1.78593 0,0.30054 0.24144,0.21766 6.48229,-2.22208 0.7276,-0.28444 2.81121,-1.09855 4.63021,-1.80919 2.2207,-0.8676 2.29315,-0.97608 2.99361,-1.48622 -0.51498,-0.4688 -2.5021,-1.55414 -6.69778,-3.16828 -0.94589,-0.3639 -2.87259,-1.23665 -4.36562,-1.69964 -1.69615,-0.52598 -2.39991,-0.84042 -2.83601,-0.80202 -0.0473,0.14952 0.0949,0.77749 0.58188,1.98386 0.41194,1.0205 0.7882,2.04908 0.7922,2.30374 0.0101,0.65027 -0.95557,0.59355 -1.1281,-0.0661 -0.0761,-0.29104 -0.33944,-0.52917 -0.58497,-0.52917 -0.24553,0 -0.50836,0.23813 -0.58446,0.52917 -0.0761,0.29104 -0.28954,0.52917 -0.47388,0.52917 -0.18434,0 -0.39725,-0.23813 -0.47335,-0.52917 -0.0761,-0.29104 -0.33946,-0.52917 -0.58498,-0.52917 -0.24553,0 -0.4061,0.16148 -0.58446,0.52917 -1.25413,0.83537 -29.47491,0.22712 -30.44104,0.46457 -1.17283,-0.0685 -6.80637,0.85753 -0.78445,-5.17023 2.77038,-2.77304 0.89996,-3.48954 -1.78283,-0.33072 -4.52029,5.32238 -9.59629,8.17367 -8.52145,4.78678 2.06104,-6.49432 9.70616,-11.90764 11.66027,-8.25634 0.30738,0.57435 1.03922,0.66284 1.03922,0.12557 0,-1.27259 -2.11676,-2.15117 -4.21783,-1.75079 -2.54196,0.48439 -4.23431,1.59875 -8.18917,5.39502 -5.97364,5.73409 -7.35087,6.64416 -5.77587,3.81475 1.25648,-2.25718 2.42201,-4.39942 3.87211,-7.11688 5.22641,-9.79408 4.92509,-9.40336 7.54838,-9.7994 2.63516,-0.39783 12.9832,-0.50012 15.61197,-0.15451 1.874,0.24638 1.85479,-0.0876 -0.14521,-0.48008 -1.94197,-0.38115 -10.84594,-0.78909 -14.39292,-0.43976 -1.45521,0.14332 -2.68065,0.22822 -2.72335,0.18862 -0.0427,-0.0396 0.82825,-1.72406 1.9358,-3.74293 2.06042,-3.75575 2.65327,-5.29917 1.95182,-5.08134 -0.47288,0.14685 -2.27335,2.84706 -3.93982,5.90868 -1.8214,3.34626 -1.75138,3.27896 -3.70675,3.58635 -0.94588,0.14869 -1.92815,0.33321 -2.18281,0.41031 -0.68218,0.2064 -0.58417,-0.14167 0.68885,-2.44326 3.19955,-5.78476 3.97761,-7.50652 3.39204,-7.50652 -0.58033,0 -1.58797,1.50379 -4.43125,6.61251 -2.13633,3.8385 -2.13633,3.83851 -3.83646,4.4018 -2.93957,0.97395 -5.00745,2.40462 -5.00745,3.46439 0,0.51419 0.52155,0.40636 1.44591,-0.29869 0.74251,-0.56634 2.75263,-1.63433 3.91397,-2.07998 0.55771,-0.21401 0.11591,0.0653 -2.27841,5.09788 -1.74371,3.66501 -7.634878,9.0705 -9.699153,10.00869 -0.356097,0.16185 1.921928,-3.92634 3.872113,-6.84816 1.79228,-2.6852 1.88905,-2.89594 1.33325,-2.89594 -0.50735,0 -2.234429,1.76886 -3.583757,3.67057 -2.333525,3.28884 -8.199001,7.97109 -9.985437,7.97109 -1.195078,0 1.413529,-5.00287 4.583183,-8.79016 2.191546,-2.6186 2.176095,-2.58692 1.235067,-2.58692 -0.738169,0 -1.300595,0.52037 -4.714958,4.35839 -4.77209,5.36419 -9.44151,8.15647 -10.623124,6.3531 -1.785009,-2.72427 4.23158,-10.65977 7.882723,-10.39678 1.971816,0.14203 1.617779,2.56858 -0.526066,3.60546 -1.026018,0.49625 -1.153908,0.93031 -0.313159,1.06144 1.924256,0.30012 3.678309,-3.17526 2.399336,-4.75372 -1.216922,-1.50188 -4.281616,0.0419 -4.81986,0.45269 -0.538245,0.41078 -4.307371,2.4564 -6.690031,1.44435 -0.37146,-0.68462 -1.549486,-2.55936 -2.444812,-3.22564 -2.384221,-1.99126 -5.211676,-3.3136 -7.820712,-5.21363 -1.1897,-0.80548 -2.097068,-1.32358 -2.843237,-2.43241 -0.497446,-0.7135 -0.887554,-1.59502 -0.788066,-2.40399 0.596937,-4.71162 8.35716,-9.70845 13.281877,-9.70845 0.994891,0 2.118815,0.26182 2.850472,1.00717 1.284991,1.30944 0.457929,7.66483 -1.64176,8.23723 -1.472843,0.4015 -1.377732,1.38001 -0.689881,1.26555 2.114623,-0.35189 3.142332,-2.28462 3.638021,-4.56354 0.495693,-2.27895 0.427763,-3.79868 -0.259932,-5.05138 -0.707698,-1.28911 -2.36009,-1.72341 -3.847311,-1.84691 -0.351297,-0.0292 -0.714964,-0.0333 -1.087788,-0.0139 z m 40.452829,14.72054 c 0.13053,0.0195 0.20515,0.0604 0.20515,0.12661 0,0.0912 -0.98226,1.96796 -2.18281,4.17029 -1.20055,2.20234 -2.48047,4.57514 -2.84427,5.27306 -0.58473,1.12174 -3.41225,3.98998 -6.87917,6.97787 -2.80272,2.41548 -2.86617,2.58726 2.83446,-7.72356 2.17227,-3.92904 4.0174,-7.32726 4.1,-7.55148 0.18645,-0.50621 3.85289,-1.40955 4.76664,-1.27279 z m -95.094972,18.26039 c 1.958487,-0.0136 4.034285,-0.008 6.088001,0.0217 6.759759,0.0962 7.790222,0.0419 7.790222,0.60617 0,0.57911 -24.5736941,0.31392 -24.5736941,-0.0971 0,-0.27459 4.8200081,-0.48982 10.6954711,-0.53072 z m 71.113489,3.72794 c 0.432928,0.43293 -5.047409,9.37422 -7.256405,11.83907 -4.532214,5.05714 -4.108551,0.56656 0.480591,-5.09427 1.938426,-2.39108 6.544474,-6.97613 6.775814,-6.7448 z"
       style=""
       id="path2" /></g></svg>
