<?xml version="1.0" encoding="UTF-8" standalone="no"?>
<!-- Created with Inkscape (http://www.inkscape.org/) -->

<svg
   width="210mm"
   height="297mm"
   viewBox="0 0 210 297"
   version="1.1"
   id="svg1"
   xml:space="preserve"
   inkscape:export-filename="inkspace_phones.svg"
   inkscape:export-xdpi="96"
   inkscape:export-ydpi="96"
   sodipodi:docname="phones.svg"
   inkscape:version="1.3.2 (091e20e, 2023-11-25, custom)"
   xmlns:inkscape="http://www.inkscape.org/namespaces/inkscape"
   xmlns:sodipodi="http://sodipodi.sourceforge.net/DTD/sodipodi-0.dtd"
   xmlns="http://www.w3.org/2000/svg"
   xmlns:svg="http://www.w3.org/2000/svg"><sodipodi:namedview
     id="namedview1"
     pagecolor="#ffffff"
     bordercolor="#000000"
     borderopacity="0.25"
     inkscape:showpageshadow="2"
     inkscape:pageopacity="0.0"
     inkscape:pagecheckerboard="0"
     inkscape:deskcolor="#d1d1d1"
     inkscape:document-units="mm"
     inkscape:zoom="1.0128998"
     inkscape:cx="396.88031"
     inkscape:cy="403.29753"
     inkscape:window-width="2560"
     inkscape:window-height="1351"
     inkscape:window-x="-9"
     inkscape:window-y="-9"
     inkscape:window-maximized="1"
     inkscape:current-layer="layer1" /><defs
     id="defs1" /><g
     inkscape:label="Layer 1"
     inkscape:groupmode="layer"
     id="layer1"><g
       id="g1"
       inkscape:label="phone"
       inkscape:export-filename="..\..\data\g1.svg"
       inkscape:export-xdpi="96"
       inkscape:export-ydpi="96"><path
         d="m 111.72434,208.89407 c -1.01558,-0.0251 -2.28486,-0.021 -3.86488,0.003 l -5.55625,0.0848 -0.92604,0.54208 c -1.15717,0.67741 -1.386616,1.72777 -0.47646,2.18282 0.41667,0.20831 2.52669,0.28567 6.69417,0.24494 l 6.08542,-0.0594 0.92604,-0.54415 c 0.65662,-0.38573 0.92604,-0.73191 0.92604,-1.18959 0,-0.85164 -0.76127,-1.18937 -3.80804,-1.26452 z"
         id="path11"
         inkscape:export-filename="android.svg"
         inkscape:export-xdpi="96"
         inkscape:export-ydpi="96" /><path
         d="m 125.94156,102.39979 c -0.28243,0.0357 -0.57248,0.15372 -0.84284,0.36639 -0.80175,0.63065 -0.88248,1.19875 -0.29094,2.04328 0.76881,1.09763 2.76314,0.47843 2.76314,-0.85782 0,-1.02701 -0.78204,-1.65896 -1.62936,-1.55185 z"
         id="path10" /><path
         d="m 120.48608,102.22254 c -1.38839,0 -2.13665,1.66544 -1.20871,2.69079 0.24083,0.26612 0.71708,0.48421 1.05833,0.48421 0.75933,0 1.67897,-0.86946 1.67897,-1.5875 0,-0.65585 -0.89706,-1.5875 -1.52859,-1.5875 z"
         id="path9" /><path
         d="m 115.91685,102.22254 -4.16098,0.001 c -2.2886,5.3e-4 -5.87733,0.0793 -7.97471,0.17518 l -3.813196,0.17467 -0.48628,0.48575 c -0.60759,0.60755 -0.62548,1.63124 -0.0393,2.21744 0.35043,0.35039 0.734316,0.41275 1.785926,0.2899 0.73675,-0.0861 4.17953,-0.16693 7.6507,-0.17983 3.47117,-0.0129 6.5934,-0.13043 6.93808,-0.26148 0.83246,-0.3165 1.08777,-1.39468 0.53175,-2.24328 z"
         id="path8" /><path
         d="m 138.88909,110.36571 -7.57731,0.1726 c -4.16753,0.0951 -12.38579,0.29213 -18.26245,0.4377 -5.87667,0.14557 -16.765956,0.31059 -24.198522,0.36639 l -13.513903,0.10129 -0.316777,0.43356 c -0.736279,1.00692 -0.761437,5.41217 -0.201538,35.58904 0.11106,5.98618 0.02672,12.98634 -0.259932,21.56354 -0.40794,12.20778 -0.55574,21.64694 -0.47284,30.22865 l 0.03927,4.0349 0.470256,0.47025 0.470772,0.47026 13.88339,-0.076 c 7.635768,-0.0418 16.784014,-0.19845 20.329504,-0.3483 3.86649,-0.1634 11.27976,-0.19914 18.52394,-0.0889 6.64277,0.10119 12.52117,0.10067 13.06328,-10e-4 0.5763,-0.10812 1.10273,-0.40288 1.26711,-0.71004 0.19762,-0.36974 0.19949,-2.18838 0.007,-6.14019 -0.34486,-7.06972 -0.72403,-23.08429 -1.08262,-45.69902 -0.25736,-16.23068 -0.48083,-24.60091 -0.94878,-35.55907 l -0.17932,-4.20543 -0.52038,-0.52038 z m -2.22053,3.25562 c 0.0915,0.0988 0.72027,17.42063 1.08934,30.0085 0.0768,2.61938 0.25832,11.7872 0.40359,20.37292 0.25444,15.03774 0.59386,27.03149 0.94775,33.51113 l 0.16846,3.08405 -17.03203,0.15555 c -9.3676,0.0855 -23.391516,0.22701 -31.16399,0.31471 l -14.131954,0.15968 0.171566,-11.99824 c 0.09416,-6.59887 0.306079,-15.03381 0.471289,-18.74459 0.38662,-8.68419 0.397437,-26.78013 0.02274,-38.13565 -0.16147,-4.89452 -0.220992,-10.91939 -0.132292,-13.38833 l 0.16123,-4.48914 15.636772,-0.15503 c 8.600149,-0.0853 21.857459,-0.30149 29.460729,-0.48059 7.60326,-0.17915 13.8705,-0.27577 13.9268,-0.21497 z"
         id="path7" /><path
         d="m 97.651304,121.80171 c -0.53671,0.009 -1.15843,0.48937 -2.01383,1.49448 -0.699609,0.82206 -1.957615,2.28057 -2.795695,3.24115 -1.759348,2.01647 -2.016812,2.67378 -1.409733,3.60029 0.42162,0.64347 1.318936,0.86185 1.880506,0.45734 0.371659,-0.2677 4.070242,-4.47704 4.958872,-5.64358 0.82599,-1.08432 0.92042,-1.96528 0.28629,-2.66599 -0.29317,-0.32395 -0.58438,-0.4888 -0.90641,-0.48369 z"
         id="path6" /><path
         d="m 90.661551,121.00744 -2.250509,2.31511 c -2.370788,2.43888 -4.76095,5.77912 -4.76095,6.65334 0,0.28518 0.31613,0.76761 0.7028,1.07177 0.459529,0.36151 0.894831,0.4939 1.256771,0.38292 0.672779,-0.2063 0.404026,0.10595 1.861385,-2.15853 0.680439,-1.05727 2.24218,-2.92068 3.470589,-4.14083 1.228419,-1.22015 2.233455,-2.42945 2.233455,-2.68717 0,-0.75277 -0.806718,-1.43645 -1.694987,-1.43661 z"
         id="path5" /><path
         d="m 136.66856,113.62133 c -0.0563,-0.0608 -6.32354,0.0358 -13.9268,0.21497 -7.60327,0.1791 -20.86058,0.39525 -29.460731,0.48059 l -15.636772,0.15503 -0.16123,4.48914 c -0.0887,2.46894 -0.02918,8.49381 0.132292,13.38833 0.374699,11.35552 0.363882,29.45146 -0.02274,38.13565 -0.16521,3.71078 -0.377129,12.14572 -0.471289,18.74459 l -0.171566,11.99824 14.131954,-0.15968 c 7.772476,-0.0877 21.796392,-0.22922 31.163992,-0.31471 l 17.03203,-0.15555 -0.16846,-3.08405 c -0.35389,-6.47964 -0.69331,-18.47339 -0.94775,-33.51113 -0.14527,-8.58572 -0.32679,-17.75354 -0.40359,-20.37292 -0.36907,-12.58787 -0.99782,-29.9097 -1.08934,-30.0085 z m -46.007009,7.38611 h 0.818554 c 0.888269,1.6e-4 1.694987,0.68384 1.694987,1.43661 0,0.25772 -1.005036,1.46702 -2.233455,2.68717 -1.228409,1.22015 -2.79015,3.08356 -3.470589,4.14083 -1.457359,2.26448 -1.188606,1.95223 -1.861385,2.15853 -0.36194,0.11098 -0.797242,-0.0214 -1.256771,-0.38292 -0.38667,-0.30416 -0.7028,-0.78659 -0.7028,-1.07177 0,-0.87422 2.390162,-4.21446 4.76095,-6.65334 z m 6.989753,0.79427 c 0.32203,-0.005 0.61324,0.15974 0.90641,0.48369 0.63413,0.70071 0.5397,1.58167 -0.28629,2.66599 -0.88863,1.16654 -4.587213,5.37588 -4.958872,5.64358 -0.56157,0.40451 -1.458886,0.18613 -1.880506,-0.45734 -0.607079,-0.92651 -0.349615,-1.58382 1.409733,-3.60029 0.83808,-0.96058 2.096086,-2.41909 2.795695,-3.24115 0.8554,-1.00511 1.47712,-1.48597 2.01383,-1.49448 z m 11.001906,84.00521 h 6.61459 l 1.16685,0.66146 c 1.72671,0.97854 2.25248,1.83041 2.26343,3.66954 0.0152,2.56091 -0.89885,3.57496 -3.97495,4.41007 -1.85184,0.50274 -11.44959,0.77993 -13.31134,0.38447 -1.785256,-0.37922 -3.474626,-1.30863 -4.028166,-2.2164 -1.04301,-1.71046 -0.29205,-4.37678 1.59008,-5.64514 1.679946,-1.13212 2.690176,-1.264 9.679506,-1.264 z"
         style="fill:#ffffff"
         id="path4" /><path
         d="m 106.20323,96.246682 c -8.743726,0.0672 -20.262577,0.39264 -21.759388,0.6873 -4.082796,0.80373 -6.446252,2.16915 -8.23929,4.759398 -2.833537,4.09335 -4.080162,12.75785 -4.016292,27.91354 0.019,4.51113 0.06135,20.52507 0.09405,35.58646 0.0637,29.31754 0.374714,40.70787 1.184424,43.39166 1.433968,4.75296 5.337756,7.4294 11.903149,8.16126 2.907107,0.32407 17.450667,0.35527 25.003127,0.0537 3.41973,-0.13654 9.43239,-0.32226 13.36145,-0.41289 3.92906,-0.0906 7.85812,-0.27342 8.73125,-0.40618 6.25311,-0.95081 9.34011,-3.45443 10.91407,-8.85114 0.58784,-2.01552 0.68926,-10.87563 0.3545,-30.95625 -0.27861,-16.71268 -0.49446,-23.29034 -1.47847,-44.97916 -1.0617,-23.40101 -1.51323,-26.05898 -5.05912,-29.77648 -3.46457,-3.632238 -8.68284,-4.766738 -23.64868,-5.141798 -1.82392,-0.0457 -4.4302,-0.0519 -7.34478,-0.0295 z m 9.71362,5.975858 0.43202,0.65939 c 0.55602,0.8486 0.30071,1.92678 -0.53175,2.24328 -0.34468,0.13105 -3.46691,0.24863 -6.93808,0.26148 -3.47117,0.0129 -6.91395,0.0938 -7.6507,0.17983 -1.05161,0.12285 -1.435496,0.0605 -1.785926,-0.2899 -0.58621,-0.5862 -0.56832,-1.60989 0.0393,-2.21744 l 0.48628,-0.48575 3.813196,-0.17467 c 2.09738,-0.0959 5.68611,-0.17465 7.97471,-0.17518 z m 4.56923,0 c 0.63153,0 1.52859,0.93165 1.52859,1.5875 0,0.71804 -0.91964,1.5875 -1.67897,1.5875 -0.34125,0 -0.8175,-0.21809 -1.05833,-0.48421 -0.92794,-1.02535 -0.17968,-2.69079 1.20871,-2.69079 z m 5.45548,0.17725 c 0.84732,-0.10711 1.62936,0.52484 1.62936,1.55185 0,1.33625 -1.99433,1.95545 -2.76314,0.85782 -0.59154,-0.84453 -0.51081,-1.41263 0.29094,-2.04328 0.27036,-0.21267 0.56041,-0.33068 0.84284,-0.36639 z m 12.94753,7.96592 0.51987,0.51987 0.52038,0.52038 0.17932,4.20543 c 0.46795,10.95816 0.69142,19.32839 0.94878,35.55907 0.35859,22.61473 0.73776,38.6293 1.08262,45.69902 0.19277,3.95181 0.1909,5.77045 -0.007,6.14019 -0.16438,0.30716 -0.69081,0.60192 -1.26711,0.71004 -0.54211,0.1017 -6.42051,0.10222 -13.06328,0.001 -7.24418,-0.11026 -14.65745,-0.0745 -18.52394,0.0889 -3.54549,0.14985 -12.693736,0.3065 -20.3295,0.3483 l -13.88339,0.076 -0.470772,-0.47026 -0.470256,-0.47025 -0.03927,-4.0349 c -0.0829,-8.58171 0.0649,-18.02087 0.47284,-30.22865 0.286649,-8.5772 0.370992,-15.57736 0.259932,-21.56354 -0.559899,-30.17687 -0.534741,-34.58212 0.201538,-35.58904 l 0.316777,-0.43356 13.513903,-0.10129 c 7.432562,-0.0558 18.321848,-0.22082 24.198518,-0.36639 5.87666,-0.14557 14.09492,-0.34258 18.26245,-0.4377 z"
         style="fill:#808080"
         id="path3" /><path
         d="m 112.48967,92.251572 c -8.49638,-0.14805 -23.873197,0.3931 -28.442703,1.00098 -9.153981,1.21776 -13.169609,5.70837 -14.661637,16.396408 -1.539038,11.02486 -1.606476,14.10908 -1.265556,57.92567 0.21068,27.07787 0.423561,33.62528 1.26969,39.02604 l 0.538985,3.43958 1.16117,2.41226 1.160652,2.41225 1.908411,1.7663 c 2.850677,2.6393 5.756584,3.9146 9.96735,4.37441 2.457968,0.26843 14.006252,0.26128 21.484478,-0.0134 2.98316,-0.10959 9.53161,-0.33027 14.55208,-0.49041 5.02046,-0.16015 10.55688,-0.47368 12.30312,-0.6966 9.00755,-1.14987 13.46945,-4.75787 14.86421,-12.01994 l 0.48163,-2.50734 -0.0661,-15.61042 c -0.13302,-31.48315 -1.90383,-76.43049 -3.23133,-82.02083 -1.3233,-5.57269 -3.7468,-9.162318 -7.82277,-11.586368 -4.35311,-2.58886 -10.59752,-3.57151 -24.20163,-3.80856 z m -6.28644,3.99511 c 2.91458,-0.0224 5.52086,-0.0163 7.34478,0.0295 14.96584,0.37506 20.18411,1.50956 23.64868,5.141798 3.54589,3.7175 3.99742,6.37547 5.05912,29.77648 0.98401,21.68882 1.19986,28.26648 1.47847,44.97916 0.33476,20.08062 0.23334,28.94073 -0.3545,30.95625 -1.57396,5.39671 -4.66096,7.90033 -10.91407,8.85114 -0.87313,0.13276 -4.80219,0.31558 -8.73125,0.40618 -3.92906,0.0906 -9.94172,0.27635 -13.36145,0.41289 -7.55246,0.30153 -22.096019,0.27033 -25.003126,-0.0537 -6.565393,-0.73186 -10.469181,-3.4083 -11.903149,-8.16126 -0.80971,-2.68379 -1.120724,-14.07412 -1.184424,-43.39166 -0.0327,-15.06139 -0.07505,-31.07533 -0.09405,-35.58646 -0.06387,-15.15569 1.182755,-23.82019 4.016292,-27.91354 1.793038,-2.590248 4.156494,-3.955668 8.23929,-4.759398 1.496811,-0.29466 13.015661,-0.62005 21.759387,-0.6873 z"
         id="path2" /><g
         id="g14"
         transform="translate(-3.9182059,-59.556727)"
         inkscape:label="apple"
         style="display:inline"><path
           fill="#d6e5e5"
           d="m 123.83684,228.04103 c -0.43296,-0.62527 -0.69273,-1.37992 -1.15817,-1.98364 -0.5412,-0.68996 -1.34217,-1.04573 -1.91585,-1.69256 -0.77933,-0.87323 -0.68192,-1.88662 -0.59532,-2.97547 0.0324,-0.46357 -0.16236,-0.59294 -0.37885,-0.97026 -0.19482,-0.3342 -0.29225,-0.66839 -0.29225,-1.06729 0,-1.78958 1.51537,-3.11561 3.06321,-3.76245 0.065,-2.54423 2.30552,-4.26914 4.78422,-4.26914 -0.0541,-0.75465 -0.89839,-1.42305 -1.38547,-1.8974 -0.74686,-0.73309 -1.71019,-1.32602 -2.67354,-1.71412 -2.04575,-0.83011 -4.05902,-0.58216 -6.08311,0.15093 -1.92669,0.70074 -3.8209,1.75725 -5.8991,1.86505 -2.154,0.11858 -4.15644,-0.7223 -6.19137,-1.29368 -1.46124,-0.40966 -2.98743,-0.66841 -4.4595,-0.10782 -0.90922,0.35576 -1.742669,0.90558 -2.348818,1.68178 -1.190647,1.52008 -1.493722,3.54685 -1.461247,5.42269 0.03243,2.01598 0.389662,4.0104 0.887573,5.95093 0.552024,2.17769 1.320535,4.33382 2.435412,6.2959 1.10406,1.92974 2.5653,3.73011 4.51362,4.86209 0.99581,0.57138 2.07822,0.99182 3.21475,1.20743 1.42877,0.28029 2.89001,0.28029 4.32961,0.43122 1.72102,0.18328 3.45288,0.39888 5.18473,0.46357 1.41795,0.0539 2.99825,0.12936 4.37291,-0.25873 2.26222,-0.65763 3.74512,-2.46877 4.98988,-4.35539 -1.13652,0.0323 -2.37047,-1.17509 -2.93332,-1.98364 z m -8.47522,-27.05948 c -0.86592,0.63607 -1.80762,1.47696 -2.29469,2.45799 -0.32473,0.63607 -0.55204,1.33681 -0.8984,1.97287 0.0758,0.054 0.15154,0.14015 0.19482,0.24796 0.0541,0.12935 0.47627,0.11858 0.69275,0.097 0.51955,-0.0647 1.01746,-0.20483 1.50454,-0.3881 0.48708,-0.17249 0.97417,-0.37733 1.43959,-0.6145 0.33555,-0.17249 0.64945,-0.40966 1.00664,-0.56059 2.30553,-0.91636 4.55693,-2.54425 4.51363,-5.16395 -2.18646,-0.0106 -4.39456,0.66841 -6.15888,1.95131 z"
           id="path2-3-5"
           style="stroke-width:0.108023" /><path
           d="m 126.75933,208.7113 a 9.8195737,9.7802227 0 0 0 -3.63687,-2.19926 c -1.32054,-0.44201 -2.71684,-0.53903 -4.0915,-0.29108 -1.45042,0.25873 -2.82506,0.86245 -4.17807,1.41226 -1.34219,0.54983 -2.69519,1.04573 -4.16726,1.04573 -1.52619,0 -3.07403,-0.57137 -4.5028,-1.03494 -1.41795,-0.45279 -2.86837,-0.83011 -4.37292,-0.68996 -1.16899,0.10781 -2.32717,0.60372 -3.258039,1.30446 -3.333805,2.5119 -3.063206,7.42788 -2.392106,11.08252 0.779336,4.25837 2.283869,8.66767 5.249665,11.92342 1.42877,1.57398 3.25803,2.69517 5.28212,3.29889 1.14735,0.34498 2.30554,0.42044 3.49617,0.50669 1.63444,0.11859 3.25804,0.3342 4.89248,0.48513 1.53701,0.14014 3.07402,0.2264 4.62186,0.15093 1.21229,-0.0648 2.34882,-0.18327 3.4637,-0.68996 2.1215,-0.95948 3.52864,-2.9 4.75175,-4.7974 0.18401,-0.29108 0.0432,-0.54982 -0.19483,-0.6684 0.17318,-0.42045 -0.32472,-0.98104 -0.81181,-0.65763 -0.36801,0.23718 -1.01746,-0.30186 -1.28806,-0.50668 -0.45461,-0.35577 -0.92005,-0.84089 -1.14734,-1.37994 -0.12988,-0.29107 -0.3572,-0.53903 -0.49792,-0.8301 -0.14071,-0.29108 -0.29225,-0.57138 -0.4979,-0.83011 -0.47626,-0.62528 -1.13652,-0.98104 -1.72102,-1.48774 -0.75768,-0.64683 -0.59532,-1.55241 -0.51956,-2.44721 0.0324,-0.37732 0.0324,-0.65761 -0.15154,-0.99182 -0.12987,-0.23717 -0.32471,-0.43122 -0.43296,-0.66839 -0.3139,-0.64685 0.20567,-1.52009 0.61698,-1.99444 0.51955,-0.60371 1.26641,-1.01338 2.01327,-1.27211 a 0.54120226,0.53903344 0 0 0 0.3572,-0.54982 c -0.14071,-2.15613 1.82926,-3.67621 3.90748,-3.52528 0.2273,0.0215 0.40048,-0.0863 0.50872,-0.23717 0.16236,-0.0431 0.30307,-0.17249 0.33555,-0.40966 0.18401,-1.27212 -0.79016,-2.24239 -1.63444,-3.05093 z m -4.19972,6.88884 c -1.54784,0.64685 -3.06321,1.97287 -3.06321,3.76245 0,0.38812 0.10825,0.72231 0.29225,1.06729 0.21649,0.37732 0.41131,0.50669 0.37885,0.97026 -0.0758,1.08885 -0.18401,2.10224 0.59532,2.97547 0.57368,0.64684 1.38548,0.99182 1.91585,1.69256 0.46544,0.60372 0.72521,1.35837 1.15817,1.98364 0.55204,0.80856 1.78597,2.01599 2.92249,1.97287 -1.24475,1.88662 -2.72765,3.69777 -4.98987,4.35538 -1.37466,0.3989 -2.9658,0.31264 -4.37292,0.25875 -1.73184,-0.0648 -3.45288,-0.2803 -5.18472,-0.46357 -1.4396,-0.15093 -2.91167,-0.16172 -4.32962,-0.43123 a 10.423556,10.381784 0 0 1 -3.21474,-1.20744 c -1.95915,-1.12119 -3.40957,-2.93235 -4.51363,-4.86208 -1.114872,-1.9513 -1.883383,-4.11822 -2.435407,-6.29591 -0.497898,-1.94052 -0.844273,-3.94572 -0.887573,-5.95093 -0.03243,-1.87584 0.2706,-3.91339 1.461247,-5.42267 0.606149,-0.77622 1.428773,-1.32603 2.348823,-1.68178 1.46124,-0.57139 2.98743,-0.30186 4.4595,0.10781 2.03492,0.57138 4.03738,1.41227 6.19136,1.29368 2.07821,-0.10781 3.97242,-1.17509 5.8991,-1.86506 2.03492,-0.73308 4.03737,-0.98104 6.08311,-0.15093 0.97418,0.39889 1.92669,0.99183 2.67355,1.71413 0.48707,0.47434 1.33136,1.14275 1.38547,1.8974 -2.46788,0.0106 -4.70845,1.73569 -4.7734,4.27992 z"
           id="path4-8-2"
           style="stroke-width:0.108023" /><path
           d="m 122.55961,198.45888 c -0.0433,-0.32342 -0.28143,-0.47435 -0.5845,-0.49591 -2.6519,-0.15093 -5.36873,0.7223 -7.47941,2.31784 -0.97417,0.74387 -1.91586,1.71412 -2.46788,2.81376 -0.2706,0.54981 -0.47626,1.13197 -0.74686,1.68178 -0.12988,0.26952 -0.3139,0.46357 -0.44379,0.68996 -0.10825,0.0971 -0.17319,0.23718 -0.17319,0.40966 v 0.19406 c 0,0.51748 0.60615,0.60372 0.90923,0.32342 0.56284,0.63605 1.67772,0.45279 2.44623,0.26952 1.11487,-0.26952 2.27304,-0.75465 3.23639,-1.3907 0.28143,-0.18328 0.63861,-0.2803 0.94169,-0.42045 0.3572,-0.16171 0.70356,-0.35577 1.04993,-0.54982 0.70356,-0.40967 1.35301,-0.91635 1.91586,-1.50929 1.10405,-1.17509 1.59113,-2.73829 1.3963,-4.33383 z m -5.55274,5.73531 c -0.35719,0.14015 -0.67109,0.37732 -1.00664,0.5606 -0.46542,0.23718 -0.95251,0.43122 -1.43959,0.6145 -0.48708,0.17249 -0.98499,0.32342 -1.50454,0.3881 -0.21648,0.0215 -0.63862,0.0431 -0.69275,-0.097 -0.0432,-0.10782 -0.10825,-0.19404 -0.19482,-0.24795 0.34636,-0.62528 0.57367,-1.32603 0.8984,-1.97286 0.48707,-0.97027 1.42877,-1.82194 2.29469,-2.45799 1.76432,-1.28291 3.97242,-1.97287 6.14805,-1.96209 0.0541,2.63048 -2.20809,4.24759 -4.5028,5.17472 z"
           id="path5-2-5"
           style="stroke-width:0.108023" /></g><g
         id="g13"
         transform="translate(65.426328,29.426736)"
         inkscape:label="android"
         style="display:inline"><path
           fill="#d6e5e5"
           d="m 49.805889,138.08079 c -0.07514,-0.25618 0.03757,-0.50286 0.291151,-0.60723 0.582302,-0.2372 1.183388,-0.49338 1.812649,-0.56928 -0.0094,-0.0285 -0.0094,-0.0569 -0.01878,-0.0854 -0.131487,-1.48961 -0.272367,-2.96973 -0.394462,-4.45934 -0.08453,-1.04368 -0.131488,-2.09684 -0.281759,-3.14052 -0.150272,-1.05316 -0.328719,-2.10633 -0.394463,-3.17847 -0.01878,-0.34156 -0.06574,-0.76852 -0.0094,-1.16701 -1.427578,0 -2.855157,-0.009 -4.282735,0.038 -1.615418,0.0569 -3.230836,0.1518 -4.855646,0.20873 -1.690553,0.0569 -3.381107,0.0379 -5.081052,0.0379 -0.544734,0 -1.080076,0.019 -1.615418,-0.0379 -0.08453,-0.009 -0.169055,-0.009 -0.262975,-0.019 -0.0094,0.009 -0.01878,0.0285 -0.02818,0.038 -0.07513,0.0854 -0.03757,0.53132 -0.02818,0.70211 0.02818,0.37003 0.07514,0.74006 0.131488,1.11009 0.122095,0.85392 0.206623,1.69834 0.216015,2.57124 0.0094,1.30934 -0.112704,2.62816 -0.04696,3.9375 0.05635,1.05316 0.197231,2.09684 0.253583,3.15 0.0094,0.038 0.01878,0.0854 0.01878,0.13283 v 0.13284 h 1.324267 c 0.328719,0 0.52595,0.24668 0.497774,0.55979 -0.103311,1.1006 0.244191,2.22018 0.441422,3.30181 0.150272,0.81596 0.159664,1.6509 0.356895,2.45738 0.159663,0.66416 0.413247,1.51807 1.0519,1.86913 0.366287,0.19924 0.911021,0.37003 1.220955,0.019 0.741966,-0.82545 0.695006,-2.35301 0.676222,-3.3872 -0.01878,-1.05316 -0.103312,-2.11581 -0.272367,-3.15 -0.103312,-0.13283 -0.169056,-0.26567 -0.169056,-0.45542 0,-0.14232 0.04696,-0.25618 0.112704,-0.33208 0.03757,-0.17079 0.169055,-0.32259 0.403855,-0.32259 h 1.897176 c 1.155212,0 2.338599,-0.29413 3.493811,-0.13284 0.01878,0 0.03757,0.009 0.05635,0.009 0.216015,0.009 0.422638,0.14232 0.460206,0.41747 0.234799,1.79323 -0.112704,3.72877 0.535342,5.45558 0.262975,0.70211 0.741965,1.27139 1.455754,1.52756 0.375679,0.13283 0.591694,0.0569 0.817101,-0.25617 0.610478,-0.86341 0.582302,-2.33404 0.554126,-3.36823 -0.02818,-0.97726 -0.09392,-2.14428 -0.338111,-3.00768 z m 0.57291,-18.31177 c -0.441422,-0.73057 -0.976764,-1.46114 -1.615418,-2.03042 -0.09392,-0.0854 -0.197231,-0.17078 -0.291151,-0.24669 -0.216015,0.0285 -0.403854,-0.13283 -0.47899,-0.34156 -1.173995,-0.75904 -2.554614,-1.07214 -3.972801,-1.05317 -1.878392,0.0285 -3.878881,0.35106 -5.59761,1.13856 -0.892237,0.40798 -1.756297,0.97726 -2.235288,1.85964 -0.422638,0.7875 -0.704397,1.64141 -1.145819,2.40994 5.334635,0.019 10.669271,0.27515 16.013298,0.28464 0.06574,-0.69262 -0.347502,-1.48012 -0.676221,-2.02094 z m -9.523451,-0.92982 c 0.01878,0.46491 -0.488383,0.86341 -0.920413,0.92982 -0.43203,0.0664 -0.995548,-0.17078 -1.211563,-0.56927 -0.103312,-0.19925 -0.14088,-0.38901 -0.112704,-0.55979 0,-0.009 0,-0.019 0,-0.0285 v -0.42696 c 0,-0.28464 0.169056,-0.45542 0.432031,-0.51235 0.197231,-0.0379 0.43203,-0.0474 0.648045,-0.009 0.610478,-0.13284 1.230347,0.0949 1.258523,0.87289 0,0.12334 -0.03757,0.22771 -0.09392,0.30361 z m 6.433495,0 c 0.01878,0.46491 -0.488382,0.86341 -0.920413,0.92982 -0.43203,0.0664 -0.995548,-0.17078 -1.211563,-0.56927 -0.103312,-0.19925 -0.140879,-0.38901 -0.112703,-0.55979 0,-0.009 0,-0.019 0,-0.0285 v -0.42696 c 0,-0.28464 0.169055,-0.45542 0.43203,-0.51235 0.197231,-0.0379 0.43203,-0.0474 0.648045,-0.009 0.610478,-0.13284 1.230348,0.0949 1.258524,0.87289 0,0.12334 -0.03757,0.22771 -0.09392,0.30361 z m 8.828446,14.94354 c -0.0094,-1.43268 -0.122095,-2.86536 -0.291151,-4.29805 -0.08453,-0.74006 -0.178447,-1.47063 -0.272367,-2.21069 -0.05635,-0.4744 -0.03757,-0.9488 -0.08453,-1.42319 -0.04696,-0.54082 -0.150272,-1.04368 -0.601086,-1.38525 -0.52595,-0.389 -1.0519,-0.22771 -1.446363,0.2372 -0.04696,0.0474 -0.09392,0.0854 -0.140879,0.11386 -0.0094,0.009 -0.01878,0.019 -0.02818,0.0379 -0.09392,0.69262 0.08453,1.47063 0.169055,2.15377 0.122096,0.92982 0.169056,1.85015 0.2348,2.77997 0.112703,1.46115 0.206623,2.94127 0.441422,4.38344 0.08453,0.54081 0.413246,1.67937 1.164603,1.55602 0.779533,-0.12334 0.864061,-1.34729 0.854669,-1.94503 z m -23.902548,-1.3378 c -0.07514,-1.04368 0.01878,-2.06838 0.04696,-3.11205 0.02817,-1.48012 0,-2.95076 -0.08453,-4.43088 -0.0094,-0.009 -0.01878,-0.0285 -0.03757,-0.038 -0.05635,-0.009 -0.103312,-0.019 -0.159663,-0.0379 -0.178448,-0.038 -0.366287,-0.0854 -0.544734,-0.0854 -0.741965,0.009 -1.371227,0.44594 -1.709338,1.1101 -0.638653,1.26189 -0.450814,2.84638 -0.244191,4.19367 0.131488,0.82546 0.375679,1.65091 0.413247,2.48585 0.02817,0.75904 0.04696,1.51807 0.122095,2.27711 0.07514,0.67365 0.159664,1.50859 0.591694,2.06838 0.319327,0.40798 0.91102,0.35105 1.220955,-0.0474 0.413247,-0.53133 0.469598,-1.34729 0.488382,-1.99248 0.01878,-0.79698 -0.03757,-1.59397 -0.103311,-2.39096 z"
           id="path1-3-2"
           style="stroke-width:0.0943984" /><path
           fill="#010101"
           d="m 49.871633,117.52038 c -0.187839,-0.21823 -0.394462,-0.41747 -0.610478,-0.60723 0.882845,-0.80648 1.615418,-1.75528 2.329207,-2.72305 0.366287,-0.48388 -0.33811,-1.11958 -0.704397,-0.6262 -0.732573,0.98674 -1.465146,1.97349 -2.394951,2.77997 -1.145819,-0.73057 -2.498262,-1.1006 -3.878881,-1.16702 -2.066232,-0.0949 -4.273343,0.27515 -6.198696,1.05316 -0.0094,-0.019 -0.01878,-0.0379 -0.03757,-0.0474 -0.450814,-0.6262 -0.788925,-1.31882 -1.070684,-2.03042 -0.225407,-0.55979 -1.117644,-0.25618 -0.882844,0.3131 0.300542,0.74955 0.657437,1.4991 1.127035,2.16326 -0.741965,0.389 -1.418186,0.91084 -1.906568,1.59398 -0.685614,0.95828 -0.957981,2.14427 -1.596634,3.13102 -0.103312,0.1613 -0.09392,0.32259 -0.0094,0.43645 -0.09392,0.27515 0.07513,0.67364 0.469598,0.67364 5.522475,0 11.035558,0.27515 16.558032,0.28464 0.206624,0.19925 0.582302,0.21823 0.732574,-0.12334 0.788925,-1.78374 -0.835885,-3.85211 -1.925353,-5.10452 z m 1.183387,4.26958 c -5.334635,-0.009 -10.678663,-0.25618 -16.013298,-0.28464 0.441422,-0.77801 0.713789,-1.63193 1.145819,-2.40994 0.478991,-0.88238 1.352443,-1.45166 2.235288,-1.85964 1.718729,-0.7875 3.719218,-1.11958 5.59761,-1.13856 1.418187,-0.019 2.798806,0.29413 3.972801,1.05317 0.06574,0.20873 0.262975,0.37003 0.47899,0.34156 0.103312,0.0759 0.197232,0.1613 0.291151,0.24669 0.629262,0.56928 1.164604,1.30934 1.615418,2.03042 0.328719,0.54082 0.741965,1.32832 0.676221,2.02094 z"
           id="path4-5-2"
           style="stroke-width:0.0943984" /><path
           fill="#010101"
           d="m 39.690744,117.65321 c -0.216015,-0.0379 -0.450814,-0.0285 -0.648045,0.009 -0.262975,0.0474 -0.432031,0.22771 -0.432031,0.51235 v 0.42695 c 0,0.009 0,0.019 0,0.0285 -0.02818,0.18027 0.0094,0.37003 0.112704,0.55979 0.216015,0.40798 0.779533,0.63569 1.211563,0.56927 0.43203,-0.0664 0.939197,-0.46491 0.920413,-0.92982 0.06574,-0.0759 0.103311,-0.18027 0.09392,-0.3131 -0.02818,-0.76852 -0.657437,-0.98675 -1.258523,-0.8634 z m 6.433495,0 c -0.216015,-0.0379 -0.450814,-0.0285 -0.648045,0.009 -0.262975,0.0474 -0.43203,0.22771 -0.43203,0.51235 v 0.42695 c 0,0.009 0,0.019 0,0.0285 -0.02818,0.18027 0.0094,0.37003 0.112703,0.55979 0.216015,0.40798 0.779533,0.63569 1.211563,0.56927 0.432031,-0.0664 0.939197,-0.46491 0.920413,-0.92982 0.06574,-0.0759 0.103312,-0.18027 0.09392,-0.3131 -0.02818,-0.76852 -0.657438,-0.98675 -1.258524,-0.8634 z m 6.705863,19.08977 c -0.112704,-1.29036 -0.234799,-2.57123 -0.347503,-3.8616 -0.09392,-1.09111 -0.131487,-2.19171 -0.272367,-3.27334 -0.122095,-0.9488 -0.281759,-1.89759 -0.38507,-2.85588 -0.05635,-0.46491 -0.09392,-0.92982 -0.09392,-1.40422 0,-0.14232 0.0094,-0.28464 0.02818,-0.42695 0.02818,-0.22772 0.131487,-0.18028 -0.08453,-0.0759 0.535342,-0.26566 0.234799,-1.15753 -0.309935,-0.90135 -0.04696,-0.019 -0.09392,-0.019 -0.150271,-0.019 h -0.291151 c -0.0094,0 -0.01878,0 -0.02818,0 -2.986644,0.009 -5.945113,0.12334 -8.931758,0.2372 -1.568458,0.0569 -3.127524,0.0474 -4.695982,0.0474 H 35.61463 c -0.09392,0 -0.14088,0 -0.169056,0 -0.0094,0 -0.03757,0 -0.06574,-0.009 -0.178448,-0.019 -0.366287,-0.0379 -0.544734,-0.0569 -0.04696,-0.009 -0.09392,-0.009 -0.14088,-0.019 -0.06574,-0.0379 -0.150271,-0.0664 -0.253583,-0.0664 -0.178447,0 -0.309935,0.0474 -0.450814,0.17078 -0.112704,0.11386 -0.14088,0.26567 -0.103312,0.40799 -0.300543,0.51235 -0.178447,1.2619 -0.112703,1.8122 0.09392,0.79699 0.225407,1.575 0.272367,2.38148 0.07513,1.37575 -0.03757,2.76099 -0.03757,4.13675 -0.0094,1.43268 0.272367,2.8369 0.281759,4.26958 0,0.28464 0.206623,0.42696 0.43203,0.42696 0.08453,0.0949 0.206623,0.1518 0.356895,0.1518 h 1.033116 c 0.0094,1.06266 0.281759,2.09684 0.469598,3.14052 0.178447,0.95828 0.197231,1.93554 0.460206,2.88434 0.244191,0.87289 0.723181,1.67937 1.53089,2.1253 0.610478,0.33208 1.399403,0.38901 1.981705,-0.019 1.136427,-0.77802 1.164603,-2.70407 1.173995,-3.92802 0.0094,-0.77801 -0.03757,-1.56551 -0.122095,-2.34353 -0.02818,-0.29412 -0.06574,-0.59774 -0.112704,-0.89186 -0.01878,-0.11386 -0.03757,-0.22771 -0.05635,-0.34157 0,-0.019 -0.0094,-0.0379 -0.0094,-0.0569 h 1.314875 c 0.385071,0 0.770141,0 1.155212,-0.019 0.657437,-0.0474 1.314875,-0.19925 1.981704,-0.14232 0.169056,1.76476 -0.05635,3.57696 0.535342,5.28479 0.403855,1.16702 1.840825,2.67561 3.212052,2.11582 1.09886,-0.45543 1.305483,-1.99248 1.399403,-3.02666 0.112703,-1.31883 0.04696,-2.66612 -0.150272,-3.97546 -0.01878,-0.13283 -0.04696,-0.27515 -0.07514,-0.40798 0.469599,-0.18976 0.957981,-0.36054 1.455755,-0.37952 0.375678,-0.009 0.488382,-0.38901 0.375678,-0.66416 0.122096,-0.0854 0.216016,-0.22771 0.197232,-0.42696 z m -2.742454,0.73058 c -0.244191,0.10437 -0.366286,0.35105 -0.291151,0.60723 0.253583,0.8634 0.309935,2.03042 0.328719,3.02666 0.01878,1.03418 0.05635,2.51431 -0.554126,3.36822 -0.216015,0.30362 -0.441422,0.38901 -0.817101,0.25618 -0.713789,-0.25618 -1.192779,-0.82545 -1.455754,-1.52756 -0.648046,-1.72681 -0.291151,-3.66236 -0.535342,-5.45558 -0.03757,-0.27515 -0.253583,-0.40798 -0.460206,-0.41747 -0.01878,0 -0.03757,-0.009 -0.05635,-0.009 -1.155212,-0.16129 -2.329207,0.13283 -3.493811,0.13283 H 40.85535 c -0.2348,0 -0.366287,0.14232 -0.403855,0.32259 -0.07514,0.0854 -0.122095,0.18976 -0.112703,0.33208 0.0094,0.18976 0.06574,0.32259 0.169055,0.45542 0.178447,1.04368 0.262975,2.09684 0.272367,3.15001 0.01878,1.03418 0.06574,2.56175 -0.676222,3.3872 -0.319326,0.35105 -0.854668,0.18027 -1.220955,-0.019 -0.638653,-0.35105 -0.892236,-1.20497 -1.0519,-1.86913 -0.187839,-0.80647 -0.206623,-1.6509 -0.356894,-2.45738 -0.197232,-1.07214 -0.535342,-2.19172 -0.441423,-3.30181 0.02818,-0.32259 -0.169055,-0.55979 -0.497774,-0.55979 h -1.324267 v -0.13283 c 0,-0.0474 -0.0094,-0.0949 -0.01878,-0.13283 -0.04696,-1.05316 -0.197231,-2.09684 -0.253583,-3.15 -0.06574,-1.30934 0.05635,-2.62817 0.04696,-3.93751 -0.0094,-0.8634 -0.08453,-1.71732 -0.216015,-2.57123 -0.05635,-0.37004 -0.103312,-0.74007 -0.131488,-1.1101 -0.0094,-0.18027 -0.04696,-0.61671 0.02818,-0.70211 0.0094,-0.009 0.01878,-0.0285 0.02818,-0.0379 0.09392,0.009 0.187839,0.009 0.262975,0.019 0.535342,0.0569 1.080076,0.0379 1.615418,0.0379 1.690554,0 3.390499,0.019 5.081053,-0.0379 1.615417,-0.0474 3.230835,-0.15181 4.855645,-0.20874 1.427578,-0.0474 2.855157,-0.0474 4.282735,-0.0379 -0.05635,0.3985 -0.0094,0.83494 0.0094,1.16702 0.06574,1.06265 0.244192,2.11582 0.394463,3.17847 0.150271,1.04367 0.197231,2.09684 0.281759,3.14051 0.122095,1.48961 0.262975,2.96973 0.394462,4.45934 0,0.0285 0.0094,0.0569 0.01878,0.0854 -0.610477,0.0569 -1.211563,0.3131 -1.803257,0.5503 z m 6.893702,-5.71175 c -0.09392,-1.40422 -0.272367,-2.80844 -0.450815,-4.20317 -0.140879,-1.11009 0.04696,-2.39097 -0.619869,-3.35874 -0.798317,-1.16702 -2.338599,-1.12907 -3.20266,-0.10437 -0.01878,0.019 -0.02818,0.038 -0.03757,0.0474 -0.469598,0.24669 -0.38507,1.00573 -0.356894,1.47064 0.05635,0.76852 0.187839,1.51807 0.262975,2.27711 0.131487,1.24292 0.169055,2.49533 0.281759,3.74774 0.06574,0.70211 0.140879,1.40422 0.225407,2.10633 0.07513,0.57876 0.159663,1.15753 0.403854,1.68886 0.328719,0.71159 0.911021,1.23343 1.709338,1.25241 0.741965,0.0285 1.324267,-0.62621 1.587242,-1.2619 0.47899,-1.10061 0.272366,-2.48585 0.197231,-3.66235 z m -1.71873,3.97545 c -0.760749,0.13283 -1.080076,-1.01521 -1.164603,-1.55602 -0.234799,-1.44217 -0.328719,-2.9223 -0.441422,-4.38344 -0.06574,-0.92982 -0.122096,-1.85964 -0.2348,-2.77998 -0.08453,-0.68313 -0.262975,-1.46114 -0.169055,-2.15376 0.0094,-0.009 0.01878,-0.019 0.02818,-0.0379 0.04696,-0.0285 0.09392,-0.0664 0.140879,-0.11386 0.403855,-0.4744 0.929805,-0.6262 1.446363,-0.2372 0.450814,0.34157 0.554126,0.84443 0.601086,1.38524 0.03757,0.4744 0.01878,0.9488 0.08453,1.4232 0.09392,0.74006 0.18784,1.47063 0.272367,2.21069 0.169056,1.4232 0.281759,2.85588 0.291151,4.29805 0.0094,0.58825 -0.07514,1.8122 -0.854669,1.94503 z m -22.089899,-3.18795 c -0.07514,-1.03419 0,-2.05889 0.02818,-3.09308 0.03757,-1.48012 0.0094,-2.96973 -0.06574,-4.44985 0.07514,-0.0949 0.122096,-0.22771 0.122096,-0.35106 v -0.28464 c 0,-0.40798 -0.413247,-0.51235 -0.695006,-0.35105 -0.150271,-0.0664 -0.328718,-0.0949 -0.52595,-0.14232 -0.544734,-0.12334 -1.117643,-0.0854 -1.634201,0.11386 -0.957981,0.37951 -1.549674,1.35677 -1.822041,2.30557 -0.281759,1.01521 -0.225408,2.14428 -0.103312,3.17847 0.103312,0.93931 0.403854,1.87861 0.47899,2.81792 0.122096,1.48961 0,3.04564 0.544734,4.46883 0.244191,0.63569 0.676222,1.186 1.361835,1.3378 0.676221,0.14232 1.390011,-0.18976 1.775081,-0.74006 0.920413,-1.31882 0.648046,-3.32078 0.535342,-4.81039 z m -0.854669,2.29608 c -0.01878,0.65467 -0.07514,1.46115 -0.488382,1.99247 -0.309935,0.3985 -0.901628,0.45543 -1.220955,0.0474 -0.43203,-0.55979 -0.516558,-1.38524 -0.591694,-2.06837 -0.08453,-0.75904 -0.09392,-1.51807 -0.122095,-2.27711 -0.03757,-0.83494 -0.281759,-1.66039 -0.413247,-2.48585 -0.206623,-1.34729 -0.38507,-2.93178 0.244191,-4.19368 0.338111,-0.67364 0.957981,-1.11009 1.709338,-1.11009 0.178447,0 0.366286,0.0474 0.544734,0.0854 0.05635,0.019 0.103311,0.0285 0.159663,0.038 0.0094,0.009 0.01878,0.0285 0.03757,0.038 0.08453,1.47063 0.112703,2.95075 0.08453,4.43088 -0.01878,1.04367 -0.122096,2.06837 -0.04696,3.11205 0.06574,0.7875 0.122095,1.58449 0.103311,2.39096 z"
           id="path5-29-5"
           style="stroke-width:0.0943984" /></g></g><g
       id="g12"
       inkscape:label="apple"><path
         fill="#bcbcbc"
         d="m 167.3574,36.513373 c -1.30559,-3.778912 -3.78702,-7.063161 -7.40375,-8.887743 -4.12761,-2.084079 -9.00128,-2.278701 -13.4938,-1.565086 -4.03841,0.64874 -8.29577,2.108406 -11.32052,4.962864 -1.58942,1.500212 -2.81391,3.316685 -3.46265,5.416982 -0.64875,2.108406 -0.84337,4.306014 -0.98122,6.495513 -0.008,0.0892 -0.0324,0.162185 -0.0811,0.21895 0,0.01622 0.008,0.04055 0.008,0.06487 0,4.289796 -0.0892,8.782323 2.44089,12.480144 2.05164,3.008533 5.23047,4.987191 8.69312,5.976521 7.13614,2.043532 15.74817,0.778488 21.48142,-4.119502 6.00895,-5.133158 6.56038,-13.972246 4.1195,-21.043517 z m -18.75671,-2.424667 c 0,-0.129748 0.0568,-0.235168 0.12975,-0.308152 0.0973,-0.170294 0.23517,-0.316261 0.33248,-0.518992 0.20273,-0.413572 0.35681,-0.851472 0.55954,-1.265044 0.41357,-0.827144 1.11907,-1.556977 1.84891,-2.116515 1.5813,-1.20017 3.61672,-1.85702 5.60349,-1.74349 0.22706,0.01622 0.40546,0.129748 0.4379,0.373026 0.14597,1.200169 -0.21895,2.376011 -1.0542,3.25992 a 6.4663199,6.4663199 0 0 1 -1.43534,1.135296 c -0.2595,0.145966 -0.51899,0.291933 -0.7866,0.413572 -0.22706,0.10542 -0.50277,0.178403 -0.7055,0.316261 a 7.8521916,7.8521916 0 0 1 -2.42467,1.046094 c -0.58387,0.137857 -1.41101,0.283824 -1.83269,-0.202732 -0.22706,0.210841 -0.68118,0.145967 -0.68118,-0.243277 v -0.145967 z m 13.28296,4.427653 c -0.0243,0.170295 -0.12975,0.267606 -0.25139,0.308152 -0.0811,0.11353 -0.21084,0.194622 -0.38113,0.178404 -1.55698,-0.11353 -3.02475,1.029875 -2.92744,2.651726 0.008,0.178404 -0.0973,0.356807 -0.26761,0.413572 -0.55954,0.194622 -1.11908,0.502774 -1.50832,0.956892 -0.30815,0.356807 -0.6974,1.013657 -0.46223,1.500212 0.0892,0.178404 0.22706,0.33248 0.32437,0.502774 0.13786,0.251387 0.13786,0.462228 0.11353,0.746052 -0.0486,0.664958 -0.1784,1.354245 0.38925,1.8408 0.4379,0.373026 0.93256,0.648741 1.28937,1.119078 0.15407,0.194622 0.25949,0.405462 0.37302,0.624412 0.10542,0.21895 0.27572,0.405463 0.37303,0.624413 0.1784,0.405463 0.51899,0.76227 0.85958,1.037985 0.19462,0.154075 0.68929,0.567647 0.965,0.381135 0.36492,-0.235169 0.73794,0.186512 0.6082,0.494664 0.1784,0.0892 0.29193,0.283824 0.14596,0.502774 -0.91634,1.427229 -1.97866,2.878785 -3.55996,3.608618 -0.83525,0.381135 -1.68673,0.478446 -2.59496,0.518993 -1.15152,0.05676 -2.31114,-0.0081 -3.46265,-0.11353 -1.2245,-0.113529 -2.44089,-0.275715 -3.66539,-0.364916 -0.89201,-0.06487 -1.75971,-0.121639 -2.61929,-0.381135 -1.52454,-0.462228 -2.88689,-1.30559 -3.95731,-2.481432 -2.22194,-2.448995 -3.34912,-5.765681 -3.93299,-8.968836 -0.50278,-2.740929 -0.70551,-6.446858 1.79214,-8.336315 0.6974,-0.527101 1.56509,-0.900127 2.44089,-0.981219 1.12719,-0.105421 2.21383,0.186512 3.27614,0.518992 1.07042,0.340589 2.23004,0.778488 3.37345,0.778488 1.10286,0 2.11651,-0.373025 3.12206,-0.786597 1.01366,-0.413572 2.04353,-0.867691 3.13017,-1.062313 1.02988,-0.178403 2.07597,-0.113529 3.0653,0.21895 a 7.3567161,7.3567161 0 0 1 2.72471,1.654288 c 0.63252,0.608194 1.36236,1.338027 1.2245,2.294919 z"
         id="path1"
         style="stroke-width:0.0810926" /><path
         fill="#d6e5e5"
         d="m 158.46965,50.761334 c -0.32437,-0.470336 -0.51899,-1.037984 -0.86769,-1.492103 -0.40546,-0.518992 -1.00554,-0.786597 -1.43533,-1.273153 -0.58387,-0.656849 -0.51089,-1.419119 -0.44601,-2.238154 0.0243,-0.348698 -0.12164,-0.446009 -0.28383,-0.729833 -0.14596,-0.251387 -0.21895,-0.502774 -0.21895,-0.802816 0,-1.346136 1.1353,-2.343575 2.29492,-2.83013 0.0487,-1.913784 1.72727,-3.211265 3.58429,-3.211265 -0.0405,-0.567648 -0.67307,-1.070422 -1.03798,-1.427229 -0.55954,-0.551429 -1.28126,-0.997438 -2.00299,-1.289372 -1.53265,-0.624412 -3.04097,-0.437899 -4.5574,0.11353 -1.44345,0.527102 -2.86257,1.321809 -4.41954,1.402901 -1.61375,0.0892 -3.11396,-0.54332 -4.6385,-0.97311 -1.09475,-0.308152 -2.23815,-0.502774 -3.34101,-0.08109 -0.68118,0.267605 -1.30559,0.681177 -1.75971,1.265044 -0.89202,1.143405 -1.11908,2.667945 -1.09475,4.078955 0.0243,1.516431 0.29193,3.016643 0.66496,4.476309 0.41357,1.638069 0.98933,3.25992 1.82458,4.735805 0.82715,1.451556 1.9219,2.805802 3.38156,3.657274 0.74605,0.42979 1.55698,0.746051 2.40845,0.908236 1.07042,0.210841 2.16517,0.210841 3.2437,0.32437 1.28937,0.137858 2.58686,0.300043 3.88434,0.348698 1.06231,0.04055 2.24626,0.09731 3.27614,-0.194622 1.69483,-0.494664 2.8058,-1.857019 3.73836,-3.276139 -0.85147,0.02433 -1.77593,-0.883909 -2.19761,-1.492103 z m -6.34954,-20.35423 c -0.64874,0.478446 -1.35425,1.110968 -1.71916,1.84891 -0.24328,0.478447 -0.41358,1.005548 -0.67307,1.483994 0.0568,0.04055 0.11353,0.10542 0.14596,0.186513 0.0405,0.09731 0.35681,0.0892 0.519,0.07298 0.38924,-0.04866 0.76227,-0.154076 1.12718,-0.291933 0.36492,-0.129748 0.72984,-0.283824 1.07853,-0.462227 0.25139,-0.129749 0.48656,-0.308152 0.75416,-0.421682 1.72728,-0.689286 3.414,-1.913784 3.38156,-3.884333 -1.63807,-0.0081 -3.29235,0.502774 -4.61416,1.467775 z"
         id="path2-3"
         style="stroke-width:0.0810926" /><path
         d="m 168.46026,37.081021 c -1.15152,-3.80324 -3.31669,-7.160472 -6.64959,-9.382408 -3.75459,-2.513869 -8.53905,-3.122063 -12.95859,-2.797693 -4.19249,0.308152 -8.48228,1.451557 -12.05036,3.730257 -1.75159,1.119078 -3.31668,2.586853 -4.46009,4.330343 -1.20827,1.840801 -1.82458,3.957316 -2.15706,6.114378 -0.18651,1.224497 -0.27571,2.457104 -0.3568,3.69782 -0.008,0.07298 0.008,0.145967 0.0324,0.210841 -0.073,0.07298 -0.12164,0.178403 -0.12164,0.308152 0,2.440885 -0.0487,4.89799 0.37303,7.314548 0.38924,2.197608 1.23261,4.289795 2.56252,6.09005 2.36791,3.203156 5.96031,5.133158 9.76355,6.081941 7.20912,1.800255 15.74817,0.300043 21.44898,-4.630384 6.00895,-5.198033 6.75501,-13.858717 4.57362,-21.067845 z M 163.2379,57.55689 c -5.74136,4.89799 -14.34528,6.163034 -21.48142,4.119502 -3.46265,-0.98933 -6.64148,-2.967988 -8.69312,-5.976521 -2.52198,-3.697821 -2.44089,-8.190348 -2.44089,-12.480144 0,-0.02433 0,-0.04055 -0.008,-0.06487 0.0405,-0.05677 0.073,-0.129748 0.0811,-0.21895 0.13785,-2.189499 0.33247,-4.387107 0.98122,-6.495513 0.64063,-2.100297 1.87323,-3.91677 3.46265,-5.416982 3.02475,-2.854458 7.28211,-4.314124 11.32052,-4.954755 4.50063,-0.713615 9.36619,-0.518992 13.4938,1.565086 3.61673,1.824582 6.09005,5.11694 7.40375,8.887744 2.44088,7.063161 1.88945,15.902249 -4.1195,21.035407 z"
         id="path3-2"
         style="stroke-width:0.0810926" /><path
         d="m 160.65915,36.22144 a 7.3567161,7.3567161 0 0 0 -2.72471,-1.654288 c -0.98933,-0.332479 -2.03542,-0.405463 -3.0653,-0.21895 -1.08664,0.194622 -2.11651,0.648741 -3.13017,1.062313 -1.00555,0.413572 -2.0192,0.786597 -3.12206,0.786597 -1.14341,0 -2.30303,-0.42979 -3.37345,-0.778488 -1.06231,-0.340589 -2.14895,-0.624413 -3.27614,-0.518992 -0.8758,0.08109 -1.74349,0.454118 -2.44089,0.981219 -2.49765,1.889457 -2.29492,5.587277 -1.79214,8.336315 0.58387,3.203155 1.71105,6.519841 3.93299,8.968836 1.07042,1.183951 2.44088,2.027313 3.95731,2.481432 0.85958,0.259496 1.72728,0.316261 2.61929,0.381135 1.2245,0.0892 2.44089,0.251387 3.66539,0.364916 1.15151,0.10542 2.30302,0.170294 3.46265,0.11353 0.90823,-0.04866 1.75971,-0.137858 2.59496,-0.518993 1.58941,-0.721723 2.64362,-2.181389 3.55996,-3.608618 0.13786,-0.21895 0.0324,-0.413572 -0.14596,-0.502774 0.12974,-0.316261 -0.24328,-0.737942 -0.6082,-0.494664 -0.27571,0.178403 -0.76227,-0.22706 -0.965,-0.381135 -0.34059,-0.267606 -0.68929,-0.632522 -0.85958,-1.037985 -0.0973,-0.21895 -0.26761,-0.405463 -0.37303,-0.624413 -0.10542,-0.21895 -0.21895,-0.42979 -0.37302,-0.624412 -0.35681,-0.470337 -0.85147,-0.737943 -1.28937,-1.119078 -0.56765,-0.486555 -0.44601,-1.167732 -0.38925,-1.8408 0.0243,-0.283824 0.0243,-0.494665 -0.11353,-0.746052 -0.0973,-0.178404 -0.24327,-0.32437 -0.32437,-0.502774 -0.23517,-0.486555 0.15408,-1.143405 0.46223,-1.500212 0.38924,-0.454118 0.94878,-0.76227 1.50832,-0.956892 a 0.40546275,0.40546275 0 0 0 0.26761,-0.413572 c -0.10542,-1.621851 1.37046,-2.765256 2.92744,-2.651726 0.17029,0.01622 0.30004,-0.06487 0.38113,-0.178404 0.12164,-0.03244 0.22706,-0.129748 0.25139,-0.308152 0.13786,-0.956892 -0.59198,-1.686725 -1.2245,-2.294919 z m -3.14639,5.181814 c -1.15962,0.486555 -2.29492,1.483994 -2.29492,2.83013 0,0.291933 0.0811,0.54332 0.21895,0.802816 0.16219,0.283824 0.30815,0.381135 0.28383,0.729833 -0.0568,0.819035 -0.13786,1.581305 0.44601,2.238155 0.42979,0.486555 1.03798,0.746051 1.43533,1.273153 0.3487,0.454118 0.54332,1.021766 0.86769,1.492103 0.41358,0.608194 1.33803,1.51643 2.1895,1.483993 -0.93256,1.41912 -2.04353,2.781475 -3.73836,3.276139 -1.02988,0.300043 -2.22194,0.235169 -3.27614,0.194622 -1.29748,-0.04866 -2.58686,-0.21084 -3.88434,-0.348698 -1.07853,-0.113529 -2.18139,-0.121638 -3.2437,-0.32437 a 7.8092126,7.8092126 0 0 1 -2.40845,-0.908236 c -1.46777,-0.843363 -2.55441,-2.205718 -3.38156,-3.657274 -0.83525,-1.467775 -1.41101,-3.097736 -1.82458,-4.735805 -0.37302,-1.459666 -0.63252,-2.967988 -0.66496,-4.476309 -0.0243,-1.41101 0.20273,-2.94366 1.09475,-4.078955 0.45412,-0.583867 1.07042,-0.997439 1.75971,-1.265044 1.09475,-0.429791 2.23815,-0.227059 3.34101,0.08109 1.52454,0.42979 3.02476,1.062312 4.6385,0.97311 1.55697,-0.08109 2.97609,-0.883909 4.41954,-1.402901 1.52454,-0.551429 3.02475,-0.737942 4.5574,-0.11353 0.72984,0.300043 1.44345,0.746052 2.00299,1.289372 0.36491,0.356807 0.99744,0.859581 1.03798,1.427229 -1.84891,0.0081 -3.52752,1.30559 -3.57618,3.219374 z"
         id="path4-8"
         style="stroke-width:0.0810926" /><path
         d="m 157.51276,28.509539 c -0.0324,-0.243278 -0.21084,-0.356808 -0.4379,-0.373026 -1.98677,-0.11353 -4.02219,0.54332 -5.60349,1.74349 -0.72984,0.559538 -1.43534,1.289371 -1.84891,2.116515 -0.20273,0.413572 -0.35681,0.851472 -0.55954,1.265044 -0.0973,0.202731 -0.23517,0.348698 -0.33248,0.518992 -0.0811,0.07298 -0.12975,0.178404 -0.12975,0.308152 v 0.145967 c 0,0.389244 0.45412,0.454118 0.68118,0.243277 0.42168,0.478446 1.25693,0.340589 1.83269,0.202732 0.83525,-0.202732 1.70294,-0.567648 2.42467,-1.046094 0.21084,-0.137858 0.47844,-0.210841 0.7055,-0.316261 0.26761,-0.121639 0.5271,-0.267606 0.7866,-0.413572 0.5271,-0.308152 1.01366,-0.689287 1.43534,-1.135296 0.82714,-0.883909 1.19206,-2.059751 1.04609,-3.25992 z m -4.16005,4.314123 c -0.2676,0.105421 -0.50277,0.283824 -0.75416,0.421682 -0.34869,0.178403 -0.71361,0.32437 -1.07853,0.462227 -0.36491,0.129748 -0.73794,0.243278 -1.12718,0.291933 -0.16219,0.01622 -0.47845,0.03244 -0.519,-0.07298 -0.0324,-0.08109 -0.0811,-0.145967 -0.14596,-0.186513 0.25949,-0.470337 0.42979,-0.997438 0.67307,-1.483994 0.36491,-0.729832 1.07042,-1.370464 1.71916,-1.84891 1.32181,-0.965001 2.97609,-1.483993 4.60605,-1.475884 0.0405,1.978658 -1.65428,3.195046 -3.37345,3.892442 z"
         id="path5-2"
         style="stroke-width:0.0810926" /></g><g
       id="g11"
       transform="matrix(0.09391964,0,0,0.09487961,17.756351,22.199178)"
       inkscape:label="android"><path
         fill="#d6e5e5"
         d="m 332.6,344.9 c -0.8,-2.7 0.4,-5.3 3.1,-6.4 6.2,-2.5 12.6,-5.2 19.3,-6 -0.1,-0.3 -0.1,-0.6 -0.2,-0.9 -1.4,-15.7 -2.9,-31.3 -4.2,-47 -0.9,-11 -1.4,-22.1 -3,-33.1 -1.6,-11.1 -3.5,-22.2 -4.2,-33.5 -0.2,-3.6 -0.7,-8.1 -0.1,-12.3 -15.2,0 -30.4,-0.1 -45.6,0.4 -17.2,0.6 -34.4,1.6 -51.7,2.2 -18,0.6 -36,0.4 -54.1,0.4 -5.8,0 -11.5,0.2 -17.2,-0.4 -0.9,-0.1 -1.8,-0.1 -2.8,-0.2 -0.1,0.1 -0.2,0.3 -0.3,0.4 -0.8,0.9 -0.4,5.6 -0.3,7.4 0.3,3.9 0.8,7.8 1.4,11.7 1.3,9 2.2,17.9 2.3,27.1 0.1,13.8 -1.2,27.7 -0.5,41.5 0.6,11.1 2.1,22.1 2.7,33.2 0.1,0.4 0.2,0.9 0.2,1.4 v 1.4 h 14.1 c 3.5,0 5.6,2.6 5.3,5.9 -1.1,11.6 2.6,23.4 4.7,34.8 1.6,8.6 1.7,17.4 3.8,25.9 1.7,7 4.4,16 11.2,19.7 3.9,2.1 9.7,3.9 13,0.2 7.9,-8.7 7.4,-24.8 7.2,-35.7 -0.2,-11.1 -1.1,-22.3 -2.9,-33.2 -1.1,-1.4 -1.8,-2.8 -1.8,-4.8 0,-1.5 0.5,-2.7 1.2,-3.5 0.4,-1.8 1.8,-3.4 4.3,-3.4 h 20.2 c 12.3,0 24.9,-3.1 37.2,-1.4 0.2,0 0.4,0.1 0.6,0.1 2.3,0.1 4.5,1.5 4.9,4.4 2.5,18.9 -1.2,39.3 5.7,57.5 2.8,7.4 7.9,13.4 15.5,16.1 4,1.4 6.3,0.6 8.7,-2.7 6.5,-9.1 6.2,-24.6 5.9,-35.5 -0.3,-10.3 -1,-22.6 -3.6,-31.7 z m 6.1,-193 c -4.7,-7.7 -10.4,-15.4 -17.2,-21.4 -1,-0.9 -2.1,-1.8 -3.1,-2.6 -2.3,0.3 -4.3,-1.4 -5.1,-3.6 -12.5,-8 -27.2,-11.3 -42.3,-11.1 -20,0.3 -41.3,3.7 -59.6,12 -9.5,4.3 -18.7,10.3 -23.8,19.6 -4.5,8.3 -7.5,17.3 -12.2,25.4 56.8,0.2 113.6,2.9 170.5,3 0.7,-7.3 -3.7,-15.6 -7.2,-21.3 z m -101.4,-9.8 c 0.2,4.9 -5.2,9.1 -9.8,9.8 -4.6,0.7 -10.6,-1.8 -12.9,-6 -1.1,-2.1 -1.5,-4.1 -1.2,-5.9 0,-0.1 0,-0.2 0,-0.3 v -4.5 c 0,-3 1.8,-4.8 4.6,-5.4 2.1,-0.4 4.6,-0.5 6.9,-0.1 6.5,-1.4 13.1,1 13.4,9.2 0,1.3 -0.4,2.4 -1,3.2 z m 68.5,0 c 0.2,4.9 -5.2,9.1 -9.8,9.8 -4.6,0.7 -10.6,-1.8 -12.9,-6 -1.1,-2.1 -1.5,-4.1 -1.2,-5.9 0,-0.1 0,-0.2 0,-0.3 v -4.5 c 0,-3 1.8,-4.8 4.6,-5.4 2.1,-0.4 4.6,-0.5 6.9,-0.1 6.5,-1.4 13.1,1 13.4,9.2 0,1.3 -0.4,2.4 -1,3.2 z m 94,157.5 c -0.1,-15.1 -1.3,-30.2 -3.1,-45.3 -0.9,-7.8 -1.9,-15.5 -2.9,-23.3 -0.6,-5 -0.4,-10 -0.9,-15 -0.5,-5.7 -1.6,-11 -6.4,-14.6 -5.6,-4.1 -11.2,-2.4 -15.4,2.5 -0.5,0.5 -1,0.9 -1.5,1.2 -0.1,0.1 -0.2,0.2 -0.3,0.4 -1,7.3 0.9,15.5 1.8,22.7 1.3,9.8 1.8,19.5 2.5,29.3 1.2,15.4 2.2,31 4.7,46.2 0.9,5.7 4.4,17.7 12.4,16.4 8.3,-1.3 9.2,-14.2 9.1,-20.5 z M 145.3,285.5 c -0.8,-11 0.2,-21.8 0.5,-32.8 0.3,-15.6 0,-31.1 -0.9,-46.7 -0.1,-0.1 -0.2,-0.3 -0.4,-0.4 -0.6,-0.1 -1.1,-0.2 -1.7,-0.4 -1.9,-0.4 -3.9,-0.9 -5.8,-0.9 -7.9,0.1 -14.6,4.7 -18.2,11.7 -6.8,13.3 -4.8,30 -2.6,44.2 1.4,8.7 4,17.4 4.4,26.2 0.3,8 0.5,16 1.3,24 0.8,7.1 1.7,15.9 6.3,21.8 3.4,4.3 9.7,3.7 13,-0.5 4.4,-5.6 5,-14.2 5.2,-21 0.2,-8.4 -0.4,-16.8 -1.1,-25.2 z"
         id="path1-3" /><path
         fill="#cbdb2d"
         d="M 474.2,161.7 C 458.1,115.1 427.5,74.6 382.9,52.1 332,26.4 271.9,24 216.5,32.8 c -49.8,8 -102.3,26 -139.6,61.2 -19.6,18.5 -34.7,40.9 -42.7,66.8 -8,26 -10.4,53.1 -12.1,80.1 -0.1,1.1 -0.4,2 -1,2.7 0,0.2 0.1,0.5 0.1,0.8 0,52.9 -1.1,108.3 30.1,153.9 25.3,37.1 64.5,61.5 107.2,73.7 88,25.2 194.2,9.6 264.9,-50.8 74.1,-63.3 80.9,-172.3 50.8,-259.5 z M 149.7,337.2 c -4.2,5.8 -11.8,9.3 -18.9,7.8 -7.3,-1.5 -12,-7.4 -14.5,-14.1 -5.8,-15 -4.5,-31.4 -5.8,-47.1 -0.8,-9.9 -4,-19.7 -5.1,-29.7 -1.2,-10.9 -1.9,-22.8 1.1,-33.5 2.9,-10.1 9.2,-20.3 19.4,-24.3 5.5,-2.2 11.6,-2.6 17.4,-1.2 2.2,0.5 4,0.8 5.6,1.5 3,-1.6 7.4,-0.6 7.4,3.7 v 3 c 0,1.3 -0.5,2.7 -1.3,3.7 0.9,15.6 1.2,31.2 0.7,46.9 -0.3,11 -1.1,21.7 -0.3,32.6 1.3,15.8 4.2,36.9 -5.7,50.7 z m 15.1,-168.7 c 6.7,-10.4 9.7,-22.9 17,-33 5.2,-7.2 12.4,-12.6 20.3,-16.8 -5,-7 -8.8,-14.9 -12,-22.8 -2.4,-6 7,-9.3 9.4,-3.3 3.1,7.5 6.6,14.8 11.4,21.4 0.1,0.2 0.2,0.4 0.4,0.5 20.5,-8.2 44,-12.1 66,-11.1 14.7,0.7 29.1,4.6 41.3,12.3 9.9,-8.4 17.7,-18.9 25.5,-29.3 3.9,-5.2 11.4,1.5 7.5,6.6 -7.6,10.2 -15.4,20.2 -24.8,28.7 2.3,2 4.5,4.1 6.5,6.4 11.7,13.2 28.9,35.1 20.5,53.8 -1.6,3.6 -5.6,3.3 -7.8,1.3 -58.8,-0.1 -117.5,-3 -176.3,-3 -4.1,0 -5.9,-4.2 -5,-7.1 -0.8,-1.2 -1,-2.9 0.1,-4.6 z m 197.9,166.7 c 1.2,2.9 0,6.8 -4,7 -5.4,0.2 -10.5,2 -15.5,4 0.3,1.4 0.5,2.9 0.8,4.3 2.2,13.8 2.9,28 1.6,41.9 -0.9,10.9 -3.2,27.1 -14.9,31.9 -14.5,5.9 -29.9,-10 -34.2,-22.3 -6.3,-18 -3.9,-37.1 -5.7,-55.7 -7,-0.5 -14.1,1.1 -21.1,1.5 -4.1,0.3 -8.2,0.2 -12.3,0.2 h -14 c 0,0.2 0.1,0.4 0.1,0.6 0.2,1.2 0.4,2.4 0.6,3.6 0.4,3.1 0.8,6.2 1.2,9.4 0.8,8.2 1.4,16.4 1.3,24.7 -0.2,12.9 -0.4,33.2 -12.5,41.4 -6.2,4.2 -14.7,3.7 -21.1,0.2 -8.6,-4.7 -13.7,-13.2 -16.3,-22.4 -2.8,-10 -3,-20.3 -4.9,-30.4 -2,-11 -4.9,-21.9 -5,-33.1 h -11 c -1.7,0 -2.9,-0.7 -3.8,-1.6 -2.3,0 -4.5,-1.4 -4.6,-4.5 -0.1,-15.1 -3.1,-29.9 -3,-45 0.1,-14.5 1.2,-29.1 0.4,-43.6 -0.5,-8.5 -1.8,-16.7 -2.9,-25.1 -0.7,-5.8 -2.1,-13.7 1.2,-19.1 -0.4,-1.5 -0.1,-3.2 1.1,-4.3 1.4,-1.3 2.9,-1.8 4.8,-1.8 1.1,0 2,0.2 2.7,0.7 0.5,0.1 1,0.1 1.5,0.2 1.9,0.2 3.9,0.4 5.8,0.6 0.3,0 0.5,0 0.7,0.1 0.3,0 0.8,0 1.8,0 H 199 c 16.7,0 33.4,0.1 50,-0.5 31.7,-1.2 63.3,-2.4 95.1,-2.5 0.1,0 0.2,0 0.3,0 h 3.1 c 0.6,0 1.1,0.1 1.6,0.2 5.7,-2.8 8.9,6.6 3.3,9.5 2.3,-1.1 1.3,-1.6 0.9,0.8 -0.2,1.5 -0.3,3 -0.3,4.5 0,4.9 0.5,9.9 1,14.8 1.1,10.1 2.8,20 4.1,30.1 1.5,11.4 1.9,23 2.9,34.5 1.2,13.6 2.5,27.1 3.7,40.7 0.3,2.2 -0.7,3.7 -2,4.5 z M 406.9,317 c -2.8,6.6 -9,13.5 -16.9,13.3 -8.5,-0.3 -14.7,-5.8 -18.2,-13.2 -2.6,-5.6 -3.5,-11.7 -4.3,-17.8 -0.9,-7.4 -1.7,-14.8 -2.4,-22.2 -1.2,-13.1 -1.7,-26.4 -3,-39.5 -0.8,-8 -2.2,-16 -2.8,-24 -0.3,-4.9 -1.2,-13 3.8,-15.5 0.1,-0.2 0.3,-0.4 0.4,-0.5 9.3,-10.8 25.6,-11.1 34.1,1.1 7.1,10.2 5.1,23.7 6.6,35.4 1.9,14.7 3.8,29.5 4.8,44.3 0.8,12.3 3,26.9 -2.1,38.6 z"
         id="path2-1" /><path
         d="M 487.8,168.7 C 473.6,121.8 446.9,80.4 405.8,53 359.5,22 300.5,14.5 246,18.5 c -51.7,3.8 -104.6,17.9 -148.6,46 -21.6,13.8 -40.9,31.9 -55,53.4 -14.9,22.7 -22.5,48.8 -26.6,75.4 -2.3,15.1 -3.4,30.3 -4.4,45.6 -0.1,0.9 0.1,1.8 0.4,2.6 -0.9,0.9 -1.5,2.2 -1.5,3.8 0,30.1 -0.6,60.4 4.6,90.2 4.8,27.1 15.2,52.9 31.6,75.1 29.2,39.5 73.5,63.3 120.4,75 88.9,22.2 194.2,3.7 264.5,-57.1 74.1,-64.1 83.3,-170.9 56.4,-259.8 z M 423.4,421.2 C 352.6,481.6 246.5,497.2 158.5,472 115.8,459.8 76.6,435.4 51.3,398.3 20.2,352.7 21.2,297.3 21.2,244.4 c 0,-0.3 0,-0.5 -0.1,-0.8 0.5,-0.7 0.9,-1.6 1,-2.7 1.7,-27 4.1,-54.1 12.1,-80.1 C 42.1,134.9 57.3,112.5 76.9,94 114.2,58.8 166.7,40.8 216.5,32.9 272,24.1 332,26.5 382.9,52.2 c 44.6,22.5 75.1,63.1 91.3,109.6 30.1,87.1 23.3,196.1 -50.8,259.4 z"
         id="path3-0" /><path
         fill="#010101"
         d="m 333.3,128.2 c -2,-2.3 -4.2,-4.4 -6.5,-6.4 9.4,-8.5 17.2,-18.5 24.8,-28.7 3.9,-5.1 -3.6,-11.8 -7.5,-6.6 -7.8,10.4 -15.6,20.8 -25.5,29.3 -12.2,-7.7 -26.6,-11.6 -41.3,-12.3 -22,-1 -45.5,2.9 -66,11.1 -0.1,-0.2 -0.2,-0.4 -0.4,-0.5 -4.8,-6.6 -8.4,-13.9 -11.4,-21.4 -2.4,-5.9 -11.9,-2.7 -9.4,3.3 3.2,7.9 7,15.8 12,22.8 -7.9,4.1 -15.1,9.6 -20.3,16.8 -7.3,10.1 -10.2,22.6 -17,33 -1.1,1.7 -1,3.4 -0.1,4.6 -1,2.9 0.8,7.1 5,7.1 58.8,0 117.5,2.9 176.3,3 2.2,2.1 6.2,2.3 7.8,-1.3 8.4,-18.8 -8.9,-40.6 -20.5,-53.8 z m 12.6,45 c -56.8,-0.1 -113.7,-2.7 -170.5,-3 4.7,-8.2 7.6,-17.2 12.2,-25.4 5.1,-9.3 14.4,-15.3 23.8,-19.6 18.3,-8.3 39.6,-11.8 59.6,-12 15.1,-0.2 29.8,3.1 42.3,11.1 0.7,2.2 2.8,3.9 5.1,3.6 1.1,0.8 2.1,1.7 3.1,2.6 6.7,6 12.4,13.8 17.2,21.4 3.5,5.7 7.9,14 7.2,21.3 z"
         id="path4-5" /><path
         fill="#010101"
         d="m 224.9,129.6 c -2.3,-0.4 -4.8,-0.3 -6.9,0.1 -2.8,0.5 -4.6,2.4 -4.6,5.4 v 4.5 c 0,0.1 0,0.2 0,0.3 -0.3,1.9 0.1,3.9 1.2,5.9 2.3,4.3 8.3,6.7 12.9,6 4.6,-0.7 10,-4.9 9.8,-9.8 0.7,-0.8 1.1,-1.9 1,-3.3 -0.3,-8.1 -7,-10.4 -13.4,-9.1 z m 68.5,0 c -2.3,-0.4 -4.8,-0.3 -6.9,0.1 -2.8,0.5 -4.6,2.4 -4.6,5.4 v 4.5 c 0,0.1 0,0.2 0,0.3 -0.3,1.9 0.1,3.9 1.2,5.9 2.3,4.3 8.3,6.7 12.9,6 4.6,-0.7 10,-4.9 9.8,-9.8 0.7,-0.8 1.1,-1.9 1,-3.3 -0.3,-8.1 -7,-10.4 -13.4,-9.1 z m 71.4,201.2 c -1.2,-13.6 -2.5,-27.1 -3.7,-40.7 -1,-11.5 -1.4,-23.1 -2.9,-34.5 -1.3,-10 -3,-20 -4.1,-30.1 -0.6,-4.9 -1,-9.8 -1,-14.8 0,-1.5 0.1,-3 0.3,-4.5 0.3,-2.4 1.4,-1.9 -0.9,-0.8 5.7,-2.8 2.5,-12.2 -3.3,-9.5 -0.5,-0.2 -1,-0.2 -1.6,-0.2 h -3.1 c -0.1,0 -0.2,0 -0.3,0 -31.8,0.1 -63.3,1.3 -95.1,2.5 -16.7,0.6 -33.3,0.5 -50,0.5 h -17.6 c -1,0 -1.5,0 -1.8,0 -0.1,0 -0.4,0 -0.7,-0.1 -1.9,-0.2 -3.9,-0.4 -5.8,-0.6 -0.5,-0.1 -1,-0.1 -1.5,-0.2 -0.7,-0.4 -1.6,-0.7 -2.7,-0.7 -1.9,0 -3.3,0.5 -4.8,1.8 -1.2,1.2 -1.5,2.8 -1.1,4.3 -3.2,5.4 -1.9,13.3 -1.2,19.1 1,8.4 2.4,16.6 2.9,25.1 0.8,14.5 -0.4,29.1 -0.4,43.6 -0.1,15.1 2.9,29.9 3,45 0,3 2.2,4.5 4.6,4.5 0.9,1 2.2,1.6 3.8,1.6 h 11 c 0.1,11.2 3,22.1 5,33.1 1.9,10.1 2.1,20.4 4.9,30.4 2.6,9.2 7.7,17.7 16.3,22.4 6.5,3.5 14.9,4.1 21.1,-0.2 12.1,-8.2 12.4,-28.5 12.5,-41.4 0.1,-8.2 -0.4,-16.5 -1.3,-24.7 -0.3,-3.1 -0.7,-6.3 -1.2,-9.4 -0.2,-1.2 -0.4,-2.4 -0.6,-3.6 0,-0.2 -0.1,-0.4 -0.1,-0.6 h 14 c 4.1,0 8.2,0 12.3,-0.2 7,-0.5 14,-2.1 21.1,-1.5 1.8,18.6 -0.6,37.7 5.7,55.7 4.3,12.3 19.6,28.2 34.2,22.3 11.7,-4.8 13.9,-21 14.9,-31.9 1.2,-13.9 0.5,-28.1 -1.6,-41.9 -0.2,-1.4 -0.5,-2.9 -0.8,-4.3 5,-2 10.2,-3.8 15.5,-4 4,-0.1 5.2,-4.1 4,-7 1.3,-0.9 2.3,-2.4 2.1,-4.5 z m -29.2,7.7 c -2.6,1.1 -3.9,3.7 -3.1,6.4 2.7,9.1 3.3,21.4 3.5,31.9 0.2,10.9 0.6,26.5 -5.9,35.5 -2.3,3.2 -4.7,4.1 -8.7,2.7 -7.6,-2.7 -12.7,-8.7 -15.5,-16.1 -6.9,-18.2 -3.1,-38.6 -5.7,-57.5 -0.4,-2.9 -2.7,-4.3 -4.9,-4.4 -0.2,0 -0.4,-0.1 -0.6,-0.1 -12.3,-1.7 -24.8,1.4 -37.2,1.4 h -20.2 c -2.5,0 -3.9,1.5 -4.3,3.4 -0.8,0.9 -1.3,2 -1.2,3.5 0.1,2 0.7,3.4 1.8,4.8 1.9,11 2.8,22.1 2.9,33.2 0.2,10.9 0.7,27 -7.2,35.7 -3.4,3.7 -9.1,1.9 -13,-0.2 -6.8,-3.7 -9.5,-12.7 -11.2,-19.7 -2,-8.5 -2.2,-17.4 -3.8,-25.9 -2.1,-11.3 -5.7,-23.1 -4.7,-34.8 0.3,-3.4 -1.8,-5.9 -5.3,-5.9 H 177.2 V 331 c 0,-0.5 -0.1,-1 -0.2,-1.4 -0.5,-11.1 -2.1,-22.1 -2.7,-33.2 -0.7,-13.8 0.6,-27.7 0.5,-41.5 -0.1,-9.1 -0.9,-18.1 -2.3,-27.1 -0.6,-3.9 -1.1,-7.8 -1.4,-11.7 -0.1,-1.9 -0.5,-6.5 0.3,-7.4 0.1,-0.1 0.2,-0.3 0.3,-0.4 1,0.1 2,0.1 2.8,0.2 5.7,0.6 11.5,0.4 17.2,0.4 18,0 36.1,0.2 54.1,-0.4 17.2,-0.5 34.4,-1.6 51.7,-2.2 15.2,-0.5 30.4,-0.5 45.6,-0.4 -0.6,4.2 -0.1,8.8 0.1,12.3 0.7,11.2 2.6,22.3 4.2,33.5 1.6,11 2.1,22.1 3,33.1 1.3,15.7 2.8,31.3 4.2,47 0,0.3 0.1,0.6 0.2,0.9 -6.5,0.6 -12.9,3.3 -19.2,5.8 z M 409,278.3 c -1,-14.8 -2.9,-29.6 -4.8,-44.3 -1.5,-11.7 0.5,-25.2 -6.6,-35.4 -8.5,-12.3 -24.9,-11.9 -34.1,-1.1 -0.2,0.2 -0.3,0.4 -0.4,0.5 -5,2.6 -4.1,10.6 -3.8,15.5 0.6,8.1 2,16 2.8,24 1.4,13.1 1.8,26.3 3,39.5 0.7,7.4 1.5,14.8 2.4,22.2 0.8,6.1 1.7,12.2 4.3,17.8 3.5,7.5 9.7,13 18.2,13.2 7.9,0.3 14.1,-6.6 16.9,-13.3 5.1,-11.6 2.9,-26.2 2.1,-38.6 z m -18.3,41.9 c -8.1,1.4 -11.5,-10.7 -12.4,-16.4 -2.5,-15.2 -3.5,-30.8 -4.7,-46.2 -0.7,-9.8 -1.3,-19.6 -2.5,-29.3 -0.9,-7.2 -2.8,-15.4 -1.8,-22.7 0.1,-0.1 0.2,-0.2 0.3,-0.4 0.5,-0.3 1,-0.7 1.5,-1.2 4.3,-5 9.9,-6.6 15.4,-2.5 4.8,3.6 5.9,8.9 6.4,14.6 0.4,5 0.2,10 0.9,15 1,7.8 2,15.5 2.9,23.3 1.8,15 3,30.1 3.1,45.3 0.1,6.2 -0.8,19.1 -9.1,20.5 z M 155.5,286.6 c -0.8,-10.9 0,-21.7 0.3,-32.6 0.4,-15.6 0.1,-31.3 -0.7,-46.9 0.8,-1 1.3,-2.4 1.3,-3.7 v -3 c 0,-4.3 -4.4,-5.4 -7.4,-3.7 -1.6,-0.7 -3.5,-1 -5.6,-1.5 -5.8,-1.3 -11.9,-0.9 -17.4,1.2 -10.2,4 -16.5,14.3 -19.4,24.3 -3,10.7 -2.4,22.6 -1.1,33.5 1.1,9.9 4.3,19.8 5.1,29.7 1.3,15.7 0,32.1 5.8,47.1 2.6,6.7 7.2,12.5 14.5,14.1 7.2,1.5 14.8,-2 18.9,-7.8 9.8,-13.9 6.9,-35 5.7,-50.7 z m -9.1,24.2 c -0.2,6.9 -0.8,15.4 -5.2,21 -3.3,4.2 -9.6,4.8 -13,0.5 -4.6,-5.9 -5.5,-14.6 -6.3,-21.8 -0.9,-8 -1,-16 -1.3,-24 -0.4,-8.8 -3,-17.5 -4.4,-26.2 -2.2,-14.2 -4.1,-30.9 2.6,-44.2 3.6,-7.1 10.2,-11.7 18.2,-11.7 1.9,0 3.9,0.5 5.8,0.9 0.6,0.2 1.1,0.3 1.7,0.4 0.1,0.1 0.2,0.3 0.4,0.4 0.9,15.5 1.2,31.1 0.9,46.7 -0.2,11 -1.3,21.8 -0.5,32.8 0.7,8.3 1.3,16.7 1.1,25.2 z"
         id="path5-29" /></g></g></svg>
