<?xml version="1.0" encoding="UTF-8" standalone="no"?>
<!-- Created with Inkscape (http://www.inkscape.org/) -->

<svg
   width="210mm"
   height="297mm"
   viewBox="0 0 210 297"
   version="1.1"
   id="svg1"
   xml:space="preserve"
   inkscape:version="1.3.2 (091e20e, 2023-11-25, custom)"
   sodipodi:docname="wolfy.svg"
   inkscape:export-filename="..\..\tmp\wolfy.svg"
   inkscape:export-xdpi="96"
   inkscape:export-ydpi="96"
   xmlns:inkscape="http://www.inkscape.org/namespaces/inkscape"
   xmlns:sodipodi="http://sodipodi.sourceforge.net/DTD/sodipodi-0.dtd"
   xmlns="http://www.w3.org/2000/svg"
   xmlns:svg="http://www.w3.org/2000/svg"><sodipodi:namedview
     id="namedview1"
     pagecolor="#ffffff"
     bordercolor="#000000"
     borderopacity="0.25"
     inkscape:showpageshadow="2"
     inkscape:pageopacity="0.0"
     inkscape:pagecheckerboard="0"
     inkscape:deskcolor="#d1d1d1"
     inkscape:document-units="mm"
     inkscape:zoom="1.4324566"
     inkscape:cx="465.63364"
     inkscape:cy="371.739"
     inkscape:window-width="2560"
     inkscape:window-height="1351"
     inkscape:window-x="-9"
     inkscape:window-y="-9"
     inkscape:window-maximized="1"
     inkscape:current-layer="layer1" /><defs
     id="defs1"><clipPath
       id="a"><path
         d="M148.09 173H651.9v454H148.09z"
         id="path1" /></clipPath><mask
       id="Mask"><rect
         fill="white"
         height="256"
         rx="0"
         ry="0"
         width="256"
         x="0"
         y="0"
         id="rect1" /><rect
         height="224"
         id="hole"
         rx="0"
         ry="0"
         width="224"
         x="16"
         y="16" /></mask></defs><g
     inkscape:label="Layer 1"
     inkscape:groupmode="layer"
     id="layer1"><g
       id="g1"
       transform="matrix(-0.07357268,0,0,0.07357268,60.462109,38.688901)"><path
         fill="currentColor"
         d="m 294.55,331.34 c 2.016,1.164 4.246,1.715 6.523,1.715 5.918,0 12.168,-3.719 15.832,-10.062 v -0.004 c 2.364,-4.098 3.344,-8.719 2.758,-13.008 -0.629,-4.598 -3.066,-8.438 -6.691,-10.523 -7.239,-4.18 -17.266,-0.438 -22.36,8.351 -5.066,8.793 -3.304,19.352 3.938,23.531 z M 248.52,307.8 c -5.078,-8.79 -15.102,-12.531 -22.34,-8.352 -3.629,2.09 -6.07,5.93 -6.7,10.531 -0.585,4.29 0.395,8.907 2.763,13.008 v 0.004 c 3.668,6.348 9.914,10.062 15.832,10.062 2.273,0 4.5,-0.55 6.511,-1.71 3.063,-1.766 5.297,-4.766 6.285,-8.458 1.282,-4.785 0.422,-10.285 -2.351,-15.086 z m -16.95,-57.25 a 3.98,3.98 0 0 0 3.426,-1.79 4.005,4.005 0 0 0 0.312,-3.85 c -0.23,-0.512 -5.734,-12.685 -12.852,-24.587 -10.785,-18.023 -19.19,-25.297 -26.457,-22.91 -7.058,2.325 -10.367,13.2 -10.414,34.223 -0.03,14.027 1.422,27.316 1.485,27.875 a 4,4 0 0 0 6.363,2.77 c 10.898,-8.11 23.695,-12.062 38.137,-11.73 z m 76,0 c 14.449,-0.336 27.238,3.617 38.137,11.727 a 3.994,3.994 0 0 0 3.98,0.457 3.994,3.994 0 0 0 2.38,-3.227 c 0.062,-0.558 1.515,-13.848 1.484,-27.875 -0.047,-21.023 -3.356,-31.895 -10.418,-34.223 -7.266,-2.394 -15.668,4.891 -26.45,22.914 -7.116,11.898 -12.624,24.07 -12.854,24.586 a 4.006,4.006 0 0 0 0.312,3.852 4.025,4.025 0 0 0 3.43,1.79 z"
         id="path2" /><g
         clip-path="url(#a)"
         id="g3"><path
           fill="currentColor"
           d="m 645.98,543.48 c -1.836,-7.047 -3.57,-13.703 -4.254,-19.195 -0.738,-5.894 -0.371,-16.875 0.05,-29.594 0.626,-18.879 1.34,-40.273 -1,-56.422 -3.46,-23.891 -21.737,-69.473 -68.311,-88.758 -29.93,-12.398 -70.914,-8.473 -100.84,-5.606 -12.992,1.247 -24.215,2.32 -31.297,1.762 -19.887,-1.57 -45.47,-12.199 -52.5,-15.262 -3.207,-16.934 -8.906,-33.62 -16.957,-49.637 -1.817,-3.61 -2.582,-7.57 -2.219,-11.465 2.902,-31.047 4.414,-84.57 -18.094,-94.176 -16.559,-7.082 -31.777,12.191 -46.492,30.832 -11.695,14.816 -23.789,30.133 -34.488,30.133 -10.707,0.004 -22.805,-15.316 -34.5,-30.129 -14.719,-18.64 -29.94,-37.914 -46.496,-30.836 -22.508,9.614 -21,63.13 -18.094,94.188 0.371,3.871 -0.394,7.832 -2.21,11.457 -15.653,31.098 -22.25,64.43 -19.618,99.066 a 3.987,3.987 0 0 0 1.938,3.13 4,4 0 0 0 3.675,0.222 l 16.066,-7.145 c -3.918,9.735 -4.503,20.637 -1.722,32.56 a 4,4 0 0 0 5.894,2.55 c 0.137,-0.078 13.973,-7.98 26.766,-7.98 10.426,0 20.281,7.324 23.121,9.628 0.457,1.543 0.89,2.88 1.34,4.114 6.106,16.828 21.027,36.582 43.027,37.05 0.016,0 0.031,0.005 0.043,0.005 h 0.047 c 0.047,0 0.09,0.004 0.137,0.007 h 0.078 c 0.168,0.004 0.34,0.012 0.504,0.012 0.168,0 0.336,-0.004 0.504,-0.012 h 0.063 c 0.034,0 0.065,-0.003 0.1,-0.003 h 0.068 c 2.233,-0.04 4.448,-0.29 6.628,-0.73 1.715,9.558 6.773,32.128 18.277,46.948 3.316,4.285 7.656,8.352 12.895,12.11 3.121,15.09 9.36,51.757 5.312,63.147 -2.972,8.367 -13.918,12.344 -20.188,13.973 -6.406,1.68 -10.883,7.5 -10.883,14.156 0,3.91 1.524,7.586 4.29,10.355 a 14.559,14.559 0 0 0 10.355,4.29 h 26.512 c 2.265,4.87 7.207,8.155 12.785,8.155 h 29.46 c 6.903,0 13.356,-2.714 18.18,-7.644 4.825,-4.93 7.399,-11.445 7.25,-18.344 -0.386,-17.48 -0.937,-48.953 -0.492,-69.82 8.028,-1.281 15.531,-3.188 22.812,-5.043 10.75,-2.735 20.906,-5.32 30.922,-5.32 5.809,0 12.094,0.46 18.68,1.324 6.012,13.227 19.371,45.262 18.383,55.617 -0.672,7.09 -9.988,11.449 -15.484,13.418 a 13.991,13.991 0 0 0 -6.812,5.222 14.222,14.222 0 0 0 -2.57,8.18 c 0,7.86 6.394,14.254 14.254,14.254 h 21.684 a 15.113,15.113 0 0 0 2.738,3.77 14.897,14.897 0 0 0 10.605,4.39 h 44.414 c 7.933,0 14.902,-5.633 16.566,-13.395 1.586,-7.406 3.191,-18.12 1.82,-27.105 -0.676,-4.394 -1.816,-8.777 -3.027,-13.418 -2.824,-10.832 -5.746,-22.03 -2.695,-34.043 0.265,-1.047 0.597,-2.136 0.972,-3.242 0.41,16.352 5.344,31.668 14.988,47.012 a 4,4 0 0 0 7.371,-1.84 c 0.368,-5.11 0.934,-9.82 1.7,-14.16 4.789,23.145 21.418,40.035 49.672,50.36 a 3.999,3.999 0 0 0 4.996,-2.066 c 6.21,-13.325 9.23,-25.657 9.23,-37.696 -0.008,-10.582 -3.02,-22.137 -5.93,-33.312 z M 233.26,414.19 a 70.988,70.988 0 0 1 -1.512,-4.758 c -0.789,-2.785 -1.507,-5.765 -2.27,-8.918 -3.417,-14.184 -7.671,-31.836 -22.522,-44.184 a 4.002,4.002 0 0 0 -5.633,0.52 3.998,3.998 0 0 0 0.52,5.633 c 12.418,10.328 16.316,25.246 19.555,38.64 -5.317,-3.011 -12.457,-5.937 -20.117,-5.937 -9.989,0 -20.055,3.863 -25.844,6.547 -1.805,-12.211 0.664,-22.664 7.488,-31.84 a 3.999,3.999 0 0 0 -4.832,-6.043 l -21.805,9.695 c -1.422,-31.129 5.004,-61.098 19.137,-89.18 2.492,-4.972 3.539,-10.44 3.023,-15.8 -3.496,-37.38 -1.844,-79.622 13.273,-86.079 10.938,-4.672 24.23,12.156 37.082,28.434 12.88,16.31 26.195,33.176 40.77,33.176 14.578,0 27.891,-16.867 40.766,-33.176 12.852,-16.277 26.137,-33.109 37.074,-28.434 15.117,6.453 16.77,48.695 13.273,86.078 -0.504,5.39 0.547,10.855 3.035,15.805 8.036,15.984 13.63,32.652 16.621,49.547 2.29,12.844 3.13,26.148 2.516,39.63 l -21.816,-9.696 a 4,4 0 0 0 -4.746,1.156 4,4 0 0 0 -0.082,4.887 c 6.832,9.168 9.305,19.625 7.5,31.836 -5.79,-2.684 -15.855,-6.547 -25.844,-6.547 -7.664,0 -14.801,2.926 -20.117,5.938 3.238,-13.395 7.133,-28.312 19.547,-38.641 a 3.997,3.997 0 0 0 0.515,-5.633 3.998,3.998 0 0 0 -5.632,-0.516 c -14.84,12.348 -19.094,30 -22.512,44.18 -0.762,3.156 -1.477,6.137 -2.266,8.914 a 71.886,71.886 0 0 1 -1.523,4.762 c -3.43,9.445 -10.227,20.5 -19.891,26.773 1.644,-3.91 2.98,-8.922 3.82,-15.328 a 12.47,12.47 0 0 0 -2.996,-9.824 12.524,12.524 0 0 0 -9.406,-4.254 h -15.676 a 12.51,12.51 0 0 0 -9.418,4.27 12.434,12.434 0 0 0 -2.985,9.812 c 0.836,6.39 2.164,11.395 3.797,15.3 -9.535,-6.179 -16.344,-17.026 -19.867,-26.745 z m 91.219,190.36 a 14.2,14.2 0 0 0 -2.14,5.672 h -25.34 a 6.595,6.595 0 0 1 -4.7,-1.95 6.601,6.601 0 0 1 -1.949,-4.698 c 0,-3.024 2.02,-5.66 4.902,-6.415 9.52,-2.472 21.711,-7.785 25.703,-19.035 4.438,-12.492 -0.578,-44.102 -3.558,-60.027 9.765,5.317 21.148,9.375 33.05,11.734 1.594,23.66 1.157,50.86 -2.863,57.051 -4.09,6.297 -12.34,10.5 -16.906,12.453 a 14.07,14.07 0 0 0 -6.199,5.215 z m 140.14,-0.586 c 0,-1.297 0.39,-2.543 1.14,-3.613 a 6.056,6.056 0 0 1 2.95,-2.262 c 8.894,-3.187 19.71,-9.277 20.746,-20.188 1.144,-12.004 -11.094,-41.602 -16.93,-54.898 5.844,1.09 10.336,2.211 12.52,2.79 3.594,6 7.453,12.022 11.199,17.858 9.515,14.816 19.355,30.137 19.355,37.676 0,8.309 -8.278,13.34 -15.223,16.098 -5.395,2.145 -9,7.09 -9.434,12.793 h -20.066 a 6.256,6.256 0 0 1 -6.258,-6.254 z m 172.33,3.734 C 605.926,595.284 592.16,574.44 594.894,544.078 a 4,4 0 0 0 -2.879,-4.204 4,4 0 0 0 -4.668,2.036 c -3.523,6.945 -6.031,15.25 -7.594,25.18 -7.875,-16.742 -9.719,-33.797 -5.855,-52.79 a 997.684,997.684 0 0 1 3.71,-6.605 c 6.188,-10.945 12.587,-22.266 15.579,-32.363 6.011,-20.262 2.28,-49.53 2.12,-50.766 a 3.991,3.991 0 0 0 -4.48,-3.445 4.001,4.001 0 0 0 -3.449,4.48 c 0.04,0.285 3.664,28.836 -1.855,47.457 -2.735,9.227 -8.907,20.145 -14.871,30.703 -1.368,2.422 -2.73,4.832 -4.055,7.223 -0.008,0.016 -0.012,0.031 -0.02,0.05 -4.687,8.458 -9.304,17.392 -11.344,25.415 -3.558,14.008 -0.23,26.77 2.707,38.03 1.157,4.438 2.25,8.626 2.864,12.61 1.187,7.785 -0.29,17.469 -1.735,24.219 -0.879,4.101 -4.558,7.078 -8.746,7.078 H 505.91 a 6.952,6.952 0 0 1 -4.949,-2.047 6.933,6.933 0 0 1 -1.809,-3.129 c -0.007,-0.023 -0.015,-0.039 -0.023,-0.062 a 6.983,6.983 0 0 1 -0.227,-1.762 c 0,-2.89 1.743,-5.45 4.434,-6.52 13.066,-5.191 20.266,-13.547 20.266,-23.53 0,-9.891 -9.559,-24.77 -20.625,-42 -4,-6.231 -8.14,-12.673 -11.891,-19.005 -6.012,-10.164 -9.805,-17.973 -11.93,-24.57 -8.898,-27.62 -6.816,-63.523 -6.793,-63.883 a 4,4 0 0 0 -3.746,-4.238 c -2.192,-0.125 -4.102,1.54 -4.238,3.742 -0.094,1.528 -2.207,37.746 7.164,66.828 1.691,5.246 4.308,11.113 8.054,18.06 a 193.302,193.302 0 0 0 -12.89,-2.34 c -7.876,-1.145 -15.368,-1.723 -22.278,-1.723 -11.02,0 -21.645,2.703 -32.895,5.566 -6.632,1.688 -13.457,3.414 -20.59,4.637 0.192,-4.469 0.442,-7.766 0.75,-9.84 2.594,-17.562 14.195,-39.68 14.312,-39.902 1.032,-1.953 0.286,-4.371 -1.668,-5.402 -1.954,-1.031 -4.37,-0.285 -5.402,1.668 -0.504,0.953 -12.359,23.535 -15.152,42.465 -0.46,3.11 -0.789,8.207 -1.004,15.59 -0.562,19.832 -0.09,50.957 0.41,73.574 a 17.325,17.325 0 0 1 -4.968,12.578 17.31,17.31 0 0 1 -12.465,5.238 h -29.461 a 6.11,6.11 0 0 1 -6,-4.965 5.75,5.75 0 0 1 -0.106,-1.14 c 0,-1.192 0.348,-2.36 0.988,-3.348 a 6.077,6.077 0 0 1 2.66,-2.242 c 6.583,-2.813 15.474,-7.774 20.458,-15.445 7.707,-11.871 4.324,-59.668 3.91,-65.082 -0.563,-7.235 -1.242,-13.035 -1.871,-15.91 -2.473,-11.281 -13.41,-24.344 -13.875,-24.895 a 3.999,3.999 0 0 0 -6.113,5.156 c 0.1,0.121 10.128,12.109 12.175,21.445 0.395,1.812 0.84,5.234 1.258,9.57 -13.418,-2.93 -25.984,-8.125 -35.809,-14.863 -5.156,-3.547 -9.34,-7.367 -12.434,-11.363 -10.766,-13.867 -15.484,-36.375 -16.902,-44.52 18.117,-7.972 26.54,-27.719 28.766,-33.859 a 77.373,77.373 0 0 0 1.348,-4.11 c 2.844,-2.304 12.69,-9.628 23.12,-9.628 12.798,0 26.63,7.898 26.767,7.977 a 4.003,4.003 0 0 0 5.902,-2.55 c 2.781,-11.923 2.196,-22.825 -1.726,-32.556 l 16.07,7.14 a 4,4 0 0 0 5.61,-3.355 c 1.03,-13.578 0.628,-27.027 -1.153,-40.094 10.738,4.426 32.316,12.473 50.363,13.898 7.785,0.61 19.324,-0.496 32.688,-1.773 29.09,-2.786 68.926,-6.606 97.016,5.03 43.254,17.915 60.242,60.298 63.457,82.517 2.234,15.449 1.508,37.387 0.922,55.012 -0.434,13.055 -0.809,24.324 0.007,30.848 0.75,6.011 2.547,12.914 4.454,20.219 2.785,10.688 5.664,21.742 5.664,31.277 0.004,9.844 -2.278,19.992 -6.961,30.93 z"
           id="path3" /></g></g><g
       transform="matrix(-0.0017203,0,0,-0.0017203,108.06809,89.904598)"
       id="g12"
       inkscape:export-filename="..\..\tmp\g12.svg"
       inkscape:export-xdpi="96"
       inkscape:export-ydpi="96"><g
         transform="scale(1.49688)"
         id="g14"><path
           id="path16"
           style="fill:#797677;fill-opacity:1;fill-rule:nonzero;stroke:none"
           d="m 1293.07,16300 c 18.53,-24.2 1148.58,-818 1148.58,-818 0,0 131.1,-58.4 359.11,-52.7 228.01,5.7 695.42,21.4 1216.98,-514.4 521.56,-535.9 638.42,-969.1 638.42,-969.1 0,0 464.56,14.3 872.12,-367.6 407.56,-381.9 666.92,-718.2 698.27,-795.2 31.35,-76.9 145.35,-290.7 -293.56,-327.7 -438.91,-37.1 -649.81,-54.2 -649.81,-54.2 0,0 190.95,-375.5 674.04,-548.6 -87.65,-72.7 -354.84,-109.1 -354.84,-109.1 0,0 361.25,-230.8 510.88,-609.2 -44.89,-17.1 -356.97,79.1 -356.97,79.1 0,0 175.27,-354.8 639.12,-656.2 463.84,-301.4 769.54,-301.4 1164.96,-365.5 395.49,-64.1 1543.34,-104.8 1543.34,-104.8 0,0 944.79,85.5 1190.59,104.8 245.9,19.2 936.2,44.9 1389.4,-194.56 453.2,-239.37 639.2,-444.59 639.2,-444.59 0,0 438.1,-34.21 902,-297.09 463.9,-262.94 493.8,-393.35 493.8,-393.35 0,0 -132.5,-21.38 -233,-23.51 132.5,-94.07 521.5,-327.75 829.4,-803.74 307.7,-475.92 316.3,-738.13 316.3,-738.13 l -339.2,168.15 c 0,0 387.7,-615.62 544.4,-1014.64 156.8,-399.03 196.7,-532.98 196.7,-532.98 0,0 -250.9,82.64 -299.3,148.24 145.4,-279.31 592.8,-986.11 592.8,-986.11 0,0 -588.5,-819.44 -736,-915.64 -147.5,-96.2 -894.2,69.14 -894.2,69.14 0,0 -51.3,-185.25 -64.1,-188.12 -12.9,-2.81 -96.9,104.02 -212.4,340.58 -115.4,236.55 -284.9,634.18 -322,1027.46 -62.7,-230.88 0,-649.81 113.9,-988.99 114.1,-339.17 313.6,-689.7 313.6,-689.7 0,0 32.8,-89.78 0.7,-361.21 -32.1,-271.5 -175.3,-758.85 -175.3,-758.85 l -569.3,-1385.14 c 0,0 -47,-199.55 -65.5,-300.691 -18.6,-101.21 -22.8,-247.982 -283.6,-463.163 -260.8,-215.181 -444.6,-270.76 -561.5,-293.542 -116.8,-22.782 -250.8,25.652 -327.7,123.989 -141.1,-56.985 -320.7,-109.759 -454.6,82.641 -69.8,-24.186 -290.8,-86.915 -390.5,132.541 -99.7,219.456 65.6,391.882 319.3,504.445 253.6,112.57 587,239.43 702.5,461.69 115.4,222.33 421.1,1047.45 421.1,1047.45 0,0 230.8,596.37 166.7,878.56 -64.1,282.12 -235.2,600.65 -508.7,914.83 -273.7,314.25 -481,485.21 -564.4,666.92 -12.8,-138.96 -10.6,-250.12 -10.6,-250.12 0,0 -265.1,138.96 -459.6,491.69 -194.6,352.66 -145.4,504.45 -145.4,504.45 l -109,-173.16 -105.5,117.57 c 0,0 -253.6,-612.74 -216.5,-1020.31 37,-407.59 287.8,-1148.59 287.8,-1148.59 0,0 94,-202.36 -57,-547.21 -151.1,-344.85 -595.66,-1157.13 -669.75,-1350.94 -74.08,-193.8 -156.05,-366.22 -158.19,-473.11 -2.14,-106.89 10.69,-235.157 -218.05,-350.532 -228.68,-115.437 -724.64,-284.322 -842.15,-70.545 -76.96,-36.343 -346.32,-128.266 -431.83,117.51 -194.47,-36.341 -393.29,-12.826 -380.46,273.637 12.83,286.46 513,425.35 513,425.35 0,0 510.86,79.1 690.43,348.46 179.58,269.29 386.87,737.46 438.18,1038.82 51.31,301.43 12.83,523.69 -188.06,713.95 -200.95,190.26 -568.58,468.11 -630.57,617.75 8.55,-117.58 4.27,-190.26 4.27,-190.26 0,0 -292.87,115.44 -408.31,357.01 -115.44,241.57 -123.99,307.77 -123.99,307.77 0,0 -72.62,-106.82 -100.41,-123.92 -27.8,-17.11 -164.61,164.54 -207.37,393.28 -42.75,228.74 -25.65,446.73 -25.65,446.73 0,0 -678.34,-209.43 -1065.93,-283.59 -387.61,-74.09 -646.97,-48.44 -646.97,-48.44 0,0 34.21,-205.22 -62.7,-741 -96.9,-535.85 -310.65,-1698.66 -310.65,-1698.66 0,0 -76.96,-892.06 -85.51,-1161.42 -8.55,-269.29 7.13,-507.25 7.13,-507.25 0,0 -4.99,-157.528 -120.42,-388.341 C 5279.61,380.191 5244.7,208.501 4962.54,124.394 4680.39,40.3521 4490.86,-23.7838 4329.83,150.046 4218.67,88.786 4030.57,-22.3798 3863.84,222.731 3785.46,184.25 3459.13,179.973 3412.1,474.987 c -7.12,52.711 -4.27,86.915 -4.27,86.915 0,0 -278.59,-76.96 -381.2,117.577 -151.76,-47.032 -344.15,-97.269 -394.38,135.681 -141.08,9.621 -256.51,92.992 -261.85,282.19 -5.35,189.19 116.49,270.43 423.24,405.04 306.73,134.68 564.31,229.81 634.85,397.63 70.54,167.81 64.84,853.57 42.04,1147.11 -22.8,293.61 -267.91,1251.2 -267.91,1251.2 l -159.61,570.05 -518.71,1228.35 c 0,0 -188.1,364.83 -233.7,669.79 -45.6,304.97 -28.51,447.47 -28.51,447.47 L 2102.5,7755.45 1901.57,7654.3 c 0,0 101.17,1030.28 408.98,1966.56 307.81,936.24 987.55,1628.84 269.33,3231.94 -718.22,1603.2 -1650.196,2984.1 -1658.748,3099.5 -8.543,115.4 371.938,347.7 371.938,347.7" /></g><path
         id="path18"
         style="fill:#626161;fill-opacity:1;fill-rule:nonzero;stroke:none"
         d="M 4008.97,10555.3 C 3996.17,10504.1 5314.43,8469.1 5570.41,7074 5826.38,5679 6056.75,3592.8 5647.2,2364.1 5237.64,1135.5 4540.11,1381.8 4540.11,1381.8 c 0,0 -510.35,-78.4 -580.74,158.4 -172.78,16 -369.56,136 -398.36,233.6 -60.79,-168 -19.2,-534.4 363.17,-534.4 55.99,-167.9 203.17,-350.298 587.13,-212.7 107.19,-140.798 262.38,-305.598 593.54,-192.001 16,259.201 316.23,595.101 715.13,731.601 398.89,136.6 838.31,324.3 851.11,765.8 12.8,441.6 25.6,2041.4 25.6,2041.4 L 6575.1,6581.3 c 0,0 -108.79,855.4 -215.44,1196.7 -106.66,341.3 -203.72,614.3 -232.51,623.9 -28.8,9.6 -2118.18,2153.4 -2118.18,2153.4" /><path
         id="path20"
         style="fill:#626161;fill-opacity:1;fill-rule:nonzero;stroke:none"
         d="m 15380.6,11627.2 c 0,0 -2591.7,-649.6 -4140.4,-687.9 -1548.62,-38.4 -1919.78,153.5 -2585.31,25.5 C 7989.36,10836.9 8091.74,8085.1 8027.75,7304.4 7963.76,6523.7 7906.16,2050.6 7592.6,1538.6 7279.03,1026.7 7051.85,783.5 6485.51,684.301 6194.34,575.5 5877.57,671.5 5813.58,841.102 c -166.38,-83.2 -710.33,28.8 -655.93,252.798 -102.39,-419.201 -48,-838.4 630.33,-748.798 63.99,-134.399 378.63,-388.2036 693.27,-120.5 125.85,-129.0004 452.21,-295.4028 960.96,-45.801 508.75,249.5 710.33,851.099 710.33,851.099 0,0 105.59,393.5 102.39,636.7 -3.2,243.2 -48,467.2 -13.86,1128.4 34.12,661.3 281.56,2235.5 281.56,2235.5 0,0 371.16,1868.6 375.43,1894.2 4.27,25.6 38.4,354.1 29.87,477.8 -8.53,123.8 -1.07,215.5 -1.07,215.5 0,0 1174.24,70.4 2454.14,473.5 1279.9,403.2 2246.2,531.2 3020.5,608 774.3,76.8 1062.3,-38.4 1062.3,-38.4 0,0 -307.2,531.1 -115.2,1267 -204.8,-211.1 -204.8,-211.1 -204.8,-211.1 0,0 -268.8,953.5 236.8,1910.2" /><path
         id="path22"
         style="fill:#626161;fill-opacity:1;fill-rule:nonzero;stroke:none"
         d="m 12161.7,8993.9 c 0,0 358.4,-1676.7 1395.1,-2419 1036.7,-742.3 1395,-1023.9 1369.4,-1843 -25.6,-819.1 -921.5,-2873.3 -1151.8,-3046.1 -230.4,-172.8 -771.2,-432 -988.7,-220.8 -195.2,-67.2 -563.2,-32 -617.6,118.4 -188.8,-54.4 -537.5,19.2 -569.5,195.2 -163.2,-172.8 54.4,-761.5 511.9,-544 118.4,-163.1 227.2,-351.901 659.2,-166.3 156.7,-150.398 297.5,-243.198 841.5,-67.2 543.9,176 697.5,348.7 748.7,579.1 51.2,230.4 44.8,339.2 89.6,470.4 44.8,131.2 790.3,1692.6 790.3,1692.6 0,0 368,726.3 460.8,1049.5 92.8,323.1 -169.6,950.3 -169.6,950.3 0,0 -289.1,925.8 -284.8,1258.5 4.3,332.8 132.3,1006.9 132.3,1006.9 l 191.9,469.2 -209,388.3 -3199.7,128" /><g
         transform="scale(1.24786)"
         id="g24"><path
           id="path26"
           style="fill:#626161;fill-opacity:1;fill-rule:nonzero;stroke:none"
           d="m 14825.6,11402.3 c 0,0 484.6,-2199.98 -192.3,-3246.17 -676.9,-1046.11 76.9,-2200.01 492.3,-3061.56 415.4,-861.56 453.9,-1330.76 207.7,-2015.37 -246.2,-684.62 -541,-1994.94 -705.1,-2194.885 -164.1,-200.024 -687.2,-265.014 -794.9,-162.438 -170.9,-61.546 -389.7,-32.456 -488.9,68.358 -136.7,-23.882 -388,-63.23 -482,143.605 -85.6,-208.516 -78.7,-637.573 446.1,-483.788 34.2,-104.26 251.3,-229.033 529.9,-90.555 140.2,-145.289 318,-220.537 673.5,-64.993 355.6,155.548 697.5,557.277 707.8,649.594 10.2,92.322 75.1,362.382 111,550.462 35.9,188 545.4,1275.22 545.4,1275.22 0,0 345.3,977.76 352.1,1165.84 6.8,188 71.8,365.83 -44.5,591.42 -116.2,225.66 -393.1,871.81 -437.5,1114.54 -44.5,242.74 -112.9,499.18 -75.3,878.63 37.6,379.53 266.7,1234.27 266.7,1234.27 0,0 23.9,823.89 -17.1,1251.27 -41.1,427.37 -396.5,1288.95 -454.7,1418.85 -58.1,129.9 -640.2,977.7 -640.2,977.7" /></g><g
         transform="scale(1.37938)"
         id="g28"><path
           id="path30"
           style="fill:#626161;fill-opacity:1;fill-rule:nonzero;stroke:none"
           d="m 13683.4,9765.4 c 0,0 695.9,-647.17 1029.9,-1350.03 334,-702.85 612.4,-1043.87 612.4,-1043.87 0,0 -563.6,306.22 -702.8,549.81 6.9,-347.98 27.8,-501.09 452.3,-1064.75 424.5,-563.66 640.2,-1864.97 932.5,-2254.71 292.3,-389.67 -1143.6,53.36 -1148.2,44.08 -4.6,-9.28 -20.9,-227.35 -51,-243.52 -30.2,-16.24 -99.8,78.81 -99.8,78.81 0,0 -206.5,269.1 -327.1,686.61 -120.6,417.58 -614.7,839.73 -392,1779.2 222.7,939.48 -306.2,2818.37 -306.2,2818.37" /></g><g
         transform="scale(1.50238)"
         id="g32"><path
           id="path34"
           style="fill:#939292;fill-opacity:1;fill-rule:nonzero;stroke:none"
           d="m 1164.82,16136.7 c 0,0 1162.83,-847.6 1303.39,-928.5 140.57,-81 553.73,102.2 1201.17,-443 647.44,-545.2 673,-941.4 673,-941.4 0,0 630.4,-68.1 1043.57,-464.3 413.17,-396.1 813.56,-715.5 553.73,-945.6 234.28,25.6 301,83.8 292.49,215.9 -8.52,132 -102.23,242.7 -465.71,657.3 -363.47,414.6 -715.59,522.5 -814.98,562.3 -99.38,39.7 -312.35,45.4 -312.35,45.4 0,0 -249.89,573.6 -636.09,965.5 -386.19,391.9 -712.75,485.6 -1141.53,525.3 -329.4,8.6 -264.09,-17 -448.66,68.2 C 2228.26,15539 1191.8,16300 1191.8,16300 l -26.98,-163.3" /></g><g
         transform="scale(1.14642)"
         id="g36"><path
           id="path38"
           style="fill:#939292;fill-opacity:1;fill-rule:nonzero;stroke:none"
           d="m 6304.67,16151.1 c 0,0 284.69,-452.1 826.15,-507.9 -357.26,-39.1 -591.7,27.9 -653.1,67 -61.4,39 597.27,-340.5 686.59,-563.8 89.31,-223.3 -39.08,-502.4 133.97,-641.9 -61.41,-44.7 -262.36,22.3 -357.26,145.1 -94.89,122.8 312.6,-563.8 798.23,-870.8 485.64,-307 1590.89,-1350.9 4605.15,-965.7 1004.8,251.2 3086.9,290.3 3611.6,-234.4 -290.3,256.8 -488.4,519.1 -1387.1,675.4 -898.7,156.3 -1772.3,-24.2 -1772.3,-24.2 0,0 -1101.5,-81.9 -1931.4,-18.6 -829.9,63.3 -2043.07,115.4 -2601.24,602.9 -558.2,487.5 -747.99,827 -747.99,827 l 466.1,-103.3 c 0,0 -253.98,502.4 -667.06,795.5 316.33,36.3 468.9,118.1 468.9,118.1 0,0 -547.04,245.6 -736.83,547.1 -189.78,301.4 -145.13,174.9 -145.13,174.9 l -597.28,-22.4" /></g><g
         transform="scale(1.23685)"
         id="g40"><path
           id="path42"
           style="fill:#626161;fill-opacity:1;fill-rule:nonzero;stroke:none"
           d="m 4076.85,16300 c 0,0 1544.4,-1257.3 3026.72,-1210.7 -349.23,-62.1 -972.69,-175.9 -1358.14,-134.5 -385.45,41.4 -1125.32,-548.4 -923.54,-1223.6 201.78,-675.2 -915.78,737.2 -946.82,1428 -31.05,690.7 201.78,1140.8 201.78,1140.8" /></g><g
         transform="scale(1.40346)"
         id="g44"><path
           id="path46"
           style="fill:#939292;fill-opacity:1;fill-rule:nonzero;stroke:none"
           d="m 13280,10010.5 c 72.9,-77.55 661.1,-159.56 838.9,-410.37 -68.3,-22.8 -269,-4.56 -269,-4.56 0,0 1044.1,-652.03 1336,-1340.54 -145.9,109.44 -332.9,114 -332.9,114 0,0 661.2,-1176.45 880,-2243.38 218.9,-1067.01 282.8,-1103.42 282.8,-1103.42 0,0 284.2,471.12 279.6,472.69 -4.5,1.5 -338.9,519.79 -338.9,519.79 l -222,462 c 0,0 263,-164.1 285.8,-162.6 22.8,1.5 -12.1,79.02 -12.1,79.02 0,0 -241.7,612.56 -284.3,703.76 -42.5,91.13 -457.5,866.29 -457.5,866.29 l 322.3,-165.67 c 0,0 -45.6,281.17 -193,586.7 -147.5,305.53 -652.1,776.65 -700.7,820.76 -48.7,44.03 -334.4,227.93 -334.4,227.93 0,0 243.2,-9.12 256.8,1.57 13.7,10.62 13.7,28.86 13.7,28.86 0,0 -329.8,297.9 -708.2,521.35 -378.5,223.42 -811.7,202.12 -811.7,202.12 l 168.8,-176.3" /></g><path
         id="path48"
         style="fill:#939292;fill-opacity:1;fill-rule:nonzero;stroke:none"
         d="m 3852.18,10648.1 c -9.6,-153.6 191.98,-1113.5 547.15,-1948.6 355.16,-835.1 575.93,-1151.9 921.5,-3167.7 345.56,-2015.8 74.66,-2826.4 -61.86,-2980 -136.52,-153.5 -533.28,-238.9 -1062.29,-341.3 -529.01,-102.3 -499.15,-260.2 -486.35,-238.9 12.8,21.4 375.43,251.7 955.63,477.9 486.36,315.7 524.75,409.5 529.02,665.5 4.26,256 76.79,465 -25.6,1352.4 -102.39,887.4 -247.44,1621.1 -358.36,2043.5 -110.93,422.4 -486.36,1407.9 -691.13,1864.3 -204.78,456.5 -563.15,1233 -661.27,1642.5 -98.12,409.6 -68.26,900.2 -68.26,900.2 l 461.82,-269.8" /><path
         id="path50"
         style="fill:#939292;fill-opacity:1;fill-rule:nonzero;stroke:none"
         d="m 5570.41,13739 c -28.8,-115.2 -441.56,-1718.3 249.57,-3436.5 691.13,-1718.2 806.31,-2188.6 1046.29,-3494 239.98,-1305.5 230.38,-4358 38.4,-4799.5 -191.98,-441.6 -655.93,-289.1 -1278.81,-592 -622.87,-302.9 -494.88,-507.602 -494.88,-507.602 0,0 12.8,341.202 669.8,644.102 657,303 802.05,303 866.05,750.9 63.99,448 29.86,2367.8 29.86,2367.8 l -153.58,2342.1 c 0,0 -166.39,1015.4 -396.77,1407.9 -230.37,392.5 -1247.87,1515.5 -1507.04,2571.4 -259.17,1055.9 931.11,2745.4 931.11,2745.4" /><g
         transform="scale(1.15089)"
         id="g52"><path
           id="path54"
           style="fill:#939292;fill-opacity:1;fill-rule:nonzero;stroke:none"
           d="m 13364.1,10102.8 c 38.9,-45.7 38.9,-1876.64 1584.7,-3655.96 1256.7,-1534.64 1351.2,-1601.37 1306.7,-2129.57 -44.5,-528.28 -545,-1990.64 -772.9,-2374.34 -228,-383.61 -278,-528.2 -697.9,-642.2 -419.7,-114 -720,-122.33 -797.9,-225.21 211.3,322.53 522.8,255.8 750.7,392.04 228,136.24 417,269.7 595,650.54 177.9,380.92 639.4,1531.86 672.8,1971.17 33.3,439.23 -127.9,806.25 -253,992.54 -125.2,186.29 -703.4,859.07 -747.9,895.22 -44.5,36.14 -380.9,480.93 -392.1,505.95 -11,25.03 -27.7,-319.75 -27.7,-319.75 0,0 -453.2,294.73 -628.4,742.39 -175.1,447.56 -169.6,525.42 -169.6,517.07 0,-8.34 -127.8,-191.85 -127.8,-191.85 0,0 -389.2,475.46 -380.9,884.1 8.3,408.73 58.4,511.52 58.4,511.52 l -189.1,-214.01 c 0,0 -100.1,447.57 -25,953.61 75.1,505.96 241.9,736.74 241.9,736.74" /></g><path
         id="path56"
         style="fill:#939292;fill-opacity:1;fill-rule:nonzero;stroke:none"
         d="m 11950.5,8264.3 c 19.2,-236.8 -243.1,-819.1 1427.1,-2252.5 710.3,-492.8 1026,-964.2 955.6,-1399.4 -70.4,-435.1 -524.7,-1759.8 -767.9,-2137.3 -243.2,-377.6 -997.2,-287 -1387.6,-389.3 C 11787.4,1983.4 11701,1913 11701,1913 c 0,0 38.4,201.6 431.9,316.7 393.6,115.2 1001.5,230.4 1174.3,512 172.8,281.6 547.2,1011.1 643.1,1407.8 96,396.8 102.4,828.8 -44.8,1110.3 -147.1,281.6 -547.1,448 -547.1,448 0,0 -515.1,521.5 -595.1,662.3 -6.4,-153.6 28.8,-275.2 28.8,-275.2 0,0 -377.6,70.4 -566.4,406.4 -188.8,336 -230.4,569.5 -230.4,569.5 l -153.5,-204.7 c 0,0 -294.4,281.5 -326.4,739.1 -32,457.5 -12.8,539.7 -12.8,539.7 l 447.9,119.4" /><g
         transform="scale(1.48085)"
         id="g58"><path
           id="path60"
           style="fill:#ffffff;fill-opacity:1;fill-rule:nonzero;stroke:none"
           d="m 1197.59,16246 c 0,0 838.35,-945 858.52,-976.7 20.17,-31.6 121,-138.2 184.38,-314 63.38,-175.7 132.52,-590.6 553.14,-835.4 420.61,-244.9 913.26,-391.8 1132.2,-881.6 135.4,-388.9 126.76,-731.8 126.76,-731.8 l -299.61,135.4 66.98,-410.5 c 0,0 108.04,-278.7 321.95,-529.4 207.42,-248.4 311.13,-563.9 311.13,-563.9 0,0 -209.59,13 -319.78,62.7 58.34,-114.6 129.64,-313.3 171.42,-592.8 41.77,-279.4 -37.46,-633.81 -43.21,-666.9 -5.77,-33.16 -4.33,-21.61 -4.33,-21.61 l -204.55,180.01 c 0,0 69.14,-305.34 47.54,-527.18 -21.61,-221.83 -54.74,-388.96 -125.32,-570.41 -70.58,-181.52 -110.91,-200.22 -110.91,-200.22 L 3704,9026.35 3509.54,8571.21 c 0,0 -221.11,-449.47 -156.3,-764.9 64.83,-315.49 194.47,-926.96 300.35,-1186.21 105.87,-259.31 362.99,-710.87 479.67,-931.28 116.68,-220.41 123.16,-302.46 123.16,-302.46 0,0 -533.69,157.68 -866.44,499.1 -332.75,341.36 -423.49,488.3 -522.89,663.34 -99.39,174.96 -146.93,302.46 -146.93,302.46 l -71.3,-267.89 c 0,0 -179.34,190.09 -315.46,572.57 -136.13,382.42 -194.46,689.27 -194.46,689.27 l -216.79,-108.04 c 0,0 -25.21,341.35 -148.37,596.34 -123.16,254.99 -368.76,626.6 -368.76,626.6 0,0 -51.85,194.48 -61.94,401.86 -10.08,207.45 115.24,743.33 115.24,743.33 0,0 -70.58,-73.5 -122.44,-141.17 -51.86,-67.73 -131.08,-174.3 -131.08,-174.3 0,0 -74.91,230.47 -69.14,515.67 5.76,285.2 184.38,816.8 184.38,816.8 L 1014.65,10958 c 0,0 311.87,666.3 342.12,765.6 30.25,99.4 101.55,581.3 103.71,667.7 2.16,86.4 2.16,103.7 2.16,103.7 0,0 -250.64,576.9 -276.57,624.5 -25.93,47.5 -155.57,248.4 -350.031,365.1 -194.464,116.7 -518.567,322 -661.174,548.8 -142.6069,226.9 -190.1407,490.5 -92.91,672 97.231,181.5 522.888,229 522.888,229 0,0 -237.674,382.5 -293.855,596.4 -56.175,213.9 -10.802,579.1 149.088,674.1 159.893,95.1 737.514,41.1 737.514,41.1" /></g><g
         transform="scale(1.51823)"
         id="g62"><path
           id="path64"
           style="fill:#ffffff;fill-opacity:1;fill-rule:nonzero;stroke:none"
           d="m 13478.7,4282.89 c 0,0 58.7,367.01 64,409.16 5.3,42.16 40.1,41.1 114.8,-9.48 74.8,-50.59 262.4,-184.36 310.9,-181.2 48.5,3.16 42.2,194.9 42.2,194.9 l -47.5,396.25 c 0,0 -8.4,57.96 118.1,-5.27 126.4,-63.23 338.2,-167.56 387.7,-178.1 49.5,-10.54 74.8,38.99 71.7,109.6 -3.2,70.61 -67.5,320.31 -67.5,320.31 0,0 -33.7,71.66 71.7,44.26 105.4,-27.4 369.8,-140.1 416.2,-173.82 46.4,-33.73 296.1,-448.95 423.7,-533.26 127.5,-84.24 162.2,-156.96 150.7,-173.82 -11.6,-16.86 -237.2,-41.1 -237.2,-41.1 0,0 706.8,-886.56 852.9,-1091.73 146.1,-205.11 148.9,-241.6 140.5,-272.56 -8.5,-30.89 -216.4,-238.83 -784,-92.74 -567.7,146.16 -755.9,241.67 -983.6,441.18 -11.2,-176.99 -19.6,-255.7 -89.9,-247.26 -70.2,8.43 -514.2,221.96 -694,525.48 -179.9,303.44 -261.4,559.2 -261.4,559.2" /></g><g
         transform="scale(1.5211)"
         id="g66"><path
           id="path68"
           style="fill:#e5e3e4;fill-opacity:1;fill-rule:nonzero;stroke:none"
           d="m 14162.9,5020.83 c 0,0 462.7,-1004.73 1299.9,-1459.86 837.2,-455.07 812,-429.1 812,-429.1 0,0 -84.2,-208.27 -467,-176.71 -382.8,31.55 -677.3,69.42 -959.2,227.2 -281.9,157.71 -370.2,258.69 -370.2,258.69 0,0 37.8,-276.97 -109.4,-234.89 -147.2,42.07 -472.6,263.69 -617,451.58 -144.5,187.89 -301.6,586.15 -301.6,586.15 0,0 46.3,366.05 57.5,412.33 11.3,46.28 -6.3,79.22 68.7,43.46 75.1,-35.77 297.3,-186.51 340.9,-192.1 43.4,-5.65 61.6,-7.03 65.2,39.25 3.5,46.28 -23.9,352.7 -23.9,352.7 0,0 -32.3,188.62 -13.3,200.51 18.9,11.9 73.6,-10.51 73.6,-10.51 l 143.8,-68.7" /></g><g
         transform="scale(1.4657)"
         id="g70"><path
           id="path72"
           style="fill:#e5e3e4;fill-opacity:1;fill-rule:nonzero;stroke:none"
           d="m 355.683,16276.4 c 13.155,23.6 -203.025,-871 1309.817,-1866.5 6.55,-170.3 -63.3,-229.2 -63.3,-229.2 0,0 -425.7,235.8 -692.027,491.2 -266.333,255.4 -574.14,897.2 -578.503,912.5 -4.368,15.3 -91.69,484.6 24.013,692" /></g><g
         transform="scale(1.29731)"
         id="g74"><path
           id="path76"
           style="fill:#e5e3e4;fill-opacity:1;fill-rule:nonzero;stroke:none"
           d="m 66.4203,16300 c 0,0 542.6027,-537.7 1109.8697,-700.4 567.27,-162.8 956.96,-2155.7 2200.02,-1593.3 246.63,-236.8 -19.73,-680.8 -19.73,-680.8 0,0 927.36,917.5 582.06,1677.2 286.1,-276.3 315.7,-384.8 315.7,-384.8 0,0 271.3,296 197.31,572.2 162.78,-325.5 180.05,-781.8 160.31,-910.1 -76.46,37 -357.62,155.4 -357.62,155.4 0,0 95.37,-164.4 105.23,-519.6 39.46,-90.4 241.71,-383.1 241.71,-383.1 0,0 -540.96,-621.5 -524.52,-907.6 -75.63,315.7 -273.77,641.3 -273.77,641.3 0,0 -194.85,-318.2 -567.27,-424.3 4.94,103.6 -33.71,440.7 -33.71,440.7 0,0 -396.26,-337.1 -677.43,-358.5 -16.44,131.6 -226.91,526.2 -305.83,644.6 -78.92,118.4 -295.97,292.7 -460.39,545.9 -164.43,253.2 -365.03,861.6 -519.59,1052.3 -154.56,190.7 -845.144,585.4 -878.03,634.7 -32.884,49.3 -236.773,378.2 -294.3197,498.2" /></g><g
         transform="scale(1.13753)"
         id="g78"><path
           id="path80"
           style="fill:#e5e3e4;fill-opacity:1;fill-rule:nonzero;stroke:none"
           d="m 2072.87,16300 c 0,0 253.14,-849.5 -185.66,-1451.4 118.14,-95.7 365.68,174.4 365.68,146.2 0,-28.1 61.88,-106.8 -140.65,-472.5 -202.52,-365.7 -331.91,-793.2 -354.42,-1158.9 95.64,230.6 427.56,376.9 427.56,376.9 0,0 -208.15,-635.7 -168.77,-1299.5 39.38,-663.8 213.77,-1372.7 348.79,-1777.7 135.01,-405 123.76,-613.2 123.76,-613.2 l 277.54,155.6 c 0,0 135.01,-603.79 341.28,-1076.39 206.27,-472.51 340.35,-558.76 340.35,-558.76 l 105.96,348.74 c 0,0 210.02,-622.58 648.82,-1076.37 438.81,-453.79 1353.92,-858.79 1353.92,-858.79 0,0 -195.03,540.03 -465.06,975.1 -270.03,435.06 -483.81,1042.61 -615.07,1605.15 -131.27,562.62 -161.27,896.42 -71.26,1170.22 90.01,273.7 378.8,1025.7 378.8,1025.7 0,0 -337.54,-517.5 -793.23,-753.8 95.64,281.3 331.92,703.1 416.3,1220.7 84.39,517.6 78.76,1119.5 67.51,1142 -11.24,22.5 157.52,-61.9 168.77,-540 185.65,354.4 275.66,1468.3 0,2014 -275.65,545.6 -495.06,630 -630.07,354.4 -135.02,-275.7 -270.03,-298.2 -410.67,-22.5 -140.65,275.6 -208.15,219.4 -483.81,225 -275.66,5.6 -1046.37,900.1 -1046.37,900.1" /></g><g
         transform="scale(1.37322)"
         id="g82"><path
           id="path84"
           style="fill:#ffffff;fill-opacity:1;fill-rule:nonzero;stroke:none"
           d="m 3486.38,16071.7 c 0,0 -41.94,228.3 209.7,173.9 251.65,-54.3 292.04,-495.5 292.04,-495.5 0,0 -17.09,-163.1 -191.06,-29.5 -173.99,133.6 -310.68,351.1 -310.68,351.1" /></g><g
         transform="scale(1.53374)"
         id="g86"><path
           id="path88"
           style="fill:#2d2d2d;fill-opacity:1;fill-rule:nonzero;stroke:none"
           d="m 402.49,15730.3 c 0,0 14.602,426.9 346.307,529.2 331.703,102.2 515.283,-417.3 515.283,-417.3 0,0 98.05,-391.5 -181.49,-445.7 -279.555,-54.3 -477.048,80.6 -584.139,151.6 -107.088,70.9 -95.961,182.2 -95.961,182.2" /></g><g
         transform="scale(1.24202)"
         id="g90"><path
           id="path92"
           style="fill:#dd9d98;fill-opacity:1;fill-rule:nonzero;stroke:none"
           d="m 5554.06,16300 c 0,0 392.44,-45.5 727.34,-255 334.91,-209.6 508.37,-494.7 508.37,-494.7 0,0 45.94,-164.4 -303.13,-178.6 -349.07,-14.2 -497.2,-9 -683.97,19.3 -186.78,28.4 -377.41,91.5 -377.41,91.5 0,0 64.4,197.1 90.16,439.2 25.76,242.2 38.64,378.3 38.64,378.3" /></g><g
         transform="scale(1.20741)"
         id="g94"><path
           id="path96"
           style="fill:#c18380;fill-opacity:1;fill-rule:nonzero;stroke:none"
           d="m 5673.53,16300 c 0,0 515.88,-328.6 1314.43,-325.1 17.66,-91.8 -148.41,-181.9 -547.68,-178.4 -399.27,3.5 -770.27,102.5 -770.27,102.5 l -84.8,37.1 c 0,0 70.66,206.7 88.32,363.9" /></g><g
         transform="scale(1.33723)"
         id="g98"><path
           id="path100"
           style="fill:#f47171;fill-opacity:1;fill-rule:nonzero;stroke:none"
           d="m 834.908,16272.9 c 0,0 334.982,-398.4 515.642,-507.3 180.65,-108.8 210.56,-104.1 210.56,-104.1 0,0 -534.78,-120.8 -936.768,113.7 -244.057,215.3 -239.275,390.8 -100.494,457.8 138.781,67 311.06,39.9 311.06,39.9" /></g><g
         transform="scale(1.53374)"
         id="g102"><path
           id="path104"
           style="fill:#000000;fill-opacity:1;fill-rule:nonzero;stroke:none"
           d="m 16104.9,3095.04 c -8.1,-33.57 -55.9,-63.83 -159.5,-101.19 -218.4,-78.5 -1152.7,0.26 -1561.5,466.12 -8.8,10.1 -23.1,13.36 -35.5,8.21 -12.4,-5.15 -20.1,-17.6 -19.1,-30.97 7.5,-108.88 -1.7,-221.68 -19.5,-241.95 -94.4,4.56 -693.6,209.22 -935.5,1069.28 -1.8,6.58 -6,11.86 -11,15.78 23.4,170.49 53.2,348.23 67.1,380.18 21.6,-4.31 90.6,-48.06 146.7,-83.66 94.4,-60.04 192.2,-122.05 245.2,-127.33 12.3,-1.44 23.4,2.87 32.1,11.8 42.9,43.88 26.2,210.92 0,424.84 -8.7,71.07 -16.3,132.49 -14.9,157.4 0,1.95 0.4,2.93 0.6,3.06 16.2,15.32 141.9,-49.49 217.1,-88.28 101,-52.09 205.3,-105.95 272.7,-114.69 23.2,-2.93 41.6,2.87 54.7,17.35 41,45.25 12.7,166.65 -14.5,284.01 -16.9,72.63 -36,154.91 -24.5,175.39 13.9,24.9 127.1,-29.34 209.8,-68.86 79,-37.81 160.2,-76.61 225.9,-91.41 162,-250.23 356.6,-507.77 561.4,-682.38 -35.3,-16.63 -102.2,-35.73 -208.3,-19.75 -12.6,1.63 -25,-4.05 -31.5,-14.87 -6.5,-10.82 -5.8,-24.58 1.7,-34.75 5.8,-7.83 583.2,-783.18 828.5,-1047.31 97.3,-104.84 185.5,-209.62 171.8,-266.02 z m -2772.6,1189.45 c -11.6,-4.89 -19.7,-16.17 -19.3,-29.28 2.8,-100.99 -2.7,-218.94 -15.1,-264.77 -102.3,112.6 -523.5,798.11 -473.1,1543.87 19.5,109.4 44.6,214.64 70.1,322.08 68.1,286.82 138.6,583.41 129.2,1021.62 -17,786.25 -415.3,1794.89 -932.7,2404.71 206.8,-29.01 785.2,-149.83 1252.8,-624.03 -57.2,-4.37 -145.4,-7.17 -227.5,6.46 -15.7,2.67 -30.7,-6.85 -35.2,-22.04 -4.4,-15.13 3.2,-31.3 17.7,-37.49 8.7,-3.72 849.8,-376.4 1132.6,-1429.06 -78,42.51 -207.1,112.54 -265.8,141.88 -12.5,6.26 -27.7,3.39 -37.1,-7.04 -9.5,-10.43 -10.8,-25.82 -3.2,-37.69 1.9,-3 191.3,-302.33 378.3,-676.32 104.4,-208.7 181.6,-414.28 243.6,-579.36 30.6,-81.77 56.2,-149.83 78.7,-201.02 -58.9,27.65 -143.9,75.9 -225.5,152.38 -10.9,10.3 -27.5,11.34 -39.7,2.54 -12.1,-8.74 -16.3,-24.91 -10.1,-38.47 11.5,-24.51 171.1,-366.03 405,-733.89 -57.3,18.19 -125.2,50.53 -187.1,80.13 -124.3,59.46 -222.4,106.28 -250.6,56.01 -16.5,-29.54 -2.7,-94.41 21.3,-197.75 23.1,-99.3 51.8,-222.86 21.8,-256.04 -3.8,-4.11 -10.7,-9.52 -27.4,-7.24 -62,7.95 -168.5,62.92 -262.5,111.43 -134.4,69.37 -212.1,107.58 -246.8,87.75 -9.9,-5.73 -15.8,-15.84 -16.4,-28.68 -1.5,-27.65 5.8,-87.31 15.1,-162.81 16.6,-135.61 44.4,-362.64 8.7,-399.22 -2.4,-2.41 -4.3,-2.8 -6.7,-2.61 -45.6,4.57 -148.8,70.03 -231.6,122.65 -123,78.04 -166.4,103.79 -185.6,80.78 -22.8,-27.26 -60.4,-286.29 -75.9,-399.48 z M 741.39,14136.5 c 150.383,-183.3 330.31,-350.8 532.27,-469.2 -134.9,-17 -397.606,-33.1 -605.256,57.7 -186.869,81.8 -245.011,169.1 -260.889,227.9 -15.872,58.9 5.512,105 26.241,133.4 50.683,69.3 229.361,60.9 307.634,50.2 z M 12733.8,4918.1 c 41.1,-464.29 204.7,-806.98 324.1,-1057.28 73.5,-154 131.6,-275.67 131.6,-364.53 0,-285.65 -84.3,-636.62 -273.4,-1138.14 -94.8,-251.34 -188.9,-476.09 -272,-674.42 -108.5,-259.11 -194.2,-463.77 -232.4,-610.86 -15.5,-59.79 -23.5,-110.908 -30.5,-155.962 -23.3,-148.59 -38.7,-246.782 -301.5,-474.07 -158.4,-136.984 -551.9,-359.6418 -757.5,-173.626 -64.7,58.614 -90.2,142.136 -69.9,229.308 21.9,94.148 91.7,168.738 182.1,194.492 16.5,4.758 26.2,22.036 21.4,38.662 -4.7,16.626 -22,26.146 -38.6,21.516 -112.2,-32.078 -198.8,-124.206 -225.8,-240.522 -17.2,-73.61 -6.7,-146.96 26.8,-209.618 -2.3,-0.262 -4.5,-0.13 -6.8,-0.912 -2.7,-0.98 -278.2,-94.476 -355.5,75.696 -30.9,68.264 -35.9,131.378 -14.6,187.516 36.9,97.604 141.4,145.266 142.4,145.722 15.7,6.976 22.8,25.428 15.9,41.27 -7,15.78 -25.5,22.886 -41.2,15.91 -5.3,-2.282 -128.9,-58.094 -175.4,-180.148 -24.1,-63.244 -23,-131.834 3,-204.27 -67.6,-19.626 -233.6,-47.336 -310,121.01 -32,70.546 -30.6,144.288 4.1,219.202 56.1,120.882 187.5,214.116 260.9,234.916 368,104.388 609.4,264.708 717.4,476.478 43.4,85.22 106.4,216.92 175.1,373.93 0.2,0.39 0.3,0.78 0.5,1.23 94.5,215.82 199.7,479.22 280.3,735.85 0.3,0.65 0.4,1.31 0.6,1.96 72.1,229.96 124.3,454.18 130.9,633.35 19.5,526.43 -546.3,1092.36 -759.4,1305.37 -201.9,201.86 -296.4,415.65 -297.3,417.74 -6,13.62 -20.6,21.25 -35.1,18.12 -14.5,-3 -24.8,-15.78 -24.8,-30.58 v -227.87 c -486.6,328.15 -544.9,927.21 -545.4,933.4 -1.3,13.82 -11.5,25.17 -25.1,27.91 -13.5,2.61 -27.3,-3.85 -33.8,-16.04 l -74.2,-140.9 c -406.02,466.57 -194.2,1020.84 -192,1026.51 5.8,14.47 0,30.97 -13.6,38.66 -13.5,7.63 -30.6,4.31 -40.2,-8.02 l -121.56,-157.32 c -127.01,592.08 170.86,1171.9 174.06,1177.9 8,15.32 2,34.16 -13.2,42.18 -15.3,7.96 -34.2,2.09 -42.2,-13.17 -13.75,-26.21 -333.88,-648.54 -163.97,-1285.74 3.06,-11.48 12.39,-20.21 23.99,-22.56 11.74,-2.22 23.67,2.15 30.97,11.54 l 67.35,87.17 c -29.08,-154.91 -45.31,-408.54 70.76,-669.34 -742.06,64.68 -1716.27,-93.5 -2898.09,-471.85 -544.29,-174.15 -1153.24,-210.14 -1291.3,-216.27 -6.89,73.74 -16.21,147.03 -26.34,220.51 -33.41,242.15 78.42,437.68 281.42,792.63 18.23,31.88 37.14,64.94 56.69,99.37 237.01,417.15 363,981.32 364.25,986.93 3.7,16.89 -6.95,33.51 -23.8,37.23 -16.94,3.71 -33.53,-6.91 -37.26,-23.8 -1.22,-5.54 -125.28,-560.65 -357.56,-969.46 -19.52,-34.36 -38.4,-67.42 -56.6,-99.17 -202.91,-354.82 -325.39,-569 -289.08,-832.34 11.48,-83.2 21.79,-164.24 28.71,-244.96 0,-0.06 -0.03,-0.13 -0.03,-0.19 0.01,-0.07 0.07,-0.2 0.07,-0.33 15.81,-184.58 13.65,-367.14 -34.3,-569.26 -69.34,-292.1 -239.98,-1265.99 -307.83,-1731.19 -64.86,-444.79 -134.5,-1312.67 -94.63,-1502.01 35.2,-167.24 -15.37,-405.09 -82.41,-529.622 -10.59,-19.69 -21.9,-42.64 -34.28,-67.874 -62.59,-127.27 -157.19,-319.676 -331.58,-403.066 -141.94,-67.938 -489.11,-204.6617 -645.89,-8.672 -73.53,91.866 -47.03,193.514 -24.7,245.87 38,89.128 111.8,155.502 154.29,159.282 17.21,1.566 29.88,16.758 28.33,33.97 -1.54,17.214 -16.46,29.796 -33.94,28.298 -71.26,-6.39 -161.82,-92.976 -206.19,-197.036 -43.37,-101.646 -37.44,-201.012 15.24,-283.358 -62.38,-43.75 -140.85,-57.2459 -219.67,-36.382 -90.31,23.862 -161.79,88.738 -191.2,173.498 -45,129.616 48,263.08 150.05,344.776 13.48,10.76 15.66,30.448 4.86,43.946 -10.81,13.496 -30.48,15.714 -43.94,4.824 -57.61,-46.096 -240.11,-212.226 -170.04,-414.086 4.24,-12.19 9.31,-23.992 14.91,-35.468 -1.27,-0.064 -2.45,0.392 -3.73,0.196 -106.14,-16.234 -209.99,8.866 -277.89,67.156 -55.62,47.792 -85.01,115.404 -84.94,195.6 0.21,304.614 281.7,419.496 530.07,520.818 l 29.52,12 c 120.53,48.77 245.16,99.23 339.68,192.34 113.52,111.81 123.26,242.02 133.57,379.92 1.5,20.08 3.02,40.42 4.9,61.02 30.59,336.57 -13.01,2436.2 -161.96,3171.59 -97.13,479.61 -267.16,789.9 -431.59,1090.02 -96.31,175.78 -187.25,341.71 -263.19,538.09 -205.06,530.34 -282.27,1155.41 -283.04,1161.67 -2.07,17.15 -17.34,29.28 -34.79,27.32 -17.14,-2.09 -29.35,-17.67 -27.27,-34.82 0.76,-6.32 78.84,-638.89 286.79,-1176.66 77.44,-200.3 169.35,-367.99 266.67,-545.66 107.25,-195.73 216.78,-396.16 306.3,-645.29 -1110.43,404.38 -1394.15,1381.92 -1396.92,1391.96 -3.8,13.69 -16,22.88 -30.69,22.95 -14.24,-0.33 -26.52,-10.11 -29.84,-23.99 -27.04,-112.67 -41.44,-187.71 -49.12,-235.83 -289.23,368.96 -428.53,1029.96 -452.4,1152.34 263.25,161.31 658.78,484.63 771.45,1016.67 3.57,16.88 -7.22,33.51 -24.12,37.03 -16.9,3.65 -33.49,-7.17 -37.06,-24.06 -142.6,-673.38 -760.68,-999.71 -933.03,-1078.67 5.4,319.42 -172.82,626.05 -377.56,978.33 -20.94,36.05 -42.13,72.5 -63.38,109.4 -225.52,391.99 0.56,1164.41 2.87,1172.17 4.09,13.76 -1.71,28.54 -14.06,35.83 -12.39,7.35 -28.12,5.26 -38.17,-4.97 -103.23,-104.8 -167.79,-212.7 -201.72,-278.88 -175.64,457.34 127.73,1215.45 130.96,1223.45 4.65,11.4 2.11,24.6 -6.5,33.5 -8.61,8.9 -21.69,11.9 -33.26,7.6 -74.95,-27.6 -169.98,-90.4 -239.85,-140.9 48.17,108.7 129.87,286.4 229.66,476.9 125.23,239.1 160.51,644.2 170.41,839.2 48.01,-78.7 104.6,-157.9 174.58,-237.5 6.17,-7 14.81,-10.6 23.49,-10.6 7.33,0 14.68,2.5 20.63,7.8 12.97,11.3 14.23,31.1 2.84,44.1 -197.44,224.6 -287.36,448.8 -374.32,665.6 -32.61,81.2 -66.33,165.3 -105.22,248.2 -94.95,202.6 -369.407,386.9 -589.934,535.1 -123.78,83.1 -230.693,154.9 -284.577,213.6 -161.635,176.1 -320.9676,535.3 -199.706,751.9 107.18,191.3 395.296,198.6 464.777,197.4 36.772,-56.4 76.35,-112.6 118.669,-167.8 -93.083,5.9 -243.497,1.3 -303.967,-81.4 -40.727,-55.7 -53.563,-121.9 -36.145,-186.5 19.448,-72.1 86.609,-177.3 296.191,-269 136.788,-59.8 292.244,-76.8 424.712,-76.8 144.48,0 261.38,20.2 296.83,27 47.77,-23.6 96.59,-44.5 146.46,-62 -15.91,-25 -37.31,-49.7 -66.96,-72 -13.81,-10.3 -16.61,-29.9 -6.24,-43.7 6.13,-8.2 15.52,-12.5 25.03,-12.5 6.52,0 13.1,2 18.73,6.2 165.77,124.3 131.64,308.3 130.1,316 -3.36,17 -19.77,28.1 -36.73,24.6 -16.92,-3.3 -27.95,-19.7 -24.61,-36.7 0.18,-0.9 10.62,-58.1 -12.09,-125.4 -293.69,101.3 -551.684,320.6 -754.168,569 -1.467,2.5 -3.306,4.6 -5.405,6.6 -60.911,75.2 -116.657,153 -166.802,230.9 -1.072,1.8 -1.926,3.7 -3.329,5.2 -121.223,189.5 -209.157,379.5 -255.434,534.8 -112.189,376.6 31.182,586.8 69.171,633.9 21.07,-33 49.139,-64.1 84.406,-92.6 111.815,-90.2 279.178,-142.7 432.373,-142.7 52.389,0 103.118,6.1 149.388,19 80.36,22.3 141.59,64.3 177.08,121.4 3.31,5.4 5.82,11.1 8.8,16.5 78.67,-90.4 545.51,-627.9 743.66,-869.1 66.54,-81 105.38,-190.2 150.37,-316.6 95.25,-267.6 213.78,-600.7 677.57,-812.7 677.53,-309.8 1065.24,-640.5 1029.2,-1399.4 -69.23,34.4 -205.66,104.7 -265.72,151.4 -11.81,9.2 -28.39,8.7 -39.64,-1.1 -11.28,-9.7 -14.09,-26.1 -6.73,-39.1 10.11,-17.8 236.96,-429.1 -72.89,-883.8 -30.59,62.3 -82.46,178.1 -96.21,271.7 -0.37,3 -0.67,5 -0.84,5.9 -2.81,16.8 -18.54,28.5 -35.48,25.8 -16.88,-2.5 -28.6,-18.2 -26.34,-35.1 0.23,-1.7 0.45,-3.4 0.71,-5.1 5.75,-47 32.4,-429.8 -565.14,-706.4 -13.74,66.4 -37.23,213.7 -10.24,348.6 2.55,12.8 -3.07,25.8 -14.12,32.7 -11.02,6.9 -25.18,6.2 -35.53,-1.7 -159.64,-122.3 -437.21,-306.3 -539,-308.9 -31.43,72.3 -152.36,349 -202.83,441.5 -8.28,15.2 -27.2,20.8 -42.42,12.5 -15.16,-8.3 -20.75,-27.3 -12.47,-42.4 55.65,-102.1 206.18,-449.9 207.69,-453.3 4.02,-9.3 12.26,-16.1 22.15,-18.2 117.26,-25 407.65,173.9 544.53,274 -14.66,-169.8 28.09,-329.5 30.18,-337.1 2.39,-8.8 8.48,-16.1 16.68,-20 4.26,-2 8.87,-3.1 13.48,-3.1 4.28,0 8.55,0.9 12.55,2.7 236.49,103.6 385.73,224.4 480.21,340.1 73,-118.4 308.91,-562 243.97,-1258.05 -46.01,18.44 -161.9,66.1 -205.71,95.25 -5.46,3.7 -12.7,3.5 -18.04,-0.5 -5.3,-3.9 -7.52,-10.81 -5.54,-17.13 1.96,-6.24 189.32,-626.94 -168.85,-1326.01 -40.61,46.03 -149.66,169.12 -174.48,192.79 -6.21,6 -16.13,5.74 -22.1,-0.52 -5.95,-6.19 -5.73,-16.1 0.52,-22.1 29.03,-27.65 186.09,-206.17 187.67,-207.93 2.99,-3.39 7.28,-5.28 11.74,-5.28 0.61,0 1.24,0 1.85,0.07 5.11,0.65 9.59,3.71 11.98,8.28 326.83,620.9 226.12,1186.09 191.19,1333.1 71.7,-37.65 191.69,-84.44 197.66,-86.76 4.57,-1.77 9.66,-1.31 13.83,1.24 4.17,2.54 6.9,6.9 7.39,11.75 74.34,735.3 -183.78,1199.2 -252.52,1307.9 67.6,89.8 103.16,175.6 120.94,246.3 35.31,-91.4 76.42,-166.6 79.15,-171.6 5.11,-9.3 14.59,-15.4 25.19,-16.1 10.51,-0.8 20.83,3.9 27.2,12.4 123.95,165.3 178.31,328.3 195.43,473.1 47.97,-106.4 139.94,-286.2 271.14,-436.1 165.87,-189.6 273.27,-462.6 302.38,-542 -51.42,4.8 -177.23,20.4 -284.81,63.4 -6.18,2.5 -13.25,0.8 -17.61,-4.2 -4.37,-5.1 -5.06,-12.3 -1.73,-18.1 2.99,-5.2 294.06,-521.1 125.28,-1206.11 l -181.27,178.06 c -5.11,5.02 -12.91,5.93 -19.01,2.22 -6.11,-3.65 -8.97,-10.96 -6.94,-17.8 1.91,-6.39 183.95,-639.03 -161.76,-1236.85 l -138.14,207.53 c -3.12,4.7 -8.44,7.24 -14.15,6.92 -5.64,-0.4 -10.6,-3.79 -13.01,-8.94 -18.67,-39.64 -457.32,-976.3 -447.84,-1346.18 0.22,-8.48 7.17,-15.19 15.61,-15.19 h 0.41 c 8.64,0.19 15.45,7.37 15.24,16.04 -8.44,329.32 362.04,1152.08 433.19,1306.8 l 136.49,-205.05 c 2.98,-4.5 7.74,-6.78 13.38,-6.98 5.36,0.13 10.27,3 13.04,7.56 308.44,513.78 227.1,1058.98 190.57,1229.35 l 161.67,-158.83 c 3.96,-3.98 9.74,-5.47 15.11,-3.98 5.37,1.5 9.55,5.74 10.98,11.15 158.61,605.28 -39.29,1087.08 -103.18,1219.68 133.37,-45 273.95,-53.3 280.41,-53.7 4.98,-0.1 10.14,2 13.3,6.1 3.14,4.2 4.04,9.6 2.39,14.5 -1.14,3.4 -117.26,347.5 -316.46,575.1 -154.7,176.8 -254.1,396.5 -289.29,481.6 6.8,150 -24.13,275.7 -52.41,356.6 99.35,-58.3 223.95,-118.1 230.95,-121.4 9.35,-4.5 20.31,-4.1 29.25,1.2 8.95,5.2 14.73,14.5 15.43,24.8 56.56,824.6 -364.76,1188.1 -1062.87,1507.3 -439.74,201 -548.61,506.9 -644.65,776.7 -44.99,126.5 -87.5,245.9 -160.95,335.3 -216.23,263.3 -751.08,877.8 -756.45,884 -2.6,2.9 -5.72,5.1 -9.02,6.9 25.23,81.3 21.97,173.1 -1.21,263.1 242.09,-178 946.84,-692.9 1099.51,-765.2 111.28,-52.7 245.71,-49.2 375.64,-45.9 72.63,1.9 141.21,3.7 203.12,-4.2 685.7,-86.8 1263.3,-770.7 1527.16,-1392.2 -135.86,1.3 -227.68,-16.4 -237.29,-18.4 -16.92,-3.4 -27.83,-19.9 -24.42,-36.8 3.44,-16.9 19.99,-28 36.84,-24.4 2.43,0.5 103.26,19.8 252.14,14.9 5.69,-9.6 15.74,-15.6 26.61,-15.6 3.81,0 7.69,0.8 11.45,2.2 5.62,2.2 9.78,6.2 13.13,10.7 211.66,-14.3 498.66,-80 742.78,-299.3 354.05,-317.9 759.2,-710.4 749.45,-925 -6.62,-145.6 -287.77,-161.6 -559.66,-177 -59.67,-3.4 -121.39,-6.9 -180.92,-11.7 -53.62,-4.4 -112.85,-11.5 -175.56,-19.2 -346.27,-41.9 -820.47,-99.4 -1148.43,228.6 -12.21,12.2 -31.99,12.2 -44.21,0 -12.21,-12.3 -12.21,-32 0,-44.2 223.71,-223.7 505.58,-279.8 773.72,-279.8 140.51,0 276.69,15.4 399.24,30.2 46.52,-73.7 240.74,-352.9 603.42,-512.3 -53.07,-24.2 -152.13,-54.5 -309.6,-49 -13.62,0.7 -26.54,-8.4 -30.83,-21.7 -4.29,-13.3 0.77,-27.8 12.4,-35.6 3.94,-2.6 372.7,-251.2 506.94,-546 -76.7,19.5 -211.03,54.1 -300.57,79.7 -1.58,0.5 -3.12,0.2 -4.69,0.4 -2.27,0.3 -4.46,0.7 -6.77,0.5 -2.29,-0.2 -4.37,-1.1 -6.54,-1.8 -1.5,-0.4 -3.06,-0.4 -4.52,-1.2 -0.22,-0.1 -0.35,-0.3 -0.56,-0.4 -2.06,-1.1 -3.69,-2.8 -5.47,-4.3 -1.34,-1.1 -2.91,-2 -4.02,-3.3 -1,-1.3 -1.52,-2.8 -2.34,-4.2 -1.28,-2.1 -2.67,-4.2 -3.41,-6.5 -0.07,-0.3 -0.25,-0.4 -0.32,-0.7 -0.43,-1.5 -0.15,-3 -0.35,-4.5 -0.32,-2.3 -0.77,-4.5 -0.55,-6.9 0.21,-2.3 1.05,-4.4 1.76,-6.6 0.48,-1.5 0.49,-3 1.2,-4.5 4.25,-8.5 436.19,-852.5 1534.34,-985.8 420.67,-51.08 821.78,-95.75 1211.28,-117.82 0.91,-0.07 1.83,-0.6 2.74,-0.6 0.78,0 1.5,0.26 2.28,0.32 450.99,-25.32 886.46,-20.15 1318.15,42.22 699.97,101.21 1657.17,100.78 2243.47,-475.68 578.4,-568.74 1045.7,-1677.27 1063.9,-2523.7 9.2,-430.19 -60.3,-722.8 -127.6,-1005.84 -69.1,-291.18 -134.5,-566.19 -100.2,-952.7 z M 9937.07,4379.22 c 48.31,-292.35 122.53,-527.33 182.13,-716.09 52.2,-165.35 93.4,-295.88 97.7,-400.78 9.2,-225.27 -224.28,-661.85 -324.04,-848.25 -2.61,-4.96 -134.9,-256.24 -268.49,-534.45 -0.46,-0.91 -0.91,-1.76 -1.31,-2.74 -134.31,-279.9 -269.53,-586.34 -275.14,-696.33 -8.87,-172.33 -36.32,-279.124 -155.7,-349.866 l -15.45,-9.194 c -122.84,-73.024 -291.05,-173.172 -616.53,-195.404 -159.48,-10.954 -227.22,81.044 -237.39,170.758 -13.11,115.144 58.81,247.826 201.66,270.516 17.08,2.67 28.69,18.71 26.01,35.73 -2.73,17.08 -18.71,28.69 -35.79,26.01 -179.89,-28.55 -270.39,-194.944 -254.02,-339.298 3.13,-27.514 10.69,-55.81 23.28,-82.738 -69.83,-22.232 -235.18,-59.526 -318.77,51.378 -49.22,65.396 -45.44,139.462 -33.51,190.058 21.71,92.58 85.87,174.8 122.25,192.99 15.45,7.7 21.71,26.47 14.02,41.93 -7.69,15.45 -26.47,21.64 -41.99,13.95 -54.51,-27.26 -129.36,-124.66 -155.18,-234.592 -11.47,-48.834 -12.06,-95.452 -2.6,-138.614 -48.25,-13.626 -208.19,-46.162 -274.63,99.17 -83.91,183.476 78.96,390.936 228.73,470.156 55.94,29.6 154.19,52.68 258.19,77.07 204.53,48.11 459.14,107.9 586.41,257.99 190.51,224.75 437.88,806.85 486.39,1039.55 49.48,237.59 46.55,645.68 -164.37,796.35 -181.65,129.75 -514.23,407.05 -633.42,598.87 -7.63,12.25 -22.62,17.86 -36.25,13.23 -13.69,-4.43 -22.56,-17.73 -21.45,-32.08 l 11.08,-145.2 c -406.98,195.08 -450.2,636.42 -450.66,641.05 -1.3,15.06 -13.24,27.06 -28.36,28.36 -15.06,1.44 -29.02,-8.34 -32.93,-22.95 -16.49,-61.22 -52.29,-105.49 -74.65,-128.44 -237.39,242.54 -192.99,751.56 -192.54,756.77 0.26,2.16 -0.39,4.11 -0.65,6.13 1024.03,297.77 1875.22,416.11 2533.9,351.23 17.1,-32.27 36.5,-64.48 58.3,-96.56 -44.2,-101.32 -267.95,-648.8 -184.23,-1155.67 z M 3003.97,632.048 c -55.28,51.314 -59.54,117.882 -53.39,164.762 12.35,93.888 76.93,186.732 160.71,231.07 15.26,8.08 21.08,26.99 13,42.25 -8.04,15.25 -26.97,21.06 -42.25,12.97 -102.41,-54.18 -178.34,-163.388 -193.45,-278.14 -6.14,-46.684 -1.16,-90.562 13.51,-129.748 -46.86,-13.628 -138.39,-32.208 -211.46,2.998 -46.15,22.234 -78.37,63.962 -95.8,124.076 -68.49,236.154 144.53,334.544 153.56,338.584 15.79,6.98 22.95,25.43 15.98,41.21 -6.98,15.77 -25.37,22.88 -41.22,15.97 -2.59,-1.11 -243.74,-111.04 -198.78,-367.858 -65.28,13.366 -184.72,60.376 -184.72,225.328 0,200.49 163.21,274.82 369.83,368.84 34.67,15.78 70.31,32.01 106.32,49.36 66.41,32.01 126.72,55.94 179.93,77.13 156.26,62.07 269.16,106.93 365.58,277.55 144.84,256.31 39.52,1170.08 3.78,1443.99 -59.17,453.73 -259.54,1272.05 -480.07,1802.97 -48.17,115.99 -107.35,245.09 -170.03,381.75 -198.11,432.08 -438.26,956.03 -480.92,1402.45 79.02,-201.53 183.44,-406.32 317.05,-554 8.63,-9.52 22.14,-12.72 34.25,-8.22 12.03,4.57 20.04,16.11 20.2,28.95 0,0.52 1.03,47.6 32.31,192.6 109.24,-273.77 486.64,-1019.33 1446.58,-1348.01 35.21,-106.99 66.75,-222.79 92.74,-351.17 148.08,-731.08 191.39,-2818.85 160.95,-3153.52 -1.89,-20.93 -3.45,-41.67 -4.97,-62.07 -9.82,-131.32 -18.29,-244.7 -115.09,-340.02 -85.64,-84.37 -204.4,-132.42 -319.27,-178.91 l -29.69,-12.06 c -233.4,-95.26 -519.16,-212.098 -563.01,-500.738 -53.51,-10.628 -205.16,-30.384 -302.16,59.656 z M 440.138,15755.5 c 8.107,137.3 78.688,335.2 251.028,440.5 48.11,29.4 94.682,40.8 138.099,40.8 111.428,0 201.915,-75.6 243.285,-117.2 150.26,-151.4 242.45,-424.1 140.19,-588.7 -27.08,-43.5 -75.74,-76.1 -140.73,-94.2 -161.25,-44.8 -392.188,4.4 -525.736,112.2 -51.521,41.6 -111.739,111.2 -106.136,206.6 z M 15196.8,4389.59 c 152.1,-3.98 217.9,59.72 220.9,62.85 6.3,6.26 9.6,14.93 9.1,23.74 -0.4,8.93 -4.7,17.14 -11.6,22.69 -411.6,330.76 -799.8,1046.72 -946.1,1335.94 113.9,-77.78 209.7,-106.6 214.9,-108.16 12.8,-3.78 26.5,0.97 34.2,11.73 7.7,10.83 7.9,25.3 0.2,36.19 -27.4,39.18 -64.9,139.01 -112.3,265.43 -62.5,166.52 -140.4,373.72 -246.2,585.36 -19.1,38.15 -38.1,75.44 -57.1,111.82 -54.2,104.26 0,0 -53.7,101.65 -84.4,156.93 -161.2,288.25 -211.3,371.51 101,-53.92 225.2,-121.99 226.9,-122.97 10.8,-5.93 24.1,-4.95 34,2.54 9.8,7.5 14.3,20.09 11.4,32.15 -208.4,873.87 -791.8,1312.41 -1054.8,1470.39 87.5,0.19 155.8,10.3 160.1,10.95 11.4,1.76 21,9.65 24.8,20.6 3.8,10.96 1.3,23.09 -6.6,31.56 -558.8,603.23 -1298.5,688.06 -1403.9,697.25 -29.1,31.88 -58.5,62.85 -88.1,92.06 -604.6,594.43 -1582.4,596.23 -2296.3,493.03 -413.11,-59.72 -830.65,-66.46 -1262.73,-44.05 -66.51,3.51 0,0 -67.35,3.71 -381.88,22.36 -775.36,66.31 -1187.95,116.44 -886.46,107.6 -1324.29,690.8 -1448,887 128.77,-34.9 285.6,-74.2 287.48,-74.6 2.52,-0.7 5.07,-1 7.59,-1 8.64,0 17.03,3.6 23.03,10.2 7.74,8.4 10.26,20.4 6.53,31.2 -87.02,253.9 -344.8,476.4 -475.82,576.8 214.42,12 302.16,89 306.25,92.7 8.06,7.3 11.76,18.3 9.75,28.9 -2,10.7 -9.38,19.6 -19.53,23.5 -343.6,131.7 -546.11,387.3 -614.5,486.2 46.32,5.5 90.27,10.5 130.5,13.8 58.79,4.7 120.12,8.2 179.42,11.6 313.38,17.8 609.39,34.6 618.57,236.5 8.65,190.5 -221.67,481.9 -770.14,974.5 -265.29,238.2 -572.22,305.5 -794.54,317.9 -265.46,644.7 -867.68,1365.3 -1587.79,1456.5 -66.62,8.4 -140.81,6.5 -212.57,4.7 -122.64,-3.2 -249.49,-6.5 -347.26,39.8 -168.1,79.7 -1075.98,749.2 -1162.56,813.1 -36.11,83.3 -87.33,160.4 -146.76,220.3 -143.622,144.7 -310.697,175.9 -458.362,85.7 -192.913,-117.9 -271.846,-337.7 -280.821,-490.2 -2.198,-37.2 3.273,-73.3 15.781,-107.9 -2.667,-1.5 -5.364,-2.9 -7.587,-5.3 -9.416,-9.8 -229.01,-246.3 -92.427,-704.8 44.028,-147.8 124.858,-326.1 235.622,-506.3 -115.847,-3.4 -370.372,-33.8 -479.8694,-229.3 -135.6848,-242.3 33.7359,-634.6 208.1944,-824.7 58.922,-64.2 168.69,-137.9 295.781,-223.3 214.134,-143.8 480.608,-322.8 568.198,-509.6 38.13,-81.3 71.51,-164.5 103.78,-245 45.1,-112.4 91.05,-226.8 151.99,-342.5 -1.49,-72 -17.87,-629.2 -166.96,-913.8 -162.95,-311 -278.186,-588.6 -279.334,-591.4 -5.476,-13.2 -1.266,-28.5 10.231,-37 11.494,-8.6 27.338,-8.2 38.422,0.9 1.597,1.3 135.301,109.9 250.801,172.6 -21.42,-59.8 -52.2,-152.4 -81.3,-263.2 -15.56,-62 0,0 -15.56,-62 -69.11,-287.6 -116.07,-670.8 22.93,-939.3 5.64,-10.89 16.99,-17.34 29.49,-16.82 12.29,0.65 23.04,8.54 27.46,20.02 0.5,1.3 40.66,103.99 131.78,222.92 -56.49,-244.05 -146.91,-773.08 36.34,-1091.58 21.3,-36.97 42.53,-73.55 63.52,-109.67 210.34,-361.86 392,-674.43 366.84,-992.93 -0.84,-10.69 3.84,-21.06 12.41,-27.51 5.49,-4.11 12.09,-6.2 18.76,-6.2 3.74,0 7.49,0.65 11.08,2.02 2.51,0.92 78.45,30.65 188.08,93.04 16.02,-80.32 55.86,-262.56 124.01,-471.2 -22.39,-496.17 262.62,-1118.05 491.97,-1618.26 38.55,-84.04 75.39,-164.76 109.48,-241.63 59.65,-138.03 58.11,-134.31 59.65,-138.03 218.54,-526.16 417.14,-1337.32 475.8,-1787 58.02,-444.86 97.2,-1000.04 44.29,-1278.9 l -14.77,-62.33 c -7.41,-25.1 -15.93,-46.62 -25.73,-63.96 -85.58,-151.46 -184.51,-190.78 -334.24,-250.24 -54.16,-21.52 -115.57,-45.97 -183.97,-78.89 -35.59,-17.15 -70.82,-33.19 -105.09,-48.77 -218.1,-99.3 -406.45,-185.04 -406.45,-425.76 0,-211.05 162.13,-281.14 264.72,-291.702 23.97,-66.7 64.69,-114.49 121.63,-141.94 40.67,-19.624 84.68,-26.34 125.94,-26.34 59.95,0 113.48,14.082 143.13,23.666 8.6,-11.67 17.97,-22.884 28.88,-32.99 74.28,-68.982 170.66,-86.064 247.96,-86.064 35.91,0 67.62,3.65 91.16,7.564 -0.11,-4.436 -0.38,-8.738 -0.39,-13.236 -0.06,-98.974 36.83,-183.018 106.73,-243.066 65.61,-56.398 157.76,-87.108 255.79,-87.108 23.84,0 48.06,1.826 72.3,5.542 9.78,1.5 17.39,7.628 21.97,15.582 45.19,-63.57 112.35,-110.9039 191.68,-131.8978 29.07,-7.6941 58.51,-11.4762 87.54,-11.4762 67.58,0 133.03,20.4743 187.23,59.268 C 4295.75,26.7982 4391.91,0 4492.01,0 c 164.55,0 338.95,71.0018 432.12,115.534 193.96,92.78 294.31,296.922 360.71,432.016 12,24.384 22.95,46.682 33.21,65.788 73.87,137.114 127.17,388.652 88.55,572.062 -19.48,92.59 -9.64,387.88 14.75,714.2 4.63,60.18 5.85,60.31 4.63,60.18 19.66,247.96 47.05,507.58 75.96,705.73 66.64,457.11 232.57,1405.38 303.51,1711.76 16.57,75.89 0,0 16.57,75.89 33.85,172.52 36.25,334.48 24.84,493.04 146.15,6.65 757.57,43.88 1305.19,219.14 106.6,34.16 210.92,65.85 314.07,96.37 -6.72,-100.67 -23.87,-578.52 234.85,-810.44 11.15,-10.04 27.84,-10.69 39.77,-1.63 2.35,1.76 40.36,31.1 74.33,84.56 17.8,-70.15 51.25,-168.93 112.92,-269.86 82.29,-112.86 0,0 82.29,-112.86 77,-90.04 180.86,-173.69 322.02,-230.81 10.04,-4.04 21.45,-2.67 30.19,3.72 8.73,6.39 13.56,16.82 12.71,27.64 l -6.65,87.31 c 152.96,-187.58 425.24,-412.33 584,-525.71 185.3,-132.36 183.93,-519.71 139.53,-732.72 -38.54,-184.97 -210.01,-601.73 -369.17,-863.44 -39.31,-61.68 0,0 -39.31,-61.68 -22.11,-32.93 -43.69,-62.4 -64.36,-86.78 -113.96,-134.38 -357.42,-191.56 -553.02,-237.53 -112.73,-26.47 -210.08,-49.35 -273.12,-82.74 -196.91,-104.12 -350.91,-344.58 -256.37,-551.392 52.68,-115.34 153.74,-148.656 243,-148.656 40.88,0 78.76,7.106 108.95,16.366 7.43,-15.322 16.1,-30.188 26.6,-44.206 59.27,-78.566 144.94,-101.19 223.96,-101.19 75.44,0 144.75,20.602 179.3,32.86 43.75,-52.094 113.52,-89.846 215.68,-89.846 9.78,0 19.89,0.326 30.26,1.044 340.41,23.276 516.05,127.792 644.24,204.076 l 15.39,9.128 c 142.91,84.694 176.49,210.922 186.21,400.456 4.82,93.63 128.83,378.42 261.12,656.11 29.67,61.87 0,0 29.67,61.87 96.3,199.58 192.6,387.75 246.91,489.27 110.78,207.07 341.18,637.98 331.38,880.26 -4.7,113.25 -47,247.3 -100.6,417.08 -7.7,24.26 0,0 -43.1,138.55 -48.8,160.07 -100.4,348.04 -136.89,568.87 -73.09,442.06 103.39,932.1 165.59,1086.24 21.6,-27.71 44.9,-55.16 70.4,-82.29 7,-7.36 16.9,-10.88 27,-9.58 10,1.37 18.7,7.5 23.5,16.43 l 50.7,96.24 c 38.3,-197.89 171.4,-652.07 608.3,-915.67 9.6,-5.87 21.6,-6 31.5,-0.46 9.8,5.54 15.9,15.91 15.9,27.19 v 158.83 c 49.9,-84.37 132,-204.93 250.5,-323.4 207.8,-207.72 759.6,-759.64 741.2,-1258.88 -5.7,-153.54 -46.1,-341.71 -103.9,-538.16 -27.2,-89.52 0,0 -27.2,-89.52 -77,-243.72 -176.6,-493.82 -267.3,-702.07 -27.3,-62.01 0,0 -27.3,-62.01 -60.8,-136.92 -115.9,-251.73 -155,-328.41 -99.8,-195.66 -328.2,-345.3 -678.7,-444.79 -84.2,-23.868 -233.1,-123.036 -300.6,-268.692 -42.1,-90.89 -43.6,-184.712 -4.3,-271.364 60.6,-133.464 170.3,-172.714 269.1,-172.714 46,0 89.3,8.542 124.4,20.082 54.2,-89.846 149.6,-113.904 235.9,-113.904 93.9,0 176.8,28.23 183.6,30.578 7.3,2.608 12.7,7.758 16.3,13.952 9.7,-11.996 20.1,-23.536 31.9,-34.164 68.4,-61.94 153.1,-87.042 243.7,-87.042 211.1,0 453.9,136.334 596.6,259.756 280.1,242.284 297.9,355.276 322.3,511.624 7.2,45.772 14.6,93.108 29.3,149.958 37.1,142.79 122,345.63 229.5,602.45 14.8,35.08 0,0 71,170.04 62.8,151.14 129.6,315.57 197,493.63 28.2,75.83 0,0 28.2,75.83 175.3,475.44 254.1,816.04 254.1,1097.19 0,103.08 -60.7,230.35 -137.7,391.46 -117.3,246 -278.1,582.82 -318.3,1035.89 -4,45.12 -6.5,88.68 -7.9,130.93 103.3,-622.21 441.6,-1104.04 493.7,-1132.4 14.7,-8.02 31.1,-7.82 44.8,0.65 23.6,14.48 38.9,63.44 45.8,146.05 283,-758.14 841.4,-936.21 940.6,-936.21 10.9,0 26.9,3.26 41.4,18.78 33.7,36.06 40.5,132.36 40.2,207.27 336.7,-320.85 949.8,-454.44 1323.8,-454.44 105.6,0 192.3,10.69 248.2,30.77 107.7,38.8 182.9,78.37 199.1,145.27 19.7,80.98 -53.6,179.82 -186.8,323.33 -204.5,220.24 -644.6,802.61 -782.1,985.95" /></g><g
         transform="scale(1.2438)"
         id="g106"><path
           id="path108"
           style="fill:#000000;fill-opacity:1;fill-rule:nonzero;stroke:none"
           d="m 5559.17,16258 c 640.3,-94 942.05,-424.1 1087.92,-583.7 l 14.78,-16.2 c 56.38,-61.3 111.35,-130.7 91.58,-180.2 -24.31,-60.7 -157.59,-99.5 -396.15,-115.4 -454.97,-30.3 -824.01,80.2 -909.13,108.3 98.15,262.9 109.67,684.8 111,787.2 z m -142.91,-817 c 3.69,-1.4 335.64,-122.3 783.21,-122.3 51.99,0 105.62,1.7 160.39,5.3 261.81,17.4 398.24,61.8 429.36,139.6 27.68,69.1 -31.22,146.9 -98.97,220.6 l -14.71,16.1 c -150.55,164.7 -463.84,507.5 -1132.86,598.9 -5.67,0.8 -11.09,-0.9 -15.28,-4.5 -4.2,-3.7 -6.61,-9 -6.61,-14.6 0,-5.2 -1.32,-529.1 -115.7,-813.8 -1.94,-4.9 -1.85,-10.3 0.26,-15 2.11,-4.8 6.04,-8.5 10.91,-10.3" /></g><g
         transform="scale(1.35799)"
         id="g110"><path
           id="path112"
           style="fill:#000000;fill-opacity:1;fill-rule:nonzero;stroke:none"
           d="m 3601.44,15603.8 c -34.7,141.4 -89.85,278.2 -160.31,405.4 -144.81,261.6 -276.2,290.8 -356.65,258.8 -80.45,-32.1 0,-123.3 85.82,-219.8 79.58,-89.5 147.56,-191.4 210.58,-293 51.73,-83.4 80.09,-180.4 139.16,-259.4 23.34,-31.2 71.44,-75.6 100.2,-29.7 8.02,12.9 7.01,34.4 2.65,57.4 -5.64,29.7 -16.9,61.8 -21.45,80.3" /></g><g
         transform="scale(1.37093)"
         id="g114"><path
           id="path116"
           style="fill:#000000;fill-opacity:1;fill-rule:nonzero;stroke:none"
           d="m 3926.15,15735.6 c -30.29,-13.2 -85.36,4.7 -115.8,29.1 -49.15,39.3 -184.09,199.4 -253.31,300.6 -29.59,43.2 -37.5,88.6 -20.63,118.2 14.85,26.2 49.73,40.2 99.19,40.2 5.77,0 11.74,-0.2 17.91,-0.6 118.78,-7.4 211.73,-121.6 259.1,-225.9 31.84,-70.2 47.48,-144.5 42.9,-204 -3.57,-46.4 -22.99,-54.9 -29.36,-57.6 z m 50.16,290.5 c -55.79,122.9 -168.72,257.5 -318.43,266.8 -117.44,7.1 -164.62,-43.7 -182.3,-74.8 -30.18,-53.1 -21.09,-126.8 23.74,-192.3 67.23,-98.3 208.96,-269 267.34,-315.7 28.1,-22.5 82.18,-48.9 135.12,-48.9 17.88,0 35.64,3 52.22,10.2 29.41,12.8 65.64,43.3 71.26,116.4 5.52,71.9 -11.86,156.5 -48.95,238.3 v 0" /></g></g></g></svg>
